SplineFontDB: 1.0
FontName: Garuda-BoldOblique
FullName: Garuda Bold Oblique
FamilyName: Garuda
Weight: Bold
Copyright: Generated by NECTEC for Public Domain\n\nModified by TLWG
Version: 2.0 : Oct 10, 2003
ItalicAngle: -12
UnderlinePosition: -27
UnderlineWidth: 20
Ascent: 872
Descent: 128
NeedsXUIDChange: 1
FSType: 0
PfmFamily: 33
TTFWeight: 700
TTFWidth: 5
Panose: 2 11 7 4 2 2 2 2 2 4
LineGap: 0
VLineGap: 0
LangName: 1033 "" "" "" "Garuda Bold Oblique" 
Encoding: compacted
OldEncoding: iso8859_1
UnicodeInterp: none
DisplaySize: -72
AntiAlias: 1
FitToEm: 1
WinInfo: 72 8 9
BeginPrivate: 3
BlueValues 31 [-20 4 693 709 796 800 934 956]
OtherBlues 11 [-279 -240]
ForceBold 4 true
EndPrivate
TeXData: 1 10485760 0 235929 117964 78643 356516 1048576 78643 783286 444596 497025 792723 393216 433062 380633 303038 157286 324010 404750 52429 2506097 1059062 262144
BeginChars: 379 345
StartChar: .notdef
Encoding: 0 -1 0
OldEncoding: 0
Width: 500
VWidth: 2048
Flags: HW
HStem: 0 62<125 375> 810 62<125 375>
VStem: 62 62<62 810> 375 62<62 810>
Fore
62 0 m 1
 247 872 l 1
 623 872 l 1
 438 0 l 1
 62 0 l 1
138 62 m 1
 388 62 l 1
 547 810 l 1
 297 810 l 1
 138 62 l 1
EndSplineSet
MinimumDistance: x2,-1 
EndChar
StartChar: exclam
Encoding: 33 33 2
OldEncoding: 33
Width: 201
Flags: HW
HStem: -14 94 119 313
VStem: 53 95
Fore
171 138 m 1
 93 138 l 1
 161 455 l 1
 241 455 l 1
 171 138 l 1
158 49 m 0
 154 27 135 1 105 1 c 0
 80 1 70 20 70 38 c 0
 70 42 70 46 71 49 c 0
 76 71 95 96 125 96 c 0
 150 96 159 79 159 61 c 0
 159 57 159 53 158 49 c 0
EndSplineSet
MinimumDistance: x4,-1 
EndChar
StartChar: quotedbl
Encoding: 34 34 3
OldEncoding: 34
Width: 299
Flags: HW
HStem: 256 173
VStem: 28 95 176 95
Fore
298 297 m 1
 281 297 l 1
 273 377 l 1
 290 455 l 1
 356 455 l 1
 339 377 l 1
 298 297 l 1
144 297 m 1
 127 297 l 1
 120 377 l 1
 137 455 l 1
 203 455 l 1
 186 377 l 1
 144 297 l 1
EndSplineSet
MinimumDistance: x8,-1 
EndChar
StartChar: numbersign
Encoding: 35 35 4
OldEncoding: 35
Width: 390
Flags: HW
HStem: -17 39 91 64 245 64
VStem: 44 331
Fore
325 173 m 1
 389 173 l 1
 375 108 l 1
 298 108 l 1
 252 0 l 1
 189 0 l 1
 235 108 l 1
 165 108 l 1
 120 0 l 1
 56 0 l 1
 101 108 l 1
 43 108 l 1
 57 173 l 1
 128 173 l 1
 165 269 l 1
 104 269 l 1
 118 336 l 1
 190 336 l 1
 238 457 l 1
 303 457 l 1
 255 336 l 1
 324 336 l 1
 375 457 l 1
 437 457 l 1
 387 336 l 1
 441 336 l 1
 427 269 l 1
 363 269 l 1
 325 173 l 1
192 173 m 1
 261 173 l 1
 301 269 l 1
 229 269 l 1
 192 173 l 1
EndSplineSet
MinimumDistance: x9,-1 
EndChar
StartChar: dollar
Encoding: 36 36 5
OldEncoding: 36
Width: 375
Flags: HW
HStem: 202 41 374 41
VStem: 192 34
Fore
260 415 m 0
 269 456 l 1
 331 456 l 1
 322 415 l 1
 369 408 406 375 406 329 c 0
 406 319 404 308 400 296 c 0
 396 284 385 283 384 283 c 2
 338 283 l 2
 336 283 328 284 328 293 c 0
 328 296 l 0
 329 302 330 308 330 314 c 0
 330 329 324 342 308 347 c 1
 286 246 l 1
 306 239 343 223 360 197 c 0
 369 183 373 167 373 149 c 0
 373 114 357 74 332 49 c 0
 299 15 258 3 234 1 c 1
 224 -49 l 1
 162 -49 l 1
 172 1 l 1
 113 6 83 37 83 90 c 0
 83 98 84 106 85 114 c 0
 86 123 91 137 103 137 c 2
 148 137 l 2
 150 137 159 136 159 126 c 0
 159 126 159 126 159 125 c 1
 159 120 l 1
 158 114 158 108 158 103 c 0
 158 85 164 76 187 69 c 1
 212 186 l 1
 190 190 151 202 130 233 c 0
 124 242 121 255 121 271 c 0
 121 304 135 346 168 375 c 0
 196 399 228 413 260 415 c 0
233 283 m 0
 233 283 l 0
 237 300 247 349 247 349 c 1
 228 346 203 332 196 301 c 0
 196 299 196 298 196 296 c 0
 196 279 217 265 226 265 c 0
 228 265 230 266 230 268 c 0
 230 268 l 0
 230 268 l 0
 230 269 232 280 233 283 c 0
271 172 m 1
 248 68 l 1
 266 72 289 87 296 123 c 0
 297 127 297 130 297 134 c 0
 297 155 282 167 271 172 c 1
EndSplineSet
MinimumDistance: x32,-1 
EndChar
StartChar: percent
Encoding: 37 37 6
OldEncoding: 37
Width: 455
Flags: HW
HStem: -12 39 207 39 395 39
VStem: 18 59 142 59 257 59 382 59
Fore
98 333 m 0
 98 333 l 0
 111 396 150 456 213 456 c 0
 263 456 282 420 282 374 c 0
 282 361 281 347 278 333 c 0
 265 271 226 210 161 210 c 0
 112 210 93 247 93 292 c 0
 93 305 95 319 98 333 c 0
230 390 m 0
 230 390 l 0
 230 407 222 419 205 419 c 0
 169 419 158 358 153 333 c 0
 151 322 146 302 146 285 c 0
 146 266 151 250 169 250 c 0
 206 250 216 306 221 331 c 0
 225 349 230 368 230 386 c 0
 230 387 230 389 230 390 c 0
290 119 m 0
 290 119 l 0
 303 180 342 241 406 241 c 0
 456 241 476 205 476 160 c 0
 476 147 474 133 471 119 c 0
 458 56 418 -5 354 -5 c 0
 304 -5 285 32 285 78 c 0
 285 91 287 105 290 119 c 0
398 203 m 0
 398 203 l 0
 362 203 351 143 346 119 c 0
 344 108 339 88 339 70 c 0
 339 51 344 35 362 35 c 0
 398 35 409 91 414 115 c 0
 417 128 422 150 422 168 c 0
 422 187 417 203 398 203 c 0
428 456 m 1
 504 456 l 1
 140 -1 l 1
 62 -1 l 1
 428 456 l 1
EndSplineSet
MinimumDistance: x19,-1 
EndChar
StartChar: ampersand
Encoding: 38 38 7
OldEncoding: 38
Width: 468
Flags: HW
HStem: -6 80 382 64
VStem: 77 95 268 78
Fore
414 1 m 0
 414 1 l 0
 376 1 352 12 330 53 c 1
 271 9 229 -5 176 -5 c 0
 138 -5 100 2 75 25 c 0
 56 43 46 75 46 108 c 0
 46 119 48 131 50 143 c 0
 64 205 115 229 193 257 c 1
 181 278 178 286 174 293 c 0
 168 307 164 322 164 339 c 0
 164 345 164 352 166 360 c 0
 180 430 247 461 312 461 c 0
 371 461 412 434 412 379 c 0
 412 371 411 362 409 352 c 0
 398 300 361 269 294 243 c 1
 359 153 l 1
 395 188 414 223 428 254 c 1
 495 244 l 1
 472 195 438 149 390 101 c 1
 405 78 417 65 440 65 c 0
 442 65 443 65 445 65 c 2
 460 66 l 1
 447 5 l 1
 435 2 425 1 414 1 c 0
304 414 m 0
 304 414 l 0
 281 414 248 399 240 363 c 0
 239 359 239 355 239 352 c 0
 239 330 253 313 263 298 c 1
 275 280 l 1
 308 293 344 312 353 352 c 0
 354 357 355 362 355 366 c 0
 355 397 332 414 304 414 c 0
221 213 m 1
 175 205 141 180 136 143 c 0
 135 138 135 133 135 129 c 0
 135 85 163 57 202 57 c 0
 231 57 263 70 302 97 c 1
 221 213 l 1
EndSplineSet
MinimumDistance: x27,-1 
EndChar
StartChar: quotesingle
Encoding: 39 39 8
OldEncoding: 39
Width: 195
Flags: HW
HStem: 278 173
VStem: 53 95
Fore
174 319 m 1
 157 319 l 1
 150 399 l 1
 166 477 l 1
 231 477 l 1
 215 399 l 1
 174 319 l 1
EndSplineSet
MinimumDistance: x2,-1 
EndChar
StartChar: parenleft
Encoding: 40 40 9
OldEncoding: 40
Width: 247
Flags: HW
VStem: 25 95
Fore
140 180 m 0
 130 134 125 87 125 41 c 0
 125 -12 132 -63 145 -109 c 1
 101 -109 l 1
 78 -54 65 9 65 75 c 0
 65 110 68 146 76 183 c 0
 98 288 152 394 227 477 c 1
 271 477 l 1
 205 386 162 284 140 180 c 0
EndSplineSet
EndChar
StartChar: parenright
Encoding: 41 41 10
OldEncoding: 41
Width: 247
Flags: HW
VStem: 99 95
Fore
72 -109 m 1
 28 -109 l 1
 89 -22 134 81 155 180 c 0
 166 230 171 279 171 327 c 0
 171 379 165 430 150 477 c 1
 194 477 l 1
 220 424 233 361 233 296 c 0
 233 259 229 221 221 183 c 0
 199 78 144 -24 72 -109 c 1
EndSplineSet
EndChar
StartChar: asterisk
Encoding: 42 42 11
OldEncoding: 42
Width: 390
Flags: HW
Fore
285 342 m 1
 329 252 l 1
 303 234 l 1
 265 329 l 1
 187 234 l 1
 169 252 l 1
 253 342 l 1
 158 373 l 1
 173 402 l 1
 262 364 l 1
 282 477 l 1
 310 477 l 1
 282 364 l 1
 388 403 l 1
 390 373 l 1
 285 342 l 1
EndSplineSet
EndChar
StartChar: plus
Encoding: 43 43 12
OldEncoding: 43
Width: 369
Flags: HW
HStem: 144 80
VStem: 149 78
Fore
252 172 m 1
 224 42 l 1
 170 42 l 1
 198 172 l 1
 80 172 l 1
 92 231 l 1
 210 231 l 1
 238 361 l 1
 292 361 l 1
 264 231 l 1
 382 231 l 1
 370 172 l 1
 252 172 l 1
EndSplineSet
MinimumDistance: x2,-1 y6,4 y6,5 y0,10 y0,11 x9,7 x9,8 x0,2 x0,1 
EndChar
StartChar: comma
Encoding: 44 44 13
OldEncoding: 44
Width: 165
Flags: HW
HStem: -98 39 3 94
Fore
69 -46 m 0
 82 -28 83 -19 86 0 c 1
 85 -0 85 -0 84 -0 c 0
 53 -0 41 18 41 39 c 0
 41 69 65 104 100 104 c 0
 103 104 l 0
 134 102 143 79 143 54 c 0
 143 42 141 30 138 19 c 0
 116 -46 82 -93 12 -105 c 1
 19 -72 l 1
 37 -69 56 -64 69 -46 c 0
EndSplineSet
EndChar
StartChar: hyphen
Encoding: 45 45 14
OldEncoding: 45
Width: 297
Flags: HW
HStem: 131 64
VStem: 0 149
Fore
59 157 m 1
 71 210 l 1
 314 210 l 1
 302 157 l 1
 59 157 l 1
EndSplineSet
EndChar
StartChar: period
Encoding: 46 46 15
OldEncoding: 46
Width: 142
Flags: HW
HStem: -2 39
Fore
131 49 m 0
 127 27 107 1 77 1 c 0
 52 1 42 20 42 38 c 0
 42 42 42 46 43 49 c 0
 48 71 67 96 97 96 c 0
 122 96 132 79 132 60 c 0
 132 57 132 53 131 49 c 0
EndSplineSet
EndChar
StartChar: slash
Encoding: 47 47 16
OldEncoding: 47
Width: 390
Flags: HW
Fore
387 456 m 1
 469 456 l 1
 105 -1 l 1
 21 -1 l 1
 387 456 l 1
EndSplineSet
MinimumDistance: x3,-1 
EndChar
StartChar: zero
Encoding: 48 48 17
OldEncoding: 48
Width: 455
Flags: HW
HStem: -7 64 405 64
VStem: 46 95 344 95
Fore
481 230 m 0
 481 230 l 0
 454 118 400 1 241 0 c 0
 240 -0 240 -0 239 -0 c 0
 132 -0 93 69 93 153 c 0
 93 178 96 203 102 229 c 0
 124 334 198 456 338 457 c 0
 339 457 340 457 342 457 c 0
 454 457 491 387 491 307 c 0
 491 282 487 256 481 230 c 0
330 404 m 0
 244 403 201 305 183 229 c 0
 178 207 174 181 174 156 c 0
 174 101 193 50 254 50 c 0
 344 50 382 152 398 228 c 0
 404 254 409 283 409 310 c 0
 409 361 391 404 331 404 c 0
 330 404 l 0
EndSplineSet
MinimumDistance: x10,-1 
EndChar
StartChar: one
Encoding: 49 49 18
OldEncoding: 49
Width: 455
Flags: HW
HStem: -5 35
VStem: 238 95
Fore
244 -3 m 1
 332 407 l 1
 303 381 289 369 266 353 c 0
 248 340 231 327 210 314 c 1
 181 352 l 1
 198 363 l 2
 217 375 300 434 314 450 c 0
 317 454 319 458 324 458 c 2
 426 458 l 1
 328 -3 l 1
 244 -3 l 1
EndSplineSet
MinimumDistance: x2,-1 
EndChar
StartChar: two
Encoding: 50 50 19
OldEncoding: 50
Width: 455
Flags: HW
HStem: -3 64
VStem: 67 95
Fore
435 -2 m 1
 76 -2 l 1
 89 52 102 101 149 141 c 0
 203 189 256 214 319 243 c 1
 402 280 433 317 433 346 c 0
 433 383 386 408 336 408 c 0
 302 408 266 396 242 369 c 0
 228 352 221 336 221 318 c 0
 221 310 223 300 226 290 c 1
 143 261 l 1
 137 274 135 287 135 299 c 0
 135 313 137 326 141 340 c 0
 152 375 190 417 232 438 c 0
 270 457 314 466 355 466 c 0
 412 466 463 449 487 416 c 0
 504 394 511 372 511 352 c 0
 511 295 455 249 424 231 c 0
 388 210 360 194 333 180 c 0
 292 159 247 134 205 94 c 0
 195 85 191 76 188 64 c 1
 257 64 430 64 450 65 c 1
 435 -2 l 1
EndSplineSet
MinimumDistance: x11,-1 
EndChar
StartChar: three
Encoding: 51 51 20
OldEncoding: 51
Width: 455
Flags: HW
HStem: -7 20
VStem: 64 78
Fore
230 329 m 1
 232 327 l 1
 152 330 l 1
 164 369 175 389 207 415 c 0
 243 444 306 461 363 461 c 0
 410 461 454 449 476 423 c 0
 494 402 501 379 501 357 c 0
 501 327 488 299 468 282 c 0
 449 266 416 250 394 246 c 1
 393 240 l 1
 415 237 444 224 459 199 c 0
 468 184 473 168 473 150 c 0
 473 122 461 91 439 64 c 0
 401 18 325 -5 254 -5 c 0
 187 -5 125 15 104 55 c 0
 95 70 92 86 92 104 c 0
 92 114 93 126 95 138 c 1
 177 138 l 1
 176 129 176 120 176 113 c 0
 176 102 177 93 182 84 c 0
 195 62 229 50 265 50 c 0
 316 50 372 74 385 131 c 0
 387 139 388 146 388 152 c 0
 388 207 326 213 274 213 c 0
 267 213 261 213 255 213 c 1
 267 269 l 1
 280 267 291 266 302 266 c 0
 311 266 320 267 329 269 c 0
 362 275 401 286 416 315 c 0
 418 319 424 333 424 349 c 0
 424 374 410 403 345 403 c 0
 344 403 344 403 343 403 c 0
 299 403 257 383 235 341 c 0
 234 338 233 334 231 331 c 0
 231 330 230 329 230 329 c 1
EndSplineSet
MinimumDistance: x33,-1 
EndChar
StartChar: four
Encoding: 52 52 21
OldEncoding: 52
Width: 455
Flags: HW
HStem: -3 39 113 64
VStem: 293 95
Fore
408 116 m 1
 382 -3 l 1
 298 -3 l 1
 324 116 l 1
 70 116 l 1
 83 177 l 1
 371 460 l 1
 480 460 l 1
 418 170 l 1
 493 170 l 1
 482 116 l 1
 408 116 l 1
383 399 m 1
 159 170 l 1
 334 170 l 1
 383 399 l 1
EndSplineSet
MinimumDistance: x8,6 y6,8 y6,7 y3,12 y3,13 y9,11 x11,9 x11,10 x3,5 x3,4 
EndChar
StartChar: five
Encoding: 53 53 22
OldEncoding: 53
Width: 455
Flags: HW
HStem: -5 64 269 51 405 64
VStem: 373 78
Fore
261 -10 m 0
 171 -10 132 17 115 47 c 0
 105 63 103 80 103 102 c 0
 103 107 103 113 103 120 c 1
 187 120 l 1
 187 117 187 114 187 112 c 0
 187 64 218 48 268 48 c 0
 269 48 271 48 272 48 c 0
 346 49 381 91 398 145 c 0
 402 158 404 170 404 181 c 0
 404 231 365 256 317 256 c 0
 279 256 234 239 200 205 c 1
 123 205 l 1
 212 455 l 1
 513 455 l 1
 508 392 l 1
 268 392 l 1
 265 387 263 382 261 377 c 0
 247 343 235 314 222 280 c 1
 237 288 268 307 284 312 c 0
 302 317 325 323 356 323 c 0
 360 323 365 323 369 323 c 0
 452 319 486 268 486 199 c 0
 486 184 485 169 482 153 c 0
 464 57 396 -10 261 -10 c 0
EndSplineSet
EndChar
StartChar: six
Encoding: 54 54 23
OldEncoding: 54
Width: 455
Flags: HW
HStem: -7 64 255 51 408 64
VStem: 67 95 367 78
Fore
255 -10 m 0
 255 -10 l 0
 140 -5 106 60 106 137 c 0
 106 172 114 210 123 246 c 0
 151 348 225 461 366 463 c 0
 367 463 369 463 370 463 c 0
 447 463 503 436 509 359 c 1
 435 359 l 1
 426 395 397 410 358 410 c 0
 355 410 l 0
 285 410 241 352 220 291 c 0
 215 276 212 264 209 249 c 1
 213 251 217 253 220 256 c 2
 226 261 l 2
 259 287 295 297 332 299 c 0
 335 299 337 299 340 299 c 0
 429 299 476 255 476 185 c 0
 476 172 475 160 472 146 c 0
 455 63 386 -10 267 -10 c 0
 255 -10 l 0
311 248 m 0
 259 247 201 210 190 140 c 0
 189 133 188 126 188 119 c 0
 188 77 212 46 270 46 c 0
 341 46 382 91 394 144 c 0
 396 154 397 162 397 171 c 0
 397 223 359 248 315 248 c 0
 314 248 312 248 311 248 c 0
EndSplineSet
MinimumDistance: x12,-1 
EndChar
StartChar: seven
Encoding: 55 55 24
OldEncoding: 55
Width: 455
Flags: HW
HStem: -5 39 403 64
VStem: 149 95
Fore
311 165 m 0
 275 103 261 66 245 -1 c 1
 151 -1 l 1
 177 87 209 146 267 221 c 0
 315 284 377 342 444 397 c 1
 170 397 l 1
 182 453 l 1
 527 453 l 1
 514 392 l 1
 435 331 359 245 311 165 c 0
EndSplineSet
EndChar
StartChar: eight
Encoding: 56 56 25
OldEncoding: 56
Width: 455
Flags: HW
HStem: -4 64 227 64 421 51
VStem: 65 95 346 95
Fore
464 142 m 0
 464 142 l 0
 449 61 380 -4 259 -4 c 0
 253 -4 l 0
 144 -3 98 48 98 111 c 0
 98 121 100 132 102 143 c 0
 121 228 212 248 234 251 c 1
 238 266 l 1
 196 271 166 294 166 335 c 0
 166 344 167 353 170 363 c 0
 190 431 275 460 352 460 c 0
 428 460 493 437 493 376 c 0
 493 372 493 367 492 362 c 0
 483 306 441 275 390 266 c 1
 387 251 l 1
 405 247 466 232 466 165 c 0
 466 158 466 150 464 142 c 0
387 142 m 0
 387 142 l 0
 388 147 388 152 388 157 c 0
 388 193 366 227 301 227 c 0
 230 227 192 188 179 142 c 0
 177 135 176 127 176 120 c 0
 176 81 205 45 262 44 c 0
 263 44 265 44 266 44 c 0
 336 44 381 94 387 142 c 0
343 417 m 0
 300 417 259 399 247 356 c 0
 245 349 244 342 244 335 c 0
 244 305 268 284 311 284 c 0
 311 284 312 284 313 284 c 0
 375 284 407 313 413 355 c 0
 414 360 414 364 414 369 c 0
 414 403 384 417 343 417 c 0
EndSplineSet
MinimumDistance: x20,-1 
EndChar
StartChar: nine
Encoding: 57 57 26
OldEncoding: 57
Width: 455
Flags: HW
HStem: -4 64 162 51 411 64
VStem: 77 78 350 95
Fore
484 217 m 0
 484 217 l 0
 457 117 382 -4 243 -5 c 0
 240 -5 l 0
 125 -5 106 59 103 88 c 2
 102 94 l 1
 172 94 l 1
 180 58 210 43 250 43 c 0
 253 43 l 0
 292 43 327 62 358 105 c 0
 401 164 399 165 411 220 c 1
 397 214 392 206 382 198 c 0
 351 173 316 163 280 162 c 0
 277 162 275 162 272 162 c 0
 184 162 136 204 136 273 c 0
 136 284 137 297 140 310 c 0
 157 392 225 463 339 463 c 0
 344 463 348 463 353 463 c 0
 467 458 501 399 501 325 c 0
 501 291 494 253 484 217 c 0
340 410 m 0
 268 410 228 365 216 312 c 0
 214 304 213 296 213 289 c 0
 213 238 252 214 296 214 c 0
 349 214 409 249 419 316 c 0
 420 323 421 330 421 337 c 0
 421 379 397 410 340 410 c 0
EndSplineSet
MinimumDistance: x10,-1 
EndChar
StartChar: colon
Encoding: 58 58 27
OldEncoding: 58
Width: 192
Flags: HW
HStem: 0 39
Fore
199 297 m 0
 199 297 l 0
 194 275 176 250 146 250 c 0
 121 250 111 267 111 286 c 0
 111 289 111 293 112 297 c 0
 117 319 136 345 166 345 c 0
 191 345 200 328 200 309 c 0
 200 305 200 301 199 297 c 0
146 49 m 0
 142 27 123 1 93 1 c 0
 68 1 58 20 58 38 c 0
 58 42 58 46 59 49 c 0
 64 71 83 96 113 96 c 0
 138 96 147 79 147 61 c 0
 147 57 147 53 146 49 c 0
EndSplineSet
EndChar
StartChar: semicolon
Encoding: 59 59 28
OldEncoding: 59
Width: 209
Flags: HW
HStem: -98 39
Fore
202 294 m 0
 202 294 l 0
 198 272 179 247 149 247 c 0
 123 247 113 265 113 284 c 0
 113 287 113 291 114 294 c 0
 119 316 139 342 169 342 c 0
 194 342 203 325 203 306 c 0
 203 302 203 298 202 294 c 0
84 -46 m 0
 98 -28 99 -15 102 3 c 1
 72 3 59 20 59 40 c 0
 59 69 84 103 118 103 c 0
 124 103 l 0
 145 101 159 85 159 56 c 0
 159 45 157 31 152 16 c 0
 131 -49 102 -93 32 -105 c 1
 39 -72 l 1
 57 -69 71 -64 84 -46 c 0
EndSplineSet
EndChar
StartChar: less
Encoding: 60 60 29
OldEncoding: 60
Width: 390
Flags: HW
Fore
82 161 m 1
 96 228 l 1
 416 348 l 1
 402 284 l 1
 154 195 l 1
 364 105 l 1
 351 41 l 1
 82 161 l 1
EndSplineSet
MinimumDistance: x5,-1 
EndChar
StartChar: equal
Encoding: 61 61 30
OldEncoding: 61
Width: 355
Flags: HW
HStem: 70 80 224 80
VStem: 38 314
Fore
99 262 m 1
 111 321 l 1
 392 321 l 1
 380 262 l 1
 99 262 l 1
62 90 m 1
 75 150 l 1
 356 150 l 1
 343 90 l 1
 62 90 l 1
EndSplineSet
EndChar
StartChar: greater
Encoding: 62 62 31
OldEncoding: 62
Width: 390
Flags: HW
Fore
57 41 m 1
 70 105 l 1
 317 195 l 1
 108 284 l 1
 122 348 l 1
 390 228 l 1
 376 161 l 1
 57 41 l 1
EndSplineSet
MinimumDistance: x2,-1 
EndChar
StartChar: question
Encoding: 63 63 32
OldEncoding: 63
Width: 351
Flags: HW
HStem: -2 20
Fore
366 426 m 0
 366 426 l 0
 381 411 388 389 388 364 c 0
 388 316 361 257 308 212 c 0
 273 182 233 159 223 113 c 0
 222 109 222 106 218 92 c 1
 164 91 l 1
 173 120 176 134 182 148 c 0
 188 162 196 175 212 199 c 0
 244 246 296 273 310 329 c 0
 312 337 313 344 313 351 c 0
 313 388 284 408 252 408 c 0
 229 408 205 399 187 379 c 0
 179 371 165 350 165 330 c 0
 165 328 165 327 165 326 c 1
 180 334 192 337 201 337 c 0
 223 337 233 321 233 303 c 0
 233 287 226 269 212 258 c 0
 196 246 181 241 167 241 c 0
 144 241 125 254 116 272 c 0
 111 282 108 294 108 307 c 0
 108 354 141 412 188 438 c 0
 215 453 245 461 274 461 c 0
 310 461 343 450 366 426 c 0
191 74 m 0
 212 74 221 61 221 45 c 0
 221 24 204 -1 175 -1 c 0
 154 -1 145 12 145 28 c 0
 145 49 162 74 191 74 c 0
EndSplineSet
MinimumDistance: x21,-1 
EndChar
StartChar: at
Encoding: 64 64 33
OldEncoding: 64
Width: 512
Flags: HW
HStem: -20 51 75 39 256 64 380 51
VStem: 39 59 131 78 426 47
Fore
353 88 m 0
 353 88 l 0
 335 88 320 97 320 118 c 0
 320 120 320 124 321 127 c 1
 289 99 269 90 251 90 c 0
 206 90 173 127 173 176 c 0
 173 185 174 193 176 202 c 0
 192 279 254 350 327 350 c 0
 354 350 373 341 392 308 c 1
 407 346 l 1
 459 346 l 1
 433 274 411 214 387 147 c 0
 386 144 386 141 386 139 c 0
 386 134 388 130 395 130 c 0
 421 130 464 181 480 253 c 0
 483 269 485 285 485 298 c 0
 485 379 431 420 354 420 c 0
 253 420 169 339 145 228 c 0
 141 210 139 193 139 177 c 0
 139 88 196 35 282 35 c 0
 325 35 367 52 405 79 c 1
 460 79 l 1
 401 22 346 -17 269 -17 c 0
 266 -17 l 0
 147 -16 78 57 78 165 c 0
 78 184 80 205 85 226 c 0
 114 364 234 472 366 472 c 0
 467 472 537 406 537 315 c 0
 537 302 536 288 533 274 c 0
 522 222 509 184 473 145 c 0
 433 102 410 88 353 88 c 0
246 213 m 0
 245 207 244 200 244 195 c 0
 244 170 256 152 280 152 c 0
 318 152 350 188 359 229 c 0
 360 235 361 240 361 245 c 0
 361 270 347 287 322 287 c 0
 287 287 254 250 246 213 c 0
EndSplineSet
MinimumDistance: x11,-1 
EndChar
StartChar: A
Encoding: 65 65 34
OldEncoding: 65
Width: 410
Flags: HW
HStem: -11 39 79 80 389 39
Fore
300 2 m 1
 294 101 l 1
 141 101 l 1
 92 2 l 1
 16 2 l 1
 248 459 l 1
 353 459 l 1
 385 2 l 1
 300 2 l 1
281 389 m 1
 172 164 l 1
 291 164 l 1
 281 389 l 1
EndSplineSet
MinimumDistance: x0,-1 
EndChar
StartChar: B
Encoding: 66 66 35
OldEncoding: 66
Width: 422
Flags: HW
HStem: -11 80 174 80 348 80
VStem: 42 95 298 106
Fore
350 26 m 0
 350 26 l 0
 316 3 277 2 238 2 c 2
 54 2 l 1
 152 459 l 1
 336 459 l 2
 345 459 l 0
 374 459 404 458 427 440 c 0
 446 424 456 401 456 374 c 0
 456 365 455 355 453 345 c 0
 443 298 403 256 349 241 c 1
 347 235 l 1
 393 224 420 189 420 145 c 0
 420 136 419 128 417 119 c 0
 409 82 382 49 350 26 c 0
354 391 m 0
 354 391 l 0
 344 398 329 399 314 399 c 0
 306 399 298 399 291 399 c 2
 217 399 l 1
 189 267 l 1
 271 267 l 2
 273 267 276 267 278 267 c 0
 297 267 316 268 335 281 c 0
 353 294 366 315 370 336 c 0
 371 342 372 347 372 353 c 0
 372 368 367 382 354 391 c 0
319 197 m 0
 305 208 282 208 264 208 c 2
 176 208 l 1
 146 65 l 1
 229 65 l 2
 251 65 275 65 297 78 c 0
 317 91 332 115 338 139 c 0
 339 143 339 148 339 152 c 0
 339 170 332 187 319 197 c 0
EndSplineSet
MinimumDistance: x25,-1 
EndChar
StartChar: C
Encoding: 67 67 36
OldEncoding: 67
Width: 422
Flags: HW
HStem: -15 80 356 80
VStem: 20 106
Fore
221 -2 m 0
 123 -2 75 68 75 162 c 0
 75 184 78 208 83 233 c 0
 110 362 200 467 323 467 c 0
 414 467 454 418 454 332 c 0
 454 324 454 316 453 307 c 1
 370 301 l 1
 371 310 372 319 372 328 c 0
 372 367 356 401 308 401 c 0
 307 401 307 401 306 401 c 0
 231 400 185 291 171 228 c 0
 167 210 165 191 165 172 c 0
 165 115 184 63 236 63 c 0
 239 63 l 0
 293 64 327 109 345 153 c 1
 419 148 l 1
 385 52 312 -2 221 -2 c 0
EndSplineSet
MinimumDistance: x10,-1 
EndChar
StartChar: D
Encoding: 68 68 37
OldEncoding: 68
Width: 422
Flags: HW
HStem: -11 88 384 88
VStem: 31 95 286 106
Fore
347 65 m 0
 347 65 l 0
 296 16 229 2 169 2 c 2
 36 2 l 1
 134 459 l 1
 250 459 l 2
 313 459 377 454 411 408 c 0
 434 378 444 340 444 298 c 0
 444 277 441 255 436 232 c 0
 423 170 393 110 347 65 c 0
346 352 m 0
 329 387 290 389 256 389 c 0
 252 389 248 389 245 389 c 2
 198 389 l 1
 130 71 l 1
 176 71 l 2
 221 71 269 77 305 124 c 0
 332 158 348 197 356 235 c 0
 359 251 361 267 361 282 c 0
 361 307 356 332 346 352 c 0
EndSplineSet
MinimumDistance: x12,-1 
EndChar
StartChar: E
Encoding: 69 69 38
OldEncoding: 69
Width: 371
Flags: HW
HStem: 0 80 185 80 359 80
VStem: 40 95
Fore
52 1 m 1
 149 455 l 1
 438 455 l 1
 424 389 l 1
 213 389 l 1
 184 255 l 1
 350 255 l 1
 337 191 l 1
 171 191 l 1
 143 62 l 1
 354 62 l 1
 341 1 l 1
 52 1 l 1
EndSplineSet
MinimumDistance: x10,-1 x3,1 x3,2 x7,5 x7,6 x8,10 x8,9 
EndChar
StartChar: F
Encoding: 70 70 39
OldEncoding: 70
Width: 346
Flags: HW
HStem: -12 43 177 88 383 88
VStem: 39 95
Fore
211 388 m 1
 183 256 l 1
 350 256 l 1
 336 188 l 1
 169 188 l 1
 129 1 l 1
 51 1 l 1
 148 457 l 1
 436 457 l 1
 421 388 l 1
 211 388 l 1
EndSplineSet
MinimumDistance: x2,-1 y6,4 y6,5 x9,7 x9,8 x0,2 x0,1 
EndChar
StartChar: G
Encoding: 71 71 40
OldEncoding: 71
Width: 422
Flags: HW
HStem: -18 80 141 80 353 80
VStem: 19 106 287 95
Fore
323 0 m 1
 326 11 333 48 333 50 c 0
 333 50 l 0
 333 50 333 50 333 49 c 1
 307 3 264 -4 217 -4 c 0
 118 -4 61 69 61 166 c 0
 61 185 64 205 68 226 c 0
 95 351 189 464 322 464 c 0
 323 464 325 464 327 464 c 0
 409 463 460 415 460 331 c 0
 460 329 460 326 460 324 c 1
 385 313 l 1
 385 315 385 317 385 318 c 0
 385 363 361 400 310 401 c 0
 309 401 l 0
 223 401 163 290 148 223 c 0
 146 213 145 202 145 190 c 0
 145 132 172 60 243 60 c 0
 295 60 338 100 350 170 c 1
 268 170 l 1
 282 233 l 1
 438 233 l 1
 388 0 l 1
 323 0 l 1
EndSplineSet
MinimumDistance: x4,-1 
EndChar
StartChar: H
Encoding: 72 72 41
OldEncoding: 72
Width: 429
Flags: HW
HStem: -11 39 177 80 389 39
VStem: 38 95 284 95
Fore
313 2 m 1
 356 201 l 1
 161 201 l 1
 118 2 l 1
 39 2 l 1
 137 459 l 1
 216 459 l 1
 176 271 l 1
 371 271 l 1
 411 459 l 1
 493 459 l 1
 395 2 l 1
 313 2 l 1
EndSplineSet
MinimumDistance: x2,-1 y4,2 y4,3 y5,7 y5,6 y10,8 y10,9 y11,1 y11,0 
EndChar
StartChar: I
Encoding: 73 73 42
OldEncoding: 73
Width: 192
Flags: HW
HStem: -11 39 389 39
VStem: 42 95
Fore
54 2 m 1
 152 459 l 1
 230 459 l 1
 132 2 l 1
 54 2 l 1
EndSplineSet
MinimumDistance: x2,-1 
EndChar
StartChar: J
Encoding: 74 74 43
OldEncoding: 74
Width: 315
Flags: HW
HStem: 413 40
VStem: 10 58 204 58
Fore
233 19 m 0
 207 4 175 -2 154 -2 c 0
 147 -2 140 -1 136 0 c 1
 60 5 43 60 43 99 c 0
 43 108 44 116 45 122 c 2
 57 179 l 1
 133 179 l 1
 121 124 l 2
 120 120 120 116 120 112 c 0
 120 84 140 69 165 69 c 0
 192 69 224 88 238 128 c 0
 244 144 247 160 250 173 c 2
 310 457 l 1
 387 457 l 1
 315 119 l 1
 299 80 273 42 233 19 c 0
EndSplineSet
MinimumDistance: x4,-1 
EndChar
StartChar: K
Encoding: 75 75 44
OldEncoding: 75
Width: 410
Flags: HW
HStem: -14 39 386 39
VStem: 42 95
Fore
299 0 m 1
 254 213 l 1
 147 85 l 1
 129 0 l 1
 54 0 l 1
 151 456 l 1
 226 456 l 1
 173 207 l 1
 380 455 l 1
 380 455 450 455 463 455 c 1
 326 286 l 1
 387 0 l 1
 299 0 l 1
EndSplineSet
MinimumDistance: x1,-1 
EndChar
StartChar: L
Encoding: 76 76 45
OldEncoding: 76
Width: 320
Flags: HW
HStem: -11 80 389 39
VStem: 37 95
Fore
49 2 m 1
 147 459 l 1
 226 459 l 1
 143 72 l 1
 319 72 l 1
 304 2 l 1
 49 2 l 1
EndSplineSet
MinimumDistance: x2,-1 y3,5 y3,4 x3,1 x3,2 
EndChar
StartChar: M
Encoding: 77 77 46
OldEncoding: 77
Width: 563
Flags: HW
HStem: -11 39 348 80
VStem: 40 78 424 95
Fore
429 2 m 1
 513 396 l 1
 489 396 l 1
 296 2 l 1
 244 2 l 1
 221 396 l 1
 199 396 l 1
 115 2 l 1
 52 2 l 1
 150 459 l 1
 290 459 l 1
 307 136 l 1
 465 459 l 1
 605 459 l 1
 507 2 l 1
 429 2 l 1
EndSplineSet
MinimumDistance: x2,-1 
EndChar
StartChar: N
Encoding: 78 78 47
OldEncoding: 78
Width: 422
Flags: HW
HStem: -11 173 291 137
VStem: 40 78 300 78
Fore
297 2 m 1
 202 345 l 1
 180 345 l 1
 107 2 l 1
 52 2 l 1
 150 459 l 1
 241 459 l 1
 323 154 l 1
 343 154 l 1
 408 459 l 1
 464 459 l 1
 366 2 l 1
 297 2 l 1
EndSplineSet
MinimumDistance: x2,-1 
EndChar
StartChar: O
Encoding: 79 79 48
OldEncoding: 79
Width: 422
Flags: HW
HStem: -15 80 356 80
VStem: 21 106 290 106
Fore
365 73 m 0
 365 73 l 0
 321 23 266 -2 209 -2 c 0
 153 -2 106 17 84 67 c 0
 71 96 64 133 64 170 c 0
 64 191 66 212 71 233 c 0
 97 358 188 467 308 467 c 0
 364 467 412 453 434 404 c 0
 445 380 450 348 450 315 c 0
 450 288 446 259 441 234 c 0
 429 180 401 116 365 73 c 0
366 347 m 0
 360 384 334 402 297 402 c 0
 255 402 220 372 196 334 c 0
 175 302 161 264 155 233 c 0
 151 215 149 196 149 176 c 0
 149 121 168 66 227 66 c 0
 268 66 297 92 322 129 c 0
 344 161 356 200 363 233 c 0
 367 254 370 278 370 301 c 0
 370 317 368 333 366 347 c 0
EndSplineSet
MinimumDistance: x11,-1 
EndChar
StartChar: P
Encoding: 80 80 49
OldEncoding: 80
Width: 408
Flags: HW
HStem: -13 39 150 80 346 80
VStem: 40 95 285 95
Fore
373 209 m 0
 373 209 l 0
 353 194 335 186 315 183 c 0
 301 180 287 180 272 180 c 0
 265 180 257 180 250 180 c 2
 157 180 l 1
 119 0 l 1
 41 0 l 1
 138 457 l 1
 306 457 l 2
 345 457 383 457 412 432 c 0
 433 412 444 385 444 354 c 0
 444 344 443 334 441 323 c 0
 431 279 408 236 373 209 c 0
347 379 m 0
 331 395 309 395 287 395 c 2
 203 395 l 1
 170 241 l 1
 255 241 l 2
 267 241 279 241 292 244 c 0
 305 247 318 254 331 266 c 0
 347 281 356 300 360 318 c 0
 361 324 362 330 362 336 c 0
 362 352 357 368 347 379 c 0
EndSplineSet
MinimumDistance: x12,-1 y18,16 y18,17 
EndChar
StartChar: Q
Encoding: 81 81 50
OldEncoding: 81
Width: 422
Flags: HW
HStem: -104 80 -18 80 353 80
VStem: 21 106 290 106
Fore
301 18 m 0
 301 18 l 0
 299 10 297 2 297 -4 c 0
 297 -29 314 -39 334 -39 c 0
 336 -39 339 -39 341 -39 c 2
 366 -37 l 1
 353 -98 l 1
 345 -99 336 -100 329 -100 c 0
 276 -100 251 -85 251 -28 c 0
 251 -20 251 -11 252 -1 c 1
 211 -5 l 2
 206 -6 202 -6 197 -6 c 0
 148 -6 109 23 89 69 c 0
 77 97 72 128 72 161 c 0
 72 183 74 207 79 230 c 0
 105 355 191 464 312 464 c 0
 367 464 410 447 432 398 c 0
 444 370 450 334 450 297 c 0
 450 274 448 251 443 230 c 0
 425 144 375 61 301 18 c 0
361 344 m 0
 354 381 335 399 298 399 c 0
 256 399 221 374 199 336 c 0
 182 304 169 261 163 230 c 0
 159 211 156 188 156 167 c 0
 156 113 173 62 230 62 c 0
 271 62 301 84 322 123 c 0
 339 155 353 197 360 230 c 0
 364 248 366 268 366 287 c 0
 366 307 364 326 361 344 c 0
EndSplineSet
EndChar
StartChar: R
Encoding: 82 82 51
OldEncoding: 82
Width: 430
Flags: HW
HStem: -12 39 161 80 347 80
VStem: 38 95 285 106
Fore
330 -1 m 1
 330 -1 l 0
 327 18 325 31 325 44 c 0
 325 60 328 75 333 98 c 0
 337 115 340 131 340 144 c 0
 340 168 329 183 287 183 c 2
 150 183 l 1
 111 -1 l 1
 35 -1 l 1
 132 455 l 1
 341 455 l 2
 404 455 467 443 467 362 c 0
 467 352 466 342 464 330 c 0
 455 272 435 258 386 224 c 1
 411 203 419 180 419 158 c 0
 419 124 402 89 402 61 c 0
 402 47 405 35 416 24 c 1
 411 -1 l 1
 330 -1 l 1
326 380 m 2
 192 380 l 1
 166 258 l 1
 295 258 l 2
 302 258 309 258 315 258 c 0
 344 258 367 262 381 306 c 0
 386 321 388 333 388 342 c 0
 388 379 355 380 326 380 c 2
EndSplineSet
MinimumDistance: x17,-1 y5,1 y5,3 
EndChar
StartChar: S
Encoding: 83 83 52
OldEncoding: 83
Width: 384
Flags: HW
HStem: -17 80 354 80
VStem: 25 95 266 95
Fore
307 31 m 1
 268 4 221 -4 178 -4 c 0
 103 -4 45 29 40 106 c 1
 40 106 118 129 123 129 c 1
 129 80 157 68 202 68 c 0
 223 68 279 77 291 123 c 0
 292 128 293 133 293 138 c 0
 293 157 283 169 271 176 c 0
 256 184 240 187 223 191 c 0
 157 207 101 227 101 294 c 0
 101 304 102 315 105 327 c 0
 113 369 134 403 168 430 c 0
 203 456 243 465 281 465 c 0
 351 465 401 441 412 373 c 1
 337 349 l 1
 331 378 321 396 272 396 c 0
 238 396 203 383 194 343 c 0
 192 336 192 330 192 324 c 0
 192 312 196 304 205 298 c 0
 218 291 233 287 247 284 c 0
 282 276 324 264 348 243 c 0
 370 224 382 199 382 170 c 0
 382 161 381 152 379 143 c 0
 370 100 342 58 307 31 c 1
EndSplineSet
MinimumDistance: x2,-1 
EndChar
StartChar: T
Encoding: 84 84 53
OldEncoding: 84
Width: 346
Flags: HW
HStem: -12 39 347 80
VStem: 120 95
Fore
292 388 m 1
 210 1 l 1
 132 1 l 1
 214 388 l 1
 102 388 l 1
 117 458 l 1
 417 458 l 1
 402 388 l 1
 292 388 l 1
EndSplineSet
MinimumDistance: x2,-1 y0,6 y0,7 x5,3 x5,4 x0,2 x0,1 
EndChar
StartChar: U
Encoding: 85 85 54
OldEncoding: 85
Width: 422
Flags: HW
HStem: -17 80 389 39
VStem: 33 106 289 95
Fore
412 140 m 0
 402 104 379 70 349 42 c 1
 308 7 259 -4 212 -4 c 0
 166 -4 119 3 94 33 c 0
 78 52 72 75 72 100 c 0
 72 124 77 151 83 179 c 2
 142 456 l 1
 230 456 l 1
 171 179 l 2
 167 161 162 139 162 120 c 0
 162 112 163 105 165 99 c 0
 175 67 208 64 234 64 c 0
 256 64 284 67 306 91 c 0
 328 116 332 150 338 179 c 2
 397 456 l 1
 479 456 l 1
 420 179 l 2
 412 140 l 0
EndSplineSet
MinimumDistance: x0,-1 
EndChar
StartChar: V
Encoding: 86 86 55
OldEncoding: 86
Width: 384
Flags: HW
HStem: -13 39 387 39
Fore
244 0 m 1
 145 0 l 1
 117 457 l 1
 202 457 l 1
 215 82 l 1
 387 456 l 1
 399 457 461 457 461 457 c 1
 244 0 l 1
EndSplineSet
EndChar
StartChar: W
Encoding: 87 87 56
OldEncoding: 87
Width: 576
Flags: HW
HStem: -12 137 279 148
Fore
451 -1 m 1
 366 -1 l 1
 363 327 l 1
 355 327 l 0
 355 327 l 1
 206 -1 l 1
 124 -1 l 1
 114 455 l 1
 194 455 l 1
 192 167 l 1
 193 132 l 1
 193 132 l 0
 193 131 198 131 203 131 c 1
 347 456 l 1
 347 456 383 457 406 457 c 0
 417 457 425 457 425 456 c 0
 425 456 l 1
 433 136 l 1
 440 132 l 1
 455 167 l 1
 583 455 l 1
 653 456 l 1
 451 -1 l 1
EndSplineSet
MinimumDistance: x1,-1 
EndChar
StartChar: X
Encoding: 88 88 57
OldEncoding: 88
Width: 410
Flags: HW
HStem: -13 39 387 39
Fore
287 0 m 1
 238 175 l 1
 111 0 l 1
 27 0 l 1
 210 237 l 1
 140 457 l 1
 231 457 l 1
 273 307 l 1
 381 456 l 1
 380 456 l 0
 462 456 l 1
 305 243 l 1
 378 0 l 1
 287 0 l 1
EndSplineSet
MinimumDistance: x3,-1 
EndChar
StartChar: Y
Encoding: 89 89 58
OldEncoding: 89
Width: 384
Flags: HW
HStem: -13 39 387 39
VStem: 149 95
Fore
270 184 m 1
 232 0 l 1
 153 0 l 1
 194 194 l 1
 120 457 l 1
 212 457 l 1
 257 273 l 1
 382 457 l 1
 460 457 l 1
 270 184 l 1
EndSplineSet
MinimumDistance: x1,-1 
EndChar
StartChar: Z
Encoding: 90 90 59
OldEncoding: 90
Width: 422
Flags: HW
HStem: -14 80 345 80
VStem: 60 332
Fore
56 -1 m 1
 70 64 l 1
 374 391 l 1
 155 391 l 1
 169 456 l 1
 477 456 l 1
 463 391 l 1
 159 65 l 1
 401 65 l 1
 387 -1 l 1
 56 -1 l 1
EndSplineSet
MinimumDistance: x5,-1 
EndChar
StartChar: bracketleft
Encoding: 91 91 60
OldEncoding: 91
Width: 243
Flags: HW
HStem: -124 39<115 179> 385 39
VStem: 52 78
Fore
38 -124 m 1
 161 456 l 1
 276 456 l 1
 267 416 l 1
 203 416 l 1
 97 -85 l 1
 161 -85 l 1
 153 -124 l 1
 38 -124 l 1
EndSplineSet
MinimumDistance: x6,-1 x3,1 x3,2 x4,6 x4,5 
EndChar
StartChar: backslash
Encoding: 92 92 61
OldEncoding: 92
Width: 271
Flags: HW
HStem: -11 39 389 39
Fore
162 2 m 1
 124 459 l 1
 188 458 l 1
 235 1 l 1
 162 2 l 1
EndSplineSet
EndChar
StartChar: bracketright
Encoding: 93 93 62
OldEncoding: 93
Width: 243
Flags: HW
HStem: -126 39 383 39
VStem: 113 78
Fore
36 -131 m 1
 46 -87 l 1
 110 -87 l 1
 216 412 l 1
 152 412 l 1
 161 456 l 1
 276 456 l 1
 151 -131 l 1
 36 -131 l 1
EndSplineSet
MinimumDistance: x2,-1 x5,3 x5,4 x6,0 x6,7 
EndChar
StartChar: asciicircum
Encoding: 94 94 63
OldEncoding: 94
Width: 384
Flags: HW
HStem: 389 39
Fore
315 186 m 1
 280 419 l 1
 148 186 l 1
 102 186 l 1
 257 459 l 1
 320 459 l 1
 361 186 l 1
 315 186 l 1
EndSplineSet
MinimumDistance: x1,-1 
EndChar
StartChar: underscore
Encoding: 95 95 64
OldEncoding: 95
Width: 0
Flags: HMW
HStem: -70 39
VStem: -382 320
Fore
-569 -34 m 1
 -4 -34 l 1
 -12 -71 l 1
 -577 -71 l 1
 -569 -34 l 1
EndSplineSet
EndChar
StartChar: grave
Encoding: 96 96 65
OldEncoding: 96
Width: 243
Flags: HW
Fore
265 404 m 1
 153 451 l 1
 174 501 l 1
 280 438 l 1
 265 404 l 1
EndSplineSet
EndChar
StartChar: a
Encoding: 97 97 66
OldEncoding: 97
Width: 350
Flags: HW
HStem: -16 51 258 64
VStem: 19 95 222 95
Fore
121 -3 m 0
 121 -3 l 0
 75 -3 46 18 46 61 c 0
 46 68 47 76 49 85 c 0
 59 130 91 166 134 182 c 0
 152 190 177 197 200 201 c 0
 222 204 246 205 277 208 c 1
 280 222 l 2
 282 233 284 243 284 252 c 0
 284 260 283 267 279 274 c 0
 272 290 253 295 237 295 c 0
 207 295 174 283 160 248 c 1
 96 248 l 1
 121 318 185 343 257 343 c 0
 307 343 327 333 345 312 c 0
 355 301 358 289 358 276 c 0
 358 265 356 253 354 241 c 0
 352 231 350 221 348 210 c 2
 325 104 l 2
 323 94 322 90 320 81 c 0
 319 77 319 73 319 69 c 0
 319 41 348 40 350 40 c 0
 350 40 350 39 350 38 c 0
 350 31 342 -0 341 -0 c 0
 341 0 l 1
 340 0 336 -0 330 -0 c 0
 313 -0 280 2 272 17 c 0
 261 35 261 45 261 45 c 1
 229 1 186 -3 149 -3 c 0
 139 -3 130 -3 121 -3 c 0
268 163 m 1
 212 157 140 154 127 96 c 0
 126 90 125 85 125 80 c 0
 125 56 140 45 169 45 c 0
 193 45 219 60 236 82 c 0
 256 107 258 119 264 147 c 2
 268 163 l 1
EndSplineSet
MinimumDistance: x21,-1 
EndChar
StartChar: b
Encoding: 98 98 67
OldEncoding: 98
Width: 353
Flags: HW
HStem: -18 64 256 64 388 39
VStem: 36 95 238 95
Fore
202 -2 m 0
 202 -2 l 0
 160 -2 120 4 113 32 c 1
 111 25 111 23 111 23 c 0
 111 23 l 0
 112 28 l 0
 112 28 l 0
 112 28 111 26 110 20 c 0
 109 14 108 4 106 0 c 1
 41 0 l 1
 138 458 l 1
 208 458 l 1
 176 305 l 1
 180 304 l 1
 201 336 237 342 271 342 c 0
 276 342 282 342 287 342 c 0
 349 339 375 286 375 223 c 0
 375 205 373 186 369 167 c 0
 350 74 289 -2 202 -2 c 0
237 284 m 0
 184 284 162 234 152 189 c 2
 141 138 l 2
 139 126 136 112 136 98 c 0
 136 88 137 79 140 71 c 0
 147 52 162 43 184 43 c 0
 244 43 286 122 295 167 c 0
 297 177 299 188 299 200 c 0
 299 240 283 284 237 284 c 0
EndSplineSet
MinimumDistance: x13,-1 
EndChar
StartChar: c
Encoding: 99 99 68
OldEncoding: 99
Width: 346
Flags: HW
HStem: -12 80 262 64
VStem: 18 106
Fore
182 0 m 0
 181 -0 180 -0 178 -0 c 0
 104 -0 61 49 61 123 c 0
 61 137 63 152 66 168 c 0
 88 272 167 346 261 346 c 0
 336 346 365 302 365 240 c 0
 365 236 365 233 365 230 c 1
 298 230 l 1
 298 232 298 235 298 237 c 0
 298 265 286 288 251 288 c 0
 191 288 162 231 151 178 c 0
 148 162 145 144 145 128 c 0
 145 91 157 59 200 59 c 0
 237 59 263 88 276 120 c 1
 343 119 l 1
 316 47 266 1 182 0 c 0
EndSplineSet
MinimumDistance: x7,-1 
EndChar
StartChar: d
Encoding: 100 100 69
OldEncoding: 100
Width: 346
Flags: HW
HStem: -17 64 257 64 389 39
VStem: 19 95 219 95
Fore
250 0 m 1
 258 31 l 0
 258 31 l 0
 258 32 256 32 254 32 c 0
 252 32 250 32 250 30 c 0
 250 30 l 1
 230 -0 205 -5 179 -5 c 0
 169 -5 159 -4 149 -4 c 0
 87 -4 60 48 60 111 c 0
 60 128 62 146 66 164 c 0
 84 250 143 341 224 341 c 0
 230 341 236 341 241 341 c 0
 268 341 291 338 311 299 c 1
 344 459 l 1
 414 459 l 1
 316 0 l 1
 250 0 l 1
285 185 m 2
 285 186 287 197 287 211 c 0
 287 238 281 275 248 275 c 0
 187 275 150 209 140 161 c 0
 138 152 137 142 137 131 c 0
 137 91 153 47 195 47 c 0
 219 47 236 60 250 79 c 1
 262 98 273 121 276 139 c 1
 285 185 l 2
EndSplineSet
MinimumDistance: x18,-1 
EndChar
StartChar: e
Encoding: 101 101 70
OldEncoding: 101
Width: 346
Flags: HW
HStem: -10 64 147 51 264 64
VStem: 16 95 231 95
Fore
140 170 m 1
 135 141 l 0
 134 134 133 126 133 120 c 0
 133 82 152 57 194 57 c 0
 224 57 252 71 267 106 c 1
 267 106 l 0
 267 106 288 106 308 106 c 0
 318 106 328 106 334 106 c 1
 317 76 277 0 177 0 c 0
 101 0 60 52 60 127 c 0
 60 143 61 159 65 176 c 0
 87 276 147 343 240 343 c 0
 309 343 344 319 353 283 c 0
 357 267 358 254 358 241 c 0
 358 218 354 197 348 170 c 1
 140 170 l 1
241 287 m 0
 206 287 172 279 155 221 c 1
 292 221 l 1
 293 228 294 235 294 241 c 0
 294 277 273 287 241 287 c 0
EndSplineSet
EndChar
StartChar: f
Encoding: 102 102 71
OldEncoding: 102
Width: 192
Flags: HW
HStem: -11 39 242 64 368 64
VStem: 44 95
Fore
260 410 m 2
 254 410 l 0
 216 410 208 382 199 345 c 2
 195 325 l 1
 253 325 l 1
 242 271 l 1
 184 271 l 1
 126 2 l 1
 56 2 l 1
 114 271 l 1
 76 271 l 1
 87 325 l 1
 125 325 l 1
 131 353 134 369 139 385 c 0
 144 401 150 414 159 425 c 0
 182 453 216 465 249 465 c 0
 252 465 256 465 259 465 c 2
 290 463 l 1
 279 409 l 1
 260 410 l 2
EndSplineSet
MinimumDistance: x18,-1 y16,13 y16,14 x12,10 x12,11 x0,17 x0,18 
EndChar
StartChar: g
Encoding: 103 103 72
OldEncoding: 103
Width: 343
Flags: HW
HStem: -125 51 -11 80 121 51 320 51
VStem: 3 78 229 95
Fore
310 300 m 0
 310 300 l 0
 310 315 319 342 319 342 c 1
 320 342 363 342 379 342 c 1
 320 67 l 2
 297 -42 268 -141 143 -150 c 0
 138 -150 134 -151 129 -151 c 0
 68 -151 12 -122 12 -58 c 0
 12 -54 12 -50 13 -45 c 1
 14 -36 l 1
 78 -36 l 1
 78 -41 78 -47 78 -51 c 0
 78 -67 80 -78 101 -87 c 0
 109 -92 121 -97 137 -98 c 0
 140 -98 142 -98 144 -98 c 0
 164 -98 172 -94 186 -89 c 1
 215 -75 222 -59 234 -33 c 0
 240 -19 241 13 249 26 c 0
 249 27 249 31 252 32 c 1
 224 12 192 -1 153 -1 c 0
 150 -1 148 -1 145 -1 c 0
 123 1 101 3 79 24 c 1
 53 44 42 77 42 114 c 0
 42 174 71 245 110 288 c 0
 119 298 168 341 223 341 c 0
 225 341 226 341 227 341 c 0
 261 339 291 330 310 300 c 0
269 253 m 2
 266 257 l 1
 259 270 233 280 221 281 c 0
 220 281 l 0
 149 281 107 192 107 129 c 0
 107 113 110 99 115 88 c 0
 125 66 149 53 175 53 c 0
 195 53 216 60 233 76 c 0
 265 105 283 158 283 201 c 0
 283 223 278 241 269 253 c 2
EndSplineSet
MinimumDistance: x16,-1 
EndChar
StartChar: h
Encoding: 104 104 73
OldEncoding: 104
Width: 346
Flags: HW
HStem: -11 39 241 80 389 39
VStem: 33 95 217 95
Fore
238 -2 m 1
 272 158 l 2
 276 178 281 196 286 220 c 0
 287 228 288 235 288 241 c 0
 288 261 280 271 259 272 c 0
 258 272 258 272 257 272 c 0
 226 272 186 249 171 226 c 0
 156 204 150 179 146 158 c 2
 112 -2 l 1
 42 -2 l 1
 139 456 l 1
 209 456 l 1
 173 288 l 1
 175 285 l 1
 200 328 260 342 295 342 c 0
 297 342 298 342 299 342 c 0
 325 341 347 330 358 306 c 0
 363 297 364 288 364 276 c 0
 364 273 364 269 364 266 c 0
 362 250 358 233 354 217 c 2
 308 -2 l 1
 238 -2 l 1
EndSplineSet
MinimumDistance: x2,-1 
EndChar
StartChar: i
Encoding: 105 105 74
OldEncoding: 105
Width: 166
Flags: HW
HStem: -14 325 337 94
VStem: 35 95
Fore
129 387 m 1
 144 455 l 1
 214 455 l 1
 199 387 l 1
 129 387 l 1
47 -1 m 1
 119 341 l 1
 189 341 l 1
 117 -1 l 1
 47 -1 l 1
EndSplineSet
MinimumDistance: x6,-1 
EndChar
StartChar: j
Encoding: 106 106 75
OldEncoding: 106
Width: 166
Flags: HW
HStem: -117 80 349 94
VStem: 34 95
Fore
125 386 m 1
 140 455 l 1
 214 455 l 1
 199 386 l 1
 125 386 l 1
103 -51 m 0
 100 -68 94 -81 85 -94 c 0
 65 -124 36 -134 -0 -134 c 0
 -9 -134 -22 -136 -32 -136 c 0
 -37 -136 -40 -136 -44 -135 c 1
 -32 -78 l 1
 -22 -79 l 2
 -19 -79 -17 -79 -14 -79 c 0
 36 -79 40 -31 48 4 c 2
 119 341 l 1
 189 341 l 1
 118 4 l 2
 114 -13 108 -33 103 -51 c 0
EndSplineSet
MinimumDistance: x14,-1 
EndChar
StartChar: k
Encoding: 107 107 76
OldEncoding: 107
Width: 358
Flags: HW
HStem: -11 39 389 39
VStem: 36 95
Fore
259 0 m 1
 221 169 l 1
 135 79 l 1
 118 0 l 1
 48 0 l 1
 146 459 l 1
 216 459 l 1
 155 172 l 1
 220 234 l 1
 325 341 l 1
 331 341 341 341 353 341 c 0
 375 341 400 341 400 341 c 0
 400 341 l 1
 288 231 l 1
 337 0 l 1
 259 0 l 1
EndSplineSet
MinimumDistance: x1,-1 
EndChar
StartChar: l
Encoding: 108 108 77
OldEncoding: 108
Width: 166
Flags: HW
HStem: -11 39 389 39
VStem: 35 95
Fore
47 2 m 1
 145 459 l 1
 215 459 l 1
 117 2 l 1
 47 2 l 1
EndSplineSet
MinimumDistance: x2,-1 
EndChar
StartChar: m
Encoding: 109 109 78
OldEncoding: 109
Width: 525
Flags: HW
HStem: -11 39 241 80
VStem: 31 95 215 95 398 95
Fore
411 0 m 1
 446 163 l 2
 447 170 450 183 452 195 c 0
 455 207 459 228 461 236 c 0
 462 240 462 244 462 248 c 0
 462 274 446 282 418 282 c 0
 391 282 361 249 347 227 c 0
 340 218 334 173 332 163 c 2
 297 0 l 1
 227 0 l 1
 262 163 l 2
 266 184 270 204 275 225 c 0
 276 232 277 239 277 245 c 0
 277 275 260 283 238 283 c 0
 208 283 180 251 167 228 c 0
 157 208 152 184 148 163 c 2
 113 0 l 1
 43 0 l 1
 115 341 l 1
 181 341 l 1
 172 298 l 1
 172 293 l 1
 207 338 238 341 276 341 c 0
 307 341 334 310 335 284 c 1
 376 338 414 341 448 341 c 0
 452 341 457 341 461 341 c 0
 487 341 518 325 531 304 c 0
 534 298 534 288 534 276 c 0
 534 264 534 252 533 243 c 0
 530 225 525 207 521 189 c 2
 481 0 l 1
 411 0 l 1
EndSplineSet
MinimumDistance: x2,-1 
EndChar
StartChar: n
Encoding: 110 110 79
OldEncoding: 110
Width: 346
Flags: HW
HStem: -11 39 241 80
VStem: 32 95 219 95
Fore
232 0 m 1
 269 176 l 2
 274 195 280 217 280 236 c 0
 280 237 280 239 280 240 c 0
 279 262 273 279 243 279 c 0
 221 279 187 255 174 235 c 0
 157 212 152 178 147 156 c 2
 114 0 l 1
 44 0 l 1
 116 341 l 1
 185 341 l 1
 174 289 l 1
 174 289 l 0
 174 290 174 290 176 290 c 1
 217 336 243 341 268 341 c 0
 289 341 l 0
 317 341 340 331 351 307 c 0
 355 299 357 288 357 277 c 0
 357 255 351 229 347 210 c 2
 302 0 l 1
 232 0 l 1
EndSplineSet
MinimumDistance: x3,-1 
EndChar
StartChar: o
Encoding: 111 111 80
OldEncoding: 111
Width: 350
Flags: HW
HStem: -15 64 259 64
VStem: 17 95 233 95
Fore
172 -2 m 0
 172 -2 l 0
 96 -2 56 48 56 121 c 0
 56 136 58 153 62 170 c 0
 83 269 153 343 245 343 c 0
 322 343 364 291 364 217 c 0
 364 201 362 184 358 167 c 0
 338 71 260 -2 172 -2 c 0
283 251 m 1
 283 251 l 0
 283 251 l 0
 283 251 282 289 235 289 c 0
 234 289 234 289 233 289 c 0
 175 287 151 228 141 181 c 0
 138 165 135 144 135 124 c 0
 135 86 145 49 185 49 c 0
 245 49 271 117 281 166 c 0
 284 181 286 197 286 212 c 0
 286 225 285 238 283 251 c 1
EndSplineSet
MinimumDistance: x14,-1 
EndChar
StartChar: p
Encoding: 112 112 81
OldEncoding: 112
Width: 350
Flags: HW
HStem: -16 64 258 64
VStem: 37 95 237 95
Fore
193 -3 m 0
 193 -3 l 0
 189 -3 183 -3 177 -3 c 0
 155 -3 125 -0 120 26 c 1
 110 25 l 1
 80 -117 l 1
 10 -117 l 1
 107 341 l 1
 171 341 l 1
 167 319 l 1
 166 310 159 286 159 286 c 1
 191 330 233 344 273 344 c 0
 274 344 276 344 277 344 c 0
 317 343 342 326 354 289 c 0
 361 269 365 246 365 222 c 0
 365 204 363 186 359 168 c 0
 340 81 277 -3 193 -3 c 0
232 282 m 0
 208 282 186 269 171 247 c 0
 155 224 150 212 145 190 c 2
 138 155 l 2
 134 139 131 123 131 108 c 0
 131 99 132 91 135 82 c 0
 142 63 160 49 180 49 c 0
 236 49 275 126 283 167 c 0
 285 177 287 190 287 202 c 0
 287 241 273 282 232 282 c 0
EndSplineSet
MinimumDistance: x16,-1 
EndChar
StartChar: q
Encoding: 113 113 82
OldEncoding: 113
Width: 346
Flags: HW
HStem: -16 64 258 64
VStem: 19 95 220 95
Fore
376 290 m 0
 289 -117 l 1
 219 -117 l 1
 250 30 l 1
 221 -1 193 -3 166 -3 c 0
 157 -3 l 0
 86 -3 53 50 53 119 c 0
 53 135 54 152 58 169 c 0
 77 260 139 341 228 341 c 0
 269 341 301 336 312 296 c 1
 319 324 314 315 321 341 c 1
 322 342 327 342 333 342 c 0
 351 342 384 340 386 340 c 1
 386 340 l 0
 386 340 l 0
 386 339 378 301 376 290 c 0
289 200 m 2
 290 207 291 215 291 222 c 0
 291 253 278 282 240 284 c 0
 239 284 238 284 238 284 c 0
 180 284 143 215 133 169 c 0
 130 153 127 134 127 115 c 0
 127 106 127 98 129 90 c 0
 133 67 158 52 183 52 c 0
 205 52 230 67 242 82 c 0
 261 105 272 123 277 146 c 2
 289 200 l 2
EndSplineSet
MinimumDistance: x15,-1 
EndChar
StartChar: r
Encoding: 114 114 83
OldEncoding: 114
Width: 226
Flags: HW
HStem: 0 41 293 53
VStem: 44 47
Fore
164 297 m 1
 190 325 223 342 245 342 c 2
 281 342 l 1
 266 272 l 1
 248 271 226 271 207 265 c 1
 170 249 148 221 136 166 c 2
 101 0 l 1
 32 0 l 1
 105 342 l 1
 174 342 l 1
 164 297 l 1
EndSplineSet
MinimumDistance: x0,-1 
EndChar
StartChar: s
Encoding: 115 115 84
OldEncoding: 115
Width: 315
Flags: HW
HStem: -5 41 315 41
VStem: 22 47 232 47
Fore
236 8 m 0
 217 0 194 -5 172 -7 c 1
 95 -7 43 8 43 80 c 0
 43 92 44 105 47 120 c 1
 109 120 l 1
 108 114 108 109 108 104 c 0
 108 59 141 49 185 49 c 1
 216 53 245 61 252 96 c 0
 253 100 254 104 254 107 c 0
 254 117 249 125 233 130 c 0
 195 142 162 156 128 173 c 0
 106 182 81 193 81 227 c 0
 81 233 81 240 83 247 c 0
 97 316 162 345 228 345 c 0
 303 345 334 317 334 262 c 0
 334 252 333 240 331 228 c 1
 267 228 l 1
 268 235 269 242 269 247 c 0
 269 275 252 286 211 286 c 0
 177 286 152 265 152 246 c 0
 152 239 156 231 166 226 c 0
 209 203 255 202 295 173 c 0
 314 160 322 141 322 121 c 0
 322 78 284 28 236 8 c 0
EndSplineSet
MinimumDistance: x12,-1 
EndChar
StartChar: t
Encoding: 116 116 85
OldEncoding: 116
Width: 243
Flags: HW
HStem: -11 80 241 80
VStem: 72 78
Fore
217 7 m 1
 200 5 183 2 166 2 c 0
 140 2 109 6 96 22 c 0
 87 32 84 45 84 60 c 0
 84 77 88 97 92 114 c 2
 128 284 l 1
 75 284 l 1
 87 340 l 1
 143 340 l 1
 169 456 l 1
 235 456 l 1
 210 341 l 1
 282 341 l 1
 268 284 l 1
 198 284 l 1
 165 129 l 2
 162 115 159 102 159 91 c 0
 159 71 168 58 198 58 c 0
 202 58 206 59 210 59 c 2
 226 60 l 1
 212 -4 l 1
 223 9 l 1
 217 7 l 1
EndSplineSet
MinimumDistance: x13,-1 x14,12 y12,14 y12,13 x20,18 x20,19 
EndChar
StartChar: u
Encoding: 117 117 86
OldEncoding: 117
Width: 346
Flags: HW
HStem: -10 80 282 39
VStem: 35 95 233 78
Fore
236 -1 m 1
 246 45 l 1
 232 45 l 1
 196 4 169 0 130 0 c 0
 99 0 78 10 69 36 c 0
 66 45 65 55 65 65 c 0
 65 85 70 107 74 128 c 2
 119 340 l 1
 189 340 l 1
 144 128 l 2
 142 118 141 108 141 99 c 0
 141 79 149 65 179 65 c 0
 206 65 231 84 246 110 c 0
 257 129 259 141 263 161 c 2
 301 340 l 1
 371 340 l 1
 299 -1 l 1
 236 -1 l 1
EndSplineSet
MinimumDistance: x2,-1 
EndChar
StartChar: v
Encoding: 118 118 87
OldEncoding: 118
Width: 306
Flags: HW
HStem: -7 39 279 39
Fore
193 0 m 1
 121 0 l 1
 90 341 l 1
 165 341 l 1
 186 111 l 1
 296 341 l 1
 368 341 l 1
 193 0 l 1
EndSplineSet
MinimumDistance: x3,-1 
EndChar
StartChar: w
Encoding: 119 119 88
OldEncoding: 119
Width: 474
Flags: HW
HStem: -6 125 203 116
Fore
365 1 m 1
 299 1 l 1
 294 244 l 1
 289 244 l 1
 180 1 l 1
 109 2 l 1
 90 342 l 1
 165 342 l 1
 170 106 l 1
 174 107 l 1
 277 342 l 1
 278 342 299 342 318 342 c 0
 334 342 349 342 349 341 c 0
 349 341 349 341 348 341 c 1
 356 107 l 1
 359 106 l 1
 464 341 l 1
 528 341 l 1
 365 1 l 1
EndSplineSet
MinimumDistance: x4,-1 
EndChar
StartChar: x
Encoding: 120 120 89
OldEncoding: 120
Width: 346
Flags: HW
HStem: -9 39 277 39
Fore
230 0 m 1
 195 120 l 1
 106 0 l 1
 32 0 l 1
 170 176 l 2
 170 176 170 176 170 177 c 0
 170 187 114 341 114 341 c 1
 195 341 l 1
 224 235 l 1
 298 341 l 1
 368 341 l 1
 248 183 l 1
 311 0 l 1
 230 0 l 1
EndSplineSet
EndChar
StartChar: y
Encoding: 121 121 90
OldEncoding: 121
Width: 307
Flags: HW
HStem: -116 64 283 39
Fore
205 23 m 2
 195 3 185 -16 175 -34 c 0
 146 -88 105 -121 44 -125 c 2
 1 -128 l 1
 16 -61 l 1
 24 -62 32 -62 40 -62 c 0
 78 -62 106 -49 132 9 c 1
 97 341 l 1
 172 341 l 1
 186 98 l 1
 303 341 l 1
 365 341 l 1
 205 23 l 2
EndSplineSet
EndChar
StartChar: z
Encoding: 122 122 91
OldEncoding: 122
Width: 269
Flags: HW
HStem: -6 64 255 64
VStem: 15 243
Fore
15 0 m 1
 29 67 l 1
 231 286 l 1
 88 286 l 1
 99 341 l 1
 312 341 l 1
 302 290 l 1
 96 57 l 1
 259 57 l 1
 247 0 l 1
 15 0 l 1
EndSplineSet
EndChar
StartChar: braceleft
Encoding: 123 123 92
OldEncoding: 123
Width: 243
Flags: HW
HStem: -121 51 376 51
VStem: 84 78
Fore
132 -119 m 2
 116 -119 85 -101 85 -62 c 0
 85 -56 86 -50 87 -44 c 2
 118 105 l 2
 119 110 120 115 120 119 c 0
 120 148 95 155 77 156 c 1
 84 190 l 1
 106 191 138 199 146 234 c 2
 177 383 l 2
 188 434 236 458 254 458 c 2
 296 458 l 1
 288 421 l 1
 277 421 l 2
 236 421 229 392 225 374 c 2
 196 236 l 2
 188 197 153 181 123 178 c 1
 120 166 l 1
 146 164 170 157 170 124 c 0
 170 118 170 111 168 104 c 2
 139 -35 l 2
 138 -41 136 -47 136 -54 c 0
 136 -68 143 -82 171 -82 c 2
 182 -82 l 1
 174 -119 l 1
 132 -119 l 2
EndSplineSet
MinimumDistance: x15,-1 x12,15 x12,14 x0,22 x0,23 
EndChar
StartChar: bar
Encoding: 124 124 93
OldEncoding: 124
Width: 192
Flags: HW
HStem: -11 39 389 39
VStem: 58 78
Fore
70 2 m 1
 168 459 l 1
 220 459 l 1
 122 2 l 1
 70 2 l 1
EndSplineSet
MinimumDistance: x2,-1 
EndChar
StartChar: braceright
Encoding: 125 125 94
OldEncoding: 125
Width: 243
Flags: HW
HStem: -123 51 374 51
VStem: 81 78
Fore
169 103 m 2
 137 -46 l 2
 126 -97 78 -121 60 -121 c 2
 18 -121 l 1
 26 -84 l 1
 38 -84 l 2
 78 -84 86 -54 89 -37 c 2
 119 102 l 2
 129 152 159 161 191 163 c 1
 194 177 l 1
 167 180 145 191 145 219 c 0
 145 224 146 229 147 234 c 2
 176 372 l 2
 177 377 179 384 179 391 c 0
 179 405 172 419 145 419 c 2
 133 419 l 1
 141 456 l 1
 183 456 l 2
 199 456 230 438 230 399 c 0
 230 393 229 387 228 381 c 2
 196 232 l 2
 195 228 195 225 195 222 c 0
 195 195 220 189 239 188 c 1
 232 154 l 1
 211 153 178 144 169 103 c 2
EndSplineSet
MinimumDistance: x2,-1 y1,23 x22,1 x22,0 x0,2 x0,1 
EndChar
StartChar: asciitilde
Encoding: 126 126 95
OldEncoding: 126
Width: 384
Flags: HW
VStem: 28 59 296 59
Fore
259 158 m 0
 226 179 186 215 158 215 c 0
 150 215 143 212 138 205 c 0
 129 194 126 178 123 165 c 1
 65 165 l 1
 74 197 85 227 111 254 c 0
 127 271 145 277 162 277 c 0
 208 277 254 233 277 216 c 0
 293 204 305 199 315 199 c 0
 335 199 343 223 351 255 c 1
 407 255 l 1
 398 223 388 193 362 166 c 0
 349 152 328 143 306 143 c 0
 291 143 274 148 259 158 c 0
EndSplineSet
MinimumDistance: x4,-1 
EndChar
StartChar: uni0E10.descless
Encoding: 128 63232 96
OldEncoding: 63232
Width: 400
Flags: HW
HStem: -2 20 343 39
VStem: 140 78 279 78
Fore
459 347 m 1
 459 347 l 0
 457 346 433 324 387 324 c 0
 384 324 l 0
 333 325 308 348 260 348 c 0
 257 348 253 348 249 348 c 0
 210 345 197 323 196 323 c 0
 199 323 245 323 302 304 c 0
 359 284 384 262 391 230 c 0
 393 223 393 217 393 212 c 0
 393 200 390 190 387 178 c 1
 361 87 l 1
 352 52 334 25 296 9 c 0
 279 1 256 -2 235 -2 c 0
 209 -2 185 3 175 12 c 0
 158 24 150 34 150 56 c 0
 150 61 150 66 151 72 c 1
 156 111 l 1
 151 110 146 109 141 109 c 0
 111 109 86 127 86 159 c 0
 86 164 86 170 88 177 c 0
 98 216 132 244 174 244 c 0
 177 244 181 243 184 243 c 0
 220 240 238 220 238 184 c 0
 238 177 237 169 236 161 c 2
 223 75 l 2
 222 71 222 68 222 65 c 0
 222 54 227 47 247 47 c 0
 269 47 279 51 283 68 c 2
 312 175 l 1
 315 185 317 193 317 202 c 0
 317 211 315 220 309 229 c 0
 295 249 253 267 201 276 c 0
 147 286 106 290 105 290 c 1
 105 292 115 331 167 366 c 0
 200 388 236 394 266 394 c 0
 280 394 293 393 303 391 c 0
 339 385 365 373 395 373 c 0
 401 373 l 0
 432 374 445 390 445 390 c 1
 459 347 l 1
160 199 m 0
 142 199 131 183 131 170 c 0
 131 160 137 152 150 152 c 0
 168 152 180 168 180 181 c 0
 180 191 174 199 160 199 c 0
EndSplineSet
EndChar
StartChar: uni0E34.left
Encoding: 129 63233 97
OldEncoding: 63233
Width: 0
Flags: HW
HStem: 488 39 581 39
VStem: -499 78
Fore
-196 601 m 0
 -196 601 l 0
 -93 600 -67 505 -67 450 c 0
 -67 438 -68 428 -70 421 c 1
 -70 421 -115 468 -232 473 c 0
 -240 473 -247 474 -255 474 c 0
 -337 474 -387 450 -388 450 c 1
 -368 522 -303 601 -198 601 c 0
 -197 601 -197 601 -196 601 c 0
-205 558 m 0
 -206 558 -208 558 -209 558 c 0
 -280 558 -304 505 -304 505 c 1
 -304 505 -275 512 -233 512 c 0
 -229 512 -224 512 -219 512 c 0
 -166 510 -124 493 -124 493 c 1
 -124 493 -131 557 -205 558 c 0
EndSplineSet
EndChar
StartChar: uni0E35.left
Encoding: 130 63234 98
OldEncoding: 63234
Width: 0
Flags: HW
HStem: 475 39
VStem: -495 78 -249 78
Fore
-387 437 m 0
 -387 437 l 0
 -370 509 -305 569 -240 583 c 0
 -226 586 -212 588 -199 588 c 0
 -166 588 -138 578 -120 566 c 1
 -109 615 l 1
 -34 615 l 1
 -67 463 l 1
 -67 463 -67 458 -67 451 c 0
 -67 447 -67 443 -67 438 c 0
 -67 423 -68 410 -68 408 c 1
 -68 408 -113 455 -230 460 c 0
 -238 460 -246 461 -253 461 c 0
 -336 461 -386 437 -387 437 c 0
-204 545 m 0
 -205 545 -207 545 -208 545 c 0
 -279 545 -302 492 -302 492 c 1
 -302 492 -274 499 -232 499 c 0
 -228 499 -223 499 -218 499 c 0
 -164 497 -123 480 -123 480 c 1
 -123 480 -129 544 -204 545 c 0
EndSplineSet
EndChar
StartChar: uni0E36.left
Encoding: 131 63235 99
OldEncoding: 63235
Width: 0
Flags: HW
HStem: 463 39
VStem: -646 78
Fore
-401 436 m 0
 -401 436 l 0
 -394 470 -367 524 -308 555 c 0
 -277 572 -245 577 -219 577 c 0
 -199 577 -183 574 -172 570 c 1
 -171 572 -166 593 -136 611 c 0
 -125 617 -113 620 -101 620 c 0
 -82 620 -64 613 -55 603 c 0
 -46 593 -42 582 -42 571 c 0
 -42 561 -45 551 -50 539 c 0
 -60 516 -75 502 -98 492 c 1
 -93 478 -90 468 -88 452 c 0
 -87 440 -84 443 -84 438 c 0
 -84 435 -85 429 -88 415 c 1
 -88 415 -135 444 -252 449 c 0
 -264 450 -275 450 -285 450 c 0
 -360 450 -400 436 -401 436 c 0
-224 534 m 0
 -224 534 l 0
 -225 534 -227 534 -228 534 c 0
 -300 534 -324 481 -324 481 c 1
 -324 481 -295 488 -253 488 c 0
 -238 488 l 0
 -186 486 -143 469 -143 469 c 1
 -143 469 -151 533 -224 534 c 0
-117 524 m 0
 -92 525 -77 546 -77 564 c 0
 -77 577 -86 589 -104 589 c 0
 -129 589 -143 567 -143 549 c 0
 -143 536 -136 524 -118 524 c 0
 -117 524 l 0
EndSplineSet
EndChar
StartChar: uni0E37.left
Encoding: 132 63236 100
OldEncoding: 63236
Width: 0
Flags: HW
HStem: 479 39 567 39
VStem: -502 78 -338 59 -232 59
Fore
-393 441 m 0
 -393 441 l 0
 -393 444 -380 501 -326 547 c 0
 -275 589 -228 592 -210 592 c 0
 -207 592 -205 592 -204 592 c 1
 -198 620 l 1
 -138 620 l 1
 -147 581 l 1
 -143 580 -137 575 -131 571 c 0
 -124 567 -115 557 -114 557 c 1
 -100 620 l 1
 -35 620 l 1
 -72 446 l 1
 -74 412 l 1
 -74 412 -119 459 -236 464 c 0
 -244 464 -252 465 -259 465 c 0
 -342 465 -392 441 -393 441 c 0
-210 549 m 0
 -211 549 -213 549 -214 549 c 0
 -285 549 -309 496 -309 496 c 1
 -309 496 -280 503 -238 503 c 0
 -223 503 l 0
 -171 501 -128 484 -128 484 c 1
 -128 484 -136 548 -210 549 c 0
EndSplineSet
EndChar
StartChar: ellipsis
Encoding: 133 8230 101
OldEncoding: 8230
Width: 416
VWidth: 2048
Flags: HW
VStem: 32 88<39 47> 170 87<39 47> 308 87<39 47>
Fore
94 87 m 0
 118 87 131 77 131 56 c 0
 131 52 130 48 129 43 c 0
 127 31 120 21 110 12 c 0
 100 4 88 0 76 0 c 0
 52 0 39 10 39 30 c 0
 39 34 40 38 41 43 c 0
 47 72 65 87 94 87 c 0
231 87 m 0
 255 87 268 77 268 56 c 0
 268 52 267 48 266 43 c 0
 260 14 242 0 213 0 c 0
 189 0 177 10 177 29 c 0
 177 33 178 38 179 43 c 0
 185 72 202 87 231 87 c 0
369 87 m 0
 393 87 406 77 406 56 c 0
 406 52 405 48 404 43 c 0
 402 31 395 21 385 12 c 0
 374 4 363 0 351 0 c 0
 327 0 315 10 315 29 c 0
 315 33 316 38 317 43 c 0
 323 72 340 87 369 87 c 0
EndSplineSet
MinimumDistance: x15,-1 
EndChar
StartChar: uni0E48.low_left
Encoding: 134 63237 102
OldEncoding: 63237
Width: 0
Flags: HW
HStem: 450 173
VStem: -270 78
Fore
-169 436 m 1
 -134 602 l 1
 -57 602 l 1
 -92 436 l 1
 -169 436 l 1
EndSplineSet
MinimumDistance: x2,-1 
EndChar
StartChar: uni0E49.low_left
Encoding: 135 63238 103
OldEncoding: 63238
Width: 0
Flags: HW
HStem: 598 39
Fore
-234 467 m 0
 -234 467 l 0
 -217 484 -211 500 -211 500 c 1
 -228 500 -251 510 -256 531 c 0
 -257 535 -257 539 -257 543 c 0
 -257 576 -229 616 -186 618 c 0
 -183 618 l 0
 -148 618 -126 599 -126 570 c 0
 -126 569 -126 567 -126 566 c 0
 -129 528 -157 491 -170 483 c 1
 -150 486 -131 491 -108 501 c 0
 -81 513 -67 523 -49 537 c 0
 -12 566 14 602 14 602 c 1
 -5 512 l 1
 -5 512 -49 475 -113 456 c 0
 -157 443 -208 438 -244 438 c 0
 -255 438 -265 438 -272 439 c 1
 -272 439 -250 450 -234 467 c 0
-199 532 m 0
 -179 532 -167 550 -167 565 c 0
 -167 576 -174 586 -189 586 c 0
 -209 586 -221 568 -221 553 c 0
 -221 542 -214 532 -199 532 c 0
EndSplineSet
MinimumDistance: x1,-1 
EndChar
StartChar: uni0E4A.low_left
Encoding: 136 63239 104
OldEncoding: 63239
Width: 0
Flags: HW
HStem: 520 19 583 39
VStem: -142 59
Fore
-233 544 m 0
 -233 544 l 0
 -240 534 -241 523 -241 521 c 1
 -240 521 -230 525 -218 525 c 0
 -212 525 -205 524 -199 521 c 0
 -189 516 -185 505 -185 494 c 0
 -185 477 -194 459 -207 449 c 0
 -218 441 -229 437 -240 437 c 0
 -262 437 -281 451 -286 471 c 0
 -287 476 -288 482 -288 489 c 0
 -288 531 -260 592 -216 601 c 0
 -212 602 -208 602 -204 602 c 0
 -174 602 -162 579 -161 579 c 0
 -160 579 -133 602 -105 602 c 0
 -82 602 -61 587 -61 556 c 0
 -61 553 -62 550 -62 546 c 0
 -65 515 -85 489 -85 489 c 1
 -82 490 -58 502 -38 528 c 0
 -18 554 -8 586 -6 598 c 1
 40 571 l 1
 40 571 12 502 -54 469 c 0
 -97 447 -154 440 -170 440 c 0
 -167 440 -133 459 -118 501 c 0
 -113 513 -110 526 -110 536 c 0
 -110 550 -116 560 -130 560 c 0
 -145 560 -171 543 -171 543 c 2
 -172 543 -186 561 -208 561 c 0
 -221 561 -227 553 -233 544 c 0
-238 460 m 0
 -221 460 -211 475 -211 487 c 0
 -211 496 -217 504 -229 504 c 0
 -246 504 -256 489 -256 477 c 0
 -256 468 -250 460 -238 460 c 0
EndSplineSet
MinimumDistance: x2,-1 
EndChar
StartChar: uni0E4B.low_left
Encoding: 137 63240 105
OldEncoding: 63240
Width: 0
Flags: HW
HStem: 531 51
VStem: -314 78
Fore
-169 640 m 1
 -96 640 l 1
 -111 568 l 1
 -33 568 l 1
 -45 514 l 1
 -123 514 l 1
 -138 443 l 1
 -211 443 l 1
 -196 514 l 1
 -273 514 l 1
 -261 568 l 1
 -184 568 l 1
 -169 640 l 1
EndSplineSet
MinimumDistance: x9,-1 y7,5 y7,6 y10,0 y10,11 x4,2 x4,3 x10,8 x10,9 
EndChar
StartChar: uni0E4C.low_left
Encoding: 138 63241 106
OldEncoding: 63241
Width: 0
Flags: HW
HStem: 539 29
VStem: -179 59
Fore
-102 570 m 0
 -102 570 l 0
 -137 567 -144 550 -145 550 c 0
 -143 550 -93 550 -93 504 c 0
 -93 499 -94 493 -95 487 c 0
 -102 455 -137 436 -167 436 c 0
 -185 436 -202 443 -211 457 c 0
 -217 466 -220 477 -220 489 c 0
 -220 521 -199 559 -167 579 c 0
 -123 605 -92 596 -56 619 c 0
 -38 631 -32 661 -31 664 c 1
 24 664 l 1
 24 661 10 622 -10 604 c 0
 -30 586 -53 574 -102 570 c 0
-157 465 m 0
 -135 465 -122 484 -122 500 c 0
 -122 512 -129 522 -145 522 c 0
 -167 522 -180 503 -180 487 c 0
 -180 475 -173 465 -157 465 c 0
EndSplineSet
EndChar
StartChar: uni0E48.low
Encoding: 139 63242 107
OldEncoding: 63242
Width: 0
Flags: HW
HStem: 460 173
VStem: -136 78
Fore
-37 446 m 1
 -2 612 l 1
 75 612 l 1
 40 446 l 1
 -37 446 l 1
EndSplineSet
MinimumDistance: x2,-1 
EndChar
StartChar: uni0E49.low
Encoding: 140 63243 108
OldEncoding: 63243
Width: 0
Flags: HW
HStem: 637 39
Fore
-148 477 m 0
 -148 477 l 0
 -128 497 -122 516 -122 516 c 1
 -141 516 -168 528 -174 553 c 0
 -175 558 -176 563 -176 568 c 0
 -176 608 -142 652 -93 655 c 0
 -91 655 -90 655 -88 655 c 0
 -47 655 -22 632 -22 598 c 0
 -22 597 -22 595 -22 594 c 0
 -24 550 -57 506 -73 496 c 1
 -49 499 -27 505 -0 517 c 0
 32 532 46 542 69 560 c 0
 113 595 142 637 142 637 c 1
 120 531 l 1
 120 531 69 487 -6 464 c 0
 -58 448 -116 442 -159 442 c 0
 -172 442 -184 443 -193 444 c 1
 -193 444 -168 456 -148 477 c 0
-108 554 m 0
 -84 555 -70 575 -70 592 c 0
 -70 605 -78 617 -96 617 c 0
 -97 617 l 0
 -120 616 -134 596 -134 579 c 0
 -134 565 -126 554 -109 554 c 0
 -108 554 l 0
EndSplineSet
MinimumDistance: x1,-1 
EndChar
StartChar: uni0E4A.low
Encoding: 141 63244 109
OldEncoding: 63244
Width: 0
Flags: HW
HStem: 536 19 605 51
VStem: -2 59
Fore
-140 568 m 0
 -140 568 l 0
 -150 554 -148 544 -149 541 c 1
 -148 541 -137 547 -122 547 c 0
 -115 547 -107 545 -100 541 c 0
 -88 534 -83 522 -83 508 c 0
 -83 489 -92 469 -108 457 c 0
 -122 446 -136 442 -150 442 c 0
 -175 442 -197 458 -203 481 c 0
 -205 487 -205 495 -205 502 c 0
 -205 553 -172 623 -120 634 c 0
 -113 635 -107 636 -102 636 c 0
 -68 636 -55 612 -55 609 c 0
 -55 609 l 0
 -55 609 l 0
 -54 609 -21 636 12 636 c 0
 39 636 63 618 63 581 c 0
 63 578 62 574 62 570 c 0
 58 533 34 503 34 503 c 1
 38 505 65 518 90 549 c 0
 113 580 125 617 128 630 c 1
 183 600 l 1
 183 600 148 518 71 479 c 0
 23 454 -41 445 -62 445 c 0
 -65 445 l 1
 -61 447 -24 467 -3 517 c 0
 2 531 6 546 6 557 c 0
 6 574 -1 586 -19 586 c 0
 -36 586 -66 566 -66 566 c 2
 -67 566 -82 588 -107 588 c 0
 -108 588 -108 588 -109 588 c 0
 -124 587 -133 579 -140 568 c 0
-145 468 m 0
 -125 468 -113 486 -113 501 c 0
 -113 511 -119 520 -133 520 c 0
 -153 520 -165 502 -165 487 c 0
 -165 477 -159 468 -145 468 c 0
EndSplineSet
MinimumDistance: x1,-1 
EndChar
StartChar: uni0E4B.low
Encoding: 142 63245 110
OldEncoding: 63245
Width: 0
Flags: HW
HStem: 544 64
VStem: -137 78
Fore
10 674 m 1
 87 674 l 1
 70 591 l 1
 161 591 l 1
 147 527 l 1
 56 527 l 1
 39 445 l 1
 -38 445 l 1
 -21 527 l 1
 -112 527 l 1
 -98 591 l 1
 -7 591 l 1
 10 674 l 1
EndSplineSet
MinimumDistance: y7,5 y7,6 y10,0 y10,11 x4,2 x4,3 x10,8 x10,9 
EndChar
StartChar: uni0E4C.low
Encoding: 143 63246 111
OldEncoding: 63246
Width: 0
Flags: HW
HStem: 548 39
VStem: -25 59
Fore
39 584 m 0
 39 584 l 0
 -1 581 -8 562 -9 562 c 0
 -6 562 49 562 49 512 c 0
 49 506 48 500 47 493 c 0
 38 456 0 436 -33 436 c 0
 -53 436 -72 444 -82 460 c 1
 -89 471 -92 483 -92 497 c 0
 -92 531 -70 572 -34 594 c 0
 15 623 50 613 89 639 c 0
 110 653 117 686 117 689 c 1
 179 689 l 1
 179 686 166 643 142 622 c 0
 119 601 92 588 39 584 c 0
-23 467 m 0
 1 467 16 489 16 507 c 0
 16 520 9 531 -9 531 c 0
 -34 531 -49 510 -49 491 c 0
 -49 478 -41 467 -23 467 c 0
EndSplineSet
MinimumDistance: x1,-1 
EndChar
StartChar: uni0E0D.descless
Encoding: 144 63247 112
OldEncoding: 63247
Width: 571
Flags: HW
HStem: -1 39 98 39 350 51
VStem: 70 78 298 78 455 78
Fore
537 96 m 1
 537 96 l 0
 533 77 527 49 510 31 c 0
 497 17 475 0 453 0 c 2
 262 0 l 1
 273 51 l 1
 299 51 l 1
 343 260 l 2
 345 270 346 279 346 287 c 0
 346 320 328 338 282 338 c 0
 233 338 200 315 200 315 c 1
 202 314 212 307 230 292 c 0
 245 278 257 262 257 262 c 1
 255 262 234 254 210 232 c 0
 191 213 185 190 183 180 c 2
 173 132 l 1
 173 132 173 132 174 132 c 0
 181 132 230 130 230 83 c 0
 230 80 229 77 229 74 c 0
 221 16 175 -1 145 -1 c 0
 105 -1 83 20 83 58 c 0
 83 66 84 75 86 85 c 2
 106 180 l 2
 108 187 116 215 133 233 c 0
 152 252 171 259 171 259 c 1
 171 259 159 276 137 290 c 0
 118 302 99 313 96 314 c 1
 113 332 186 390 291 391 c 0
 294 391 l 0
 392 391 425 347 425 296 c 0
 425 287 424 277 422 268 c 2
 376 51 l 1
 421 51 l 2
 423 51 424 51 426 51 c 0
 433 51 438 52 446 58 c 0
 456 66 456 74 457 80 c 2
 522 388 l 1
 599 388 l 1
 537 96 l 1
174 89 m 0
 157 89 146 70 146 56 c 0
 146 45 151 37 163 37 c 0
 181 37 192 55 192 70 c 0
 192 80 187 89 174 89 c 0
EndSplineSet
MinimumDistance: x4,-1 x7,5 x7,6 
EndChar
StartChar: quoteleft
Encoding: 145 8216 113
OldEncoding: 8216
Width: 193
Flags: HW
Fore
182 421 m 0
 170 408 164 389 163 387 c 1
 167 388 172 389 176 389 c 0
 187 389 198 384 205 376 c 0
 210 370 213 362 213 354 c 0
 213 332 199 307 177 299 c 0
 167 295 158 294 150 294 c 0
 129 294 117 305 113 317 c 0
 111 322 111 328 111 334 c 0
 111 366 132 412 160 437 c 0
 180 456 202 468 228 472 c 1
 223 446 l 1
 213 444 199 436 182 421 c 0
EndSplineSet
EndChar
StartChar: quoteright
Encoding: 146 8217 114
OldEncoding: 8217
Width: 183
Flags: HW
Fore
165 351 m 0
 178 364 184 383 185 385 c 1
 180 384 176 383 172 383 c 0
 160 383 150 388 142 396 c 0
 137 401 135 409 135 418 c 0
 135 439 149 465 171 473 c 0
 181 477 190 478 198 478 c 0
 220 478 233 467 237 455 c 0
 238 450 239 445 239 440 c 0
 239 407 217 362 187 335 c 0
 167 316 146 305 119 300 c 1
 124 326 l 1
 134 328 148 336 165 351 c 0
EndSplineSet
EndChar
StartChar: quotedblleft
Encoding: 147 8220 115
OldEncoding: 8220
Width: 318
Flags: HW
HStem: 301 94 459 39
Fore
187 427 m 0
 187 427 l 0
 171 401 174 390 173 388 c 1
 173 388 l 0
 178 388 214 387 214 350 c 0
 214 347 l 0
 212 322 190 292 153 292 c 0
 122 292 112 312 112 335 c 0
 112 348 115 362 120 374 c 0
 144 437 182 480 239 483 c 1
 231 448 l 1
 224 448 199 447 187 427 c 0
327 427 m 0
 310 401 314 390 313 388 c 1
 313 388 l 0
 318 388 353 387 353 351 c 0
 353 350 353 348 353 347 c 0
 351 322 330 292 293 292 c 0
 262 292 252 312 252 335 c 0
 252 348 255 362 259 374 c 0
 284 437 321 480 378 483 c 1
 370 448 l 1
 364 448 339 447 327 427 c 0
EndSplineSet
EndChar
StartChar: quotedblright
Encoding: 148 8221 116
OldEncoding: 8221
Width: 322
Flags: HW
HStem: 302 39 405 94
Fore
306 349 m 0
 306 349 l 0
 318 368 319 379 319 384 c 0
 319 386 319 387 319 388 c 1
 319 388 l 0
 314 388 279 389 279 426 c 0
 279 429 l 0
 281 454 303 484 340 484 c 0
 370 484 381 465 381 442 c 0
 381 429 377 415 372 402 c 0
 348 339 311 296 254 293 c 1
 262 328 l 1
 269 328 294 329 306 349 c 0
166 349 m 0
 178 367 179 377 179 383 c 0
 179 386 179 387 179 388 c 1
 179 388 l 0
 175 388 140 389 140 425 c 0
 140 426 140 428 140 429 c 0
 141 454 163 484 200 484 c 0
 231 484 241 465 241 443 c 0
 241 429 237 415 232 402 c 0
 209 339 172 296 114 293 c 1
 122 328 l 1
 129 328 154 329 166 349 c 0
EndSplineSet
EndChar
StartChar: bullet
Encoding: 149 8226 117
OldEncoding: 8226
Width: 347
Flags: HW
Fore
244 285 m 0
 306 285 334 246 334 201 c 0
 334 138 282 65 197 65 c 0
 135 65 108 104 108 149 c 0
 108 211 160 285 244 285 c 0
EndSplineSet
EndChar
StartChar: endash
Encoding: 150 8211 118
OldEncoding: 8211
Width: 434
Flags: HW
HStem: 167 64
Fore
431 162 m 1
 65 162 l 1
 79 225 l 1
 445 225 l 1
 431 162 l 1
EndSplineSet
EndChar
StartChar: emdash
Encoding: 151 8212 119
OldEncoding: 8212
Width: 689
Flags: HW
HStem: 167 64
Fore
691 162 m 1
 66 162 l 1
 80 225 l 1
 705 225 l 1
 697 204 694 176 691 162 c 1
EndSplineSet
EndChar
StartChar: uni0E31.left
Encoding: 152 63248 120
OldEncoding: 63248
Width: 0
Flags: HW
Fore
115 514 m 1
 115 514 l 0
 114 514 68 473 -13 456 c 0
 -42 450 -72 447 -98 447 c 0
 -137 447 -169 452 -185 459 c 0
 -214 472 -226 495 -226 519 c 0
 -226 549 -207 580 -181 594 c 0
 -167 602 -152 605 -139 605 c 0
 -107 605 -80 586 -80 553 c 0
 -80 553 -80 552 -80 551 c 0
 -82 515 -108 494 -108 494 c 1
 -107 494 -104 494 -99 494 c 0
 -82 494 -43 496 -1 511 c 0
 92 544 133 596 133 596 c 1
 115 514 l 1
-122 540 m 0
 -122 542 -121 544 -121 546 c 0
 -121 562 -133 569 -146 569 c 0
 -161 569 -179 558 -183 538 c 0
 -183 536 -184 534 -184 532 c 0
 -184 517 -172 509 -159 509 c 0
 -144 509 -126 520 -122 540 c 0
EndSplineSet
MinimumDistance: x4,-1 
EndChar
StartChar: uni0E4D.left
Encoding: 153 63249 121
OldEncoding: 63249
Width: 0
Flags: HW
Fore
-127 617 m 0
 -127 617 l 0
 -81 617 -60 588 -60 554 c 0
 -60 508 -98 454 -161 454 c 0
 -207 454 -228 483 -228 517 c 0
 -228 563 -190 617 -127 617 c 0
-152 497 m 0
 -123 497 -106 522 -106 543 c 0
 -106 559 -115 572 -136 572 c 0
 -165 572 -182 547 -182 526 c 0
 -182 510 -173 497 -152 497 c 0
EndSplineSet
EndChar
StartChar: uni0E47.left
Encoding: 154 63250 122
OldEncoding: 63250
Width: 0
Flags: HW
HStem: 464 39 548 39
VStem: -359 78
Fore
16 692 m 1
 16 692 l 1
 16 692 2 608 -67 598 c 0
 -78 596 -87 596 -96 596 c 0
 -129 596 -152 604 -187 604 c 0
 -196 604 l 0
 -226 602 -246 575 -252 548 c 0
 -253 545 -253 542 -253 540 c 0
 -253 521 -239 515 -239 515 c 1
 -238 517 -230 546 -205 552 c 0
 -202 553 -200 553 -198 553 c 0
 -174 553 -156 525 -156 525 c 1
 -156 525 -141 562 -101 562 c 0
 -78 562 -63 546 -63 522 c 0
 -63 514 -65 505 -68 496 c 0
 -76 468 -99 451 -124 450 c 0
 -127 450 l 0
 -170 450 -177 499 -200 499 c 0
 -201 499 -201 499 -201 499 c 0
 -231 498 -232 450 -233 449 c 1
 -270 450 -301 467 -305 502 c 0
 -306 508 -306 514 -306 520 c 0
 -306 568 -278 624 -225 640 c 0
 -211 644 -197 645 -182 645 c 0
 -158 645 -133 642 -110 642 c 0
 -97 642 -84 643 -73 646 c 0
 -50 651 -48 674 -42 692 c 1
 16 692 l 1
-107 526 m 0
 -120 526 -129 512 -129 501 c 0
 -129 493 -125 487 -115 487 c 0
 -101 487 -94 500 -94 511 c 0
 -94 519 -98 526 -107 526 c 0
EndSplineSet
MinimumDistance: x26,-1 
EndChar
StartChar: uni0E48.left
Encoding: 155 63251 123
OldEncoding: 63251
Width: 0
Flags: HW
HStem: 673 137
VStem: -252 78
Fore
-105 652 m 1
 -77 784 l 1
 -0 784 l 1
 -28 652 l 1
 -105 652 l 1
EndSplineSet
MinimumDistance: x2,-1 
EndChar
StartChar: uni0E49.left
Encoding: 156 63252 124
OldEncoding: 63252
Width: 0
Flags: HW
HStem: 800 38
Fore
-104 665 m 0
 -104 665 l 0
 -87 682 -84 689 -84 689 c 1
 -100 689 -123 698 -127 719 c 0
 -128 723 -128 727 -128 731 c 0
 -128 763 -101 802 -59 804 c 0
 -56 804 l 0
 -21 804 0 786 0 757 c 0
 0 756 0 754 0 753 c 0
 -2 716 -28 687 -42 679 c 1
 -22 681 -3 687 19 697 c 0
 45 708 60 718 78 732 c 0
 114 760 138 796 138 796 c 1
 120 709 l 1
 120 709 77 673 14 654 c 0
 -27 642 -77 637 -112 637 c 0
 -123 637 -133 637 -140 638 c 1
 -140 638 -120 648 -104 665 c 0
-72 720 m 0
 -53 720 -41 737 -41 751 c 0
 -41 762 -48 772 -63 772 c 0
 -82 772 -93 755 -93 741 c 0
 -93 730 -87 720 -72 720 c 0
EndSplineSet
MinimumDistance: x2,-1 
EndChar
StartChar: uni0E4A.left
Encoding: 157 63253 125
OldEncoding: 63253
Width: 0
Flags: HW
HStem: 734 19 797 39
VStem: -61 59
Fore
-111 752 m 0
 -111 752 l 0
 -117 741 -119 731 -119 729 c 1
 -118 729 -108 733 -96 733 c 0
 -90 733 -83 732 -77 729 c 0
 -67 724 -63 713 -63 701 c 0
 -63 685 -71 667 -83 657 c 0
 -94 648 -107 645 -118 645 c 0
 -140 645 -158 658 -163 678 c 0
 -164 684 -165 690 -165 697 c 0
 -165 740 -136 800 -94 808 c 0
 -89 809 -85 809 -81 809 c 0
 -51 809 -40 787 -39 787 c 0
 -38 787 -10 810 18 810 c 0
 42 810 61 795 61 763 c 0
 61 754 l 0
 58 723 37 697 37 697 c 1
 40 698 65 709 84 736 c 0
 105 762 115 794 117 806 c 1
 164 779 l 1
 164 779 134 710 68 676 c 0
 25 655 -32 647 -47 647 c 1
 -44 648 -10 667 5 709 c 0
 10 721 12 733 12 743 c 0
 12 758 7 768 -8 768 c 0
 -22 768 -48 751 -48 751 c 2
 -49 751 -63 769 -85 769 c 0
 -98 769 -105 761 -111 752 c 0
-115 668 m 0
 -98 668 -88 682 -88 694 c 0
 -88 703 -94 711 -106 711 c 0
 -123 711 -133 697 -133 685 c 0
 -133 676 -127 668 -115 668 c 0
EndSplineSet
MinimumDistance: x1,-1 
EndChar
StartChar: uni0E4B.left
Encoding: 158 63254 126
OldEncoding: 63254
Width: 0
Flags: HW
HStem: 722 39
VStem: -246 78
Fore
-69 798 m 1
 5 798 l 1
 -6 745 l 1
 60 745 l 1
 51 700 l 1
 -15 700 l 1
 -27 650 l 1
 -101 650 l 1
 -89 700 l 1
 -155 700 l 1
 -146 745 l 1
 -80 745 l 1
 -69 798 l 1
EndSplineSet
MinimumDistance: x11,-1 
EndChar
StartChar: uni0E4C.left
Encoding: 159 63255 127
OldEncoding: 63255
Width: 0
Flags: HW
HStem: 678 19
VStem: -113 59
Fore
-4 702 m 0
 -4 702 l 0
 -37 699 -44 684 -44 684 c 1
 -41 684 5 684 5 641 c 0
 5 636 4 631 3 625 c 0
 -4 594 -36 576 -65 576 c 0
 -82 576 -99 583 -107 597 c 0
 -112 605 -115 615 -115 626 c 0
 -115 657 -96 693 -65 711 c 0
 -24 736 6 728 39 750 c 0
 56 760 62 789 62 792 c 1
 116 792 l 1
 116 789 104 751 83 734 c 0
 64 718 41 706 -4 702 c 0
-56 603 m 0
 -35 603 -22 622 -22 637 c 0
 -22 648 -29 658 -44 658 c 0
 -65 658 -78 639 -78 624 c 0
 -78 613 -71 603 -56 603 c 0
EndSplineSet
MinimumDistance: x0,-1 
EndChar
StartChar: uni0E01
Encoding: 161 3585 129
OldEncoding: 3585
Width: 440
Flags: HW
HStem: 0 39 351 51
VStem: 78 78 320 78
Fore
76 0 m 1
 114 180 l 2
 116 187 124 215 141 233 c 0
 160 252 179 259 179 259 c 1
 179 259 167 276 144 290 c 0
 125 302 106 311 103 312 c 1
 119 330 198 390 302 390 c 0
 406 390 446 344 446 292 c 0
 446 284 445 276 443 268 c 2
 386 0 l 1
 309 0 l 1
 366 267 l 2
 367 274 368 281 368 287 c 0
 368 324 343 342 294 342 c 0
 242 342 208 315 208 315 c 1
 210 314 220 307 238 292 c 0
 253 278 265 262 265 262 c 1
 263 262 241 254 218 232 c 0
 198 213 192 190 190 180 c 2
 152 0 l 1
 76 0 l 1
EndSplineSet
MinimumDistance: x16,-1 
EndChar
StartChar: uni0E02
Encoding: 162 3586 130
OldEncoding: 3586
Width: 430
Flags: HW
HStem: 0 51<78 124 201 268 268 273> 229 39
VStem: 128 78 312 78
Fore
396 87 m 1
 396 87 l 0
 394 75 386 46 363 25 c 0
 336 1 308 0 293 0 c 2
 78 0 l 1
 89 51 l 1
 135 51 l 1
 155 146 l 2
 162 181 194 201 222 232 c 0
 245 257 253 279 253 298 c 0
 253 302 252 306 252 309 c 0
 247 343 227 346 212 346 c 0
 208 346 205 346 202 346 c 1
 206 343 222 332 222 304 c 0
 222 270 191 223 139 223 c 0
 104 223 79 243 79 277 c 0
 79 283 80 290 82 297 c 0
 94 346 138 384 194 389 c 0
 202 390 210 390 218 390 c 0
 274 390 306 368 316 327 c 0
 317 322 317 318 317 313 c 0
 317 285 304 254 286 231 c 0
 253 189 238 175 233 150 c 2
 212 51 l 1
 279 51 l 2
 289 51 298 53 308 62 c 0
 316 69 319 79 321 88 c 2
 384 388 l 1
 460 388 l 1
 396 87 l 1
148 269 m 0
 149 269 149 269 150 269 c 0
 167 269 179 286 179 301 c 0
 179 311 173 320 160 320 c 0
 142 320 131 303 131 288 c 0
 131 278 136 270 148 269 c 0
EndSplineSet
MinimumDistance: x4,-1 y8,5 y8,6 x4,6 x4,5 
EndChar
StartChar: uni0E03
Encoding: 163 3587 131
OldEncoding: 3587
Width: 437
Flags: HW
HStem: 0 51<86 133 210 267 267 271> 314 51
VStem: 137 78 313 78
Fore
396 78 m 1
 396 78 l 0
 394 69 384 36 359 19 c 0
 335 3 310 0 282 0 c 2
 86 0 l 1
 97 51 l 1
 144 51 l 1
 164 144 l 2
 171 178 206 206 243 252 c 0
 260 273 265 290 265 302 c 0
 265 317 257 325 253 326 c 0
 252 326 251 326 251 326 c 0
 234 326 209 299 208 299 c 0
 207 299 203 318 186 330 c 0
 178 336 169 339 161 339 c 0
 155 339 148 337 143 332 c 0
 134 324 131 315 131 314 c 1
 131 314 135 315 140 315 c 0
 145 315 152 314 159 311 c 0
 177 304 186 287 186 267 c 0
 186 251 180 234 169 219 c 0
 154 198 131 188 110 188 c 0
 88 188 68 200 62 221 c 0
 60 228 59 236 59 244 c 0
 59 274 73 308 86 331 c 0
 106 364 138 388 170 389 c 0
 171 389 l 0
 204 389 221 354 222 354 c 0
 222 354 l 0
 226 354 255 389 283 389 c 0
 317 389 331 352 331 320 c 0
 331 316 330 312 330 308 c 0
 328 286 314 249 286 217 c 0
 253 181 245 167 240 140 c 2
 221 51 l 1
 278 51 l 2
 286 51 298 52 309 60 c 0
 319 68 320 80 321 86 c 2
 385 388 l 1
 461 388 l 1
 396 78 l 1
146 254 m 0
 147 257 147 259 147 262 c 0
 147 272 141 280 130 280 c 0
 114 280 103 263 103 248 c 0
 103 238 108 229 120 229 c 0
 133 229 142 241 146 254 c 0
EndSplineSet
MinimumDistance: x4,-1 y8,5 y8,6 x8,12 x8,10 
EndChar
StartChar: uni0E04
Encoding: 164 3588 132
OldEncoding: 3588
Width: 458
Flags: HW
HStem: 0 39 363 39
VStem: 99 78 339 78
Fore
404 0 m 1
 328 0 l 1
 380 244 l 2
 382 255 384 266 384 276 c 0
 384 308 367 333 299 333 c 0
 293 333 l 0
 217 332 182 293 169 249 c 0
 162 224 160 186 160 157 c 0
 160 131 162 111 162 110 c 1
 163 113 188 197 210 227 c 0
 229 252 248 269 288 270 c 0
 326 270 343 244 343 216 c 0
 343 186 324 151 287 139 c 0
 277 136 269 135 261 135 c 0
 240 135 227 144 227 144 c 1
 222 134 211 115 202 88 c 0
 189 54 178 20 174 0 c 1
 96 0 l 1
 99 14 l 2
 101 23 103 43 103 64 c 0
 103 74 102 85 101 94 c 0
 98 118 91 149 91 186 c 0
 91 205 93 226 99 248 c 0
 120 329 189 387 307 390 c 0
 316 390 l 0
 411 390 461 349 461 282 c 0
 461 271 460 260 457 248 c 2
 404 0 l 1
279 227 m 0
 260 227 249 211 249 197 c 0
 249 187 255 178 269 178 c 0
 287 178 299 194 299 208 c 0
 299 218 293 227 279 227 c 0
EndSplineSet
MinimumDistance: x6,-1 
EndChar
StartChar: uni0E05
Encoding: 165 3589 133
OldEncoding: 3589
Width: 456
Flags: HW
HStem: 0 39 225 39
VStem: 92 78 333 78
Fore
399 0 m 1
 322 0 l 1
 374 244 l 2
 376 255 381 272 381 288 c 0
 381 295 380 301 378 307 c 0
 373 322 361 326 354 326 c 0
 351 326 349 325 348 325 c 2
 284 295 l 1
 229 324 l 2
 226 324 l 0
 214 324 179 303 163 250 c 0
 155 225 153 188 153 158 c 0
 153 132 155 111 155 110 c 1
 156 113 180 185 197 209 c 0
 214 231 234 256 278 256 c 0
 279 256 279 256 280 256 c 0
 315 256 334 234 334 206 c 0
 334 205 334 203 334 202 c 0
 331 171 318 141 277 125 c 0
 267 121 258 120 249 120 c 0
 230 120 216 127 216 127 c 1
 209 112 202 100 196 83 c 0
 184 51 175 31 166 0 c 1
 89 0 l 1
 92 16 l 2
 94 25 97 47 97 70 c 0
 97 78 97 86 96 94 c 0
 93 118 84 149 84 186 c 0
 84 205 87 225 93 247 c 0
 126 365 226 390 241 390 c 0
 242 390 243 390 243 390 c 2
 296 353 l 1
 368 390 l 2
 368 390 369 390 370 390 c 0
 380 390 423 384 446 349 c 0
 456 332 460 315 460 299 c 0
 460 278 454 260 452 249 c 2
 399 0 l 1
271 212 m 0
 253 212 241 196 241 182 c 0
 241 172 247 163 261 163 c 0
 279 163 291 179 291 193 c 0
 291 203 285 212 271 212 c 0
EndSplineSet
MinimumDistance: x6,-1 
EndChar
StartChar: uni0E06
Encoding: 166 3590 134
OldEncoding: 3590
Width: 501
Flags: HW
HStem: -3 51 137 39 308 51
VStem: 186 78 379 78
Fore
455 58 m 1
 455 58 l 0
 449 30 431 7 400 0 c 0
 394 -1 389 -2 384 -2 c 0
 353 -2 339 22 316 54 c 0
 291 90 280 98 278 101 c 1
 271 64 l 2
 258 7 211 -3 176 -3 c 0
 142 -3 111 16 107 51 c 0
 106 55 106 59 106 63 c 0
 106 99 126 141 158 163 c 0
 182 179 206 183 219 183 c 1
 229 229 l 2
 234 253 253 263 264 289 c 0
 268 297 269 304 269 310 c 0
 269 320 264 325 260 326 c 0
 259 326 258 326 258 326 c 0
 241 326 215 299 214 299 c 0
 213 299 209 318 193 330 c 0
 185 336 176 339 168 339 c 0
 162 339 155 337 150 332 c 0
 141 324 138 315 138 314 c 1
 138 314 141 315 147 315 c 0
 152 315 159 314 166 311 c 0
 184 304 193 287 193 267 c 0
 193 251 187 234 176 219 c 0
 161 198 138 188 117 188 c 0
 95 188 75 200 68 221 c 0
 66 228 65 235 65 243 c 0
 65 273 79 308 93 331 c 0
 113 364 145 388 177 389 c 0
 178 389 l 0
 211 389 228 354 229 354 c 0
 229 354 l 0
 233 354 261 389 290 389 c 0
 323 389 338 353 338 321 c 0
 338 317 338 312 337 308 c 0
 334 286 312 258 305 227 c 2
 293 168 l 1
 294 167 313 159 334 139 c 0
 353 119 358 112 375 93 c 0
 380 88 382 85 384 85 c 0
 385 85 386 87 386 91 c 2
 449 388 l 1
 525 388 l 1
 455 58 l 1
195 70 m 0
 207 129 l 0
 207 129 203 131 198 131 c 0
 190 131 176 126 166 99 c 0
 162 89 160 81 160 74 c 0
 160 59 169 51 181 50 c 0
 183 50 184 50 185 50 c 0
 191 50 192 53 195 70 c 0
152 253 m 0
 153 256 153 258 153 261 c 0
 153 271 147 279 136 279 c 0
 119 279 110 262 110 247 c 0
 110 237 114 228 125 228 c 0
 139 228 149 240 152 253 c 0
EndSplineSet
MinimumDistance: x15,-1 
EndChar
StartChar: uni0E07
Encoding: 167 3591 135
OldEncoding: 3591
Width: 333
Flags: HW
HStem: -2 20 256 39 363 39
VStem: 203 78
Fore
294 99 m 1
 294 99 l 0
 287 67 272 35 234 13 c 0
 220 5 196 -2 171 -2 c 0
 138 -2 103 10 93 48 c 0
 85 80 90 109 78 138 c 0
 70 158 59 154 46 158 c 1
 60 225 l 1
 61 225 66 226 74 226 c 0
 90 226 116 222 129 200 c 0
 156 154 131 56 179 56 c 0
 180 56 l 0
 205 57 212 76 216 95 c 2
 249 247 l 1
 249 247 246 247 242 247 c 0
 233 247 217 248 202 258 c 0
 187 268 181 283 181 300 c 0
 181 312 183 324 189 337 c 0
 204 372 240 390 270 390 c 0
 328 390 340 356 340 327 c 0
 340 317 339 307 337 300 c 2
 294 99 l 1
280 318 m 0
 280 320 280 322 280 323 c 0
 280 334 275 344 260 344 c 0
 239 344 228 328 228 314 c 0
 228 303 235 293 249 293 c 0
 250 293 250 293 251 293 c 0
 266 293 277 305 280 318 c 0
EndSplineSet
MinimumDistance: x5,-1 
EndChar
StartChar: uni0E08
Encoding: 168 3592 136
OldEncoding: 3592
Width: 396
Flags: HW
HStem: -2 51
VStem: 135 78 274 78
Fore
369 132 m 1
 369 132 l 0
 363 105 358 63 327 34 c 0
 298 7 272 -2 233 -2 c 0
 180 -2 150 24 150 59 c 0
 150 60 150 60 150 61 c 0
 150 93 158 126 158 129 c 1
 152 129 l 0
 140 129 121 131 111 138 c 0
 98 147 91 162 91 178 c 0
 91 206 109 239 139 254 c 0
 152 260 167 264 180 264 c 0
 204 264 226 253 234 233 c 0
 237 225 238 216 238 206 c 0
 238 177 228 140 225 114 c 0
 223 101 221 89 221 79 c 0
 221 65 226 56 245 56 c 0
 248 56 l 0
 270 56 279 66 284 91 c 2
 318 247 l 2
 320 258 322 268 322 278 c 0
 322 300 313 317 283 327 c 0
 270 331 256 333 242 333 c 0
 208 333 175 322 154 309 c 0
 125 290 114 284 114 283 c 1
 77 317 l 1
 77 317 91 348 155 373 c 0
 181 384 220 390 258 390 c 0
 295 390 331 384 354 370 c 0
 391 348 401 325 401 298 c 0
 401 284 398 269 395 253 c 2
 369 132 l 1
185 195 m 0
 185 197 185 199 185 200 c 0
 185 211 180 220 166 220 c 0
 147 220 135 203 135 190 c 0
 135 180 141 171 155 171 c 0
 172 171 183 183 185 195 c 0
EndSplineSet
MinimumDistance: x5,-1 
EndChar
StartChar: uni0E09
Encoding: 169 3593 137
OldEncoding: 3593
Width: 464
Flags: HW
HStem: -1 64 121 39 363 39
VStem: 107 78 300 78
Fore
441 29 m 0
 441 29 l 0
 424 9 397 -2 370 -2 c 0
 357 -2 343 1 330 7 c 0
 307 19 301 35 301 48 c 0
 301 53 302 57 303 61 c 2
 313 106 l 1
 311 104 288 84 252 40 c 0
 224 8 202 -2 169 -2 c 0
 164 -2 159 -1 153 -1 c 0
 128 1 113 17 113 38 c 0
 113 41 113 45 114 48 c 2
 129 117 l 1
 102 117 81 130 76 156 c 0
 75 160 75 163 75 167 c 0
 75 202 102 248 155 252 c 0
 158 252 160 252 162 252 c 0
 199 252 220 228 220 197 c 0
 220 191 219 186 218 180 c 2
 197 81 l 2
 197 80 197 78 197 77 c 0
 197 75 198 74 202 74 c 0
 214 75 231 97 263 129 c 0
 303 168 325 177 328 179 c 1
 344 254 l 2
 346 261 346 268 346 274 c 0
 346 311 318 329 267 330 c 0
 258 330 l 0
 159 330 129 281 127 278 c 1
 82 310 l 1
 82 312 137 393 274 394 c 0
 275 394 276 394 278 394 c 0
 369 394 427 361 427 296 c 0
 427 289 427 281 425 272 c 1
 408 194 l 1
 411 194 438 192 460 173 c 0
 471 163 476 146 476 126 c 0
 476 93 462 53 441 29 c 0
424 101 m 0
 424 101 l 0
 424 107 l 0
 424 142 402 143 398 143 c 0
 397 143 397 143 397 143 c 1
 385 87 l 2
 383 77 381 69 381 64 c 0
 381 59 384 56 393 56 c 0
 419 56 424 103 424 103 c 0
 424 103 l 0
 424 103 424 102 424 101 c 0
145 208 m 0
 144 208 l 0
 128 208 118 192 118 179 c 0
 118 169 123 161 135 161 c 0
 148 161 162 180 162 193 c 0
 162 201 157 208 145 208 c 0
EndSplineSet
MinimumDistance: x24,-1 
EndChar
StartChar: uni0E0A
Encoding: 170 3594 138
OldEncoding: 3594
Width: 428
Flags: HW
HStem: 2 51<68 114 191 258 258 263.5> 231 39
VStem: 118 78 302 78
Fore
475 366 m 1
 475 366 l 0
 475 365 454 346 415 326 c 0
 394 314 367 306 364 305 c 1
 367 304 390 294 403 273 c 0
 412 259 415 245 415 231 c 0
 415 220 414 209 411 196 c 2
 388 89 l 2
 385 77 377 47 354 27 c 0
 327 3 299 2 283 2 c 2
 68 2 l 1
 79 53 l 1
 125 53 l 1
 145 147 l 2
 153 183 182 198 213 234 c 0
 235 261 242 280 242 299 c 0
 242 302 242 304 242 307 c 0
 239 341 214 344 200 344 c 0
 196 344 193 344 191 344 c 1
 195 341 211 335 211 310 c 0
 211 309 211 307 211 306 c 0
 209 267 177 227 130 225 c 0
 129 225 129 225 128 225 c 0
 97 225 74 245 74 279 c 0
 74 285 75 291 76 298 c 0
 87 346 132 384 185 389 c 0
 193 390 200 390 207 390 c 0
 260 390 295 371 305 330 c 0
 305 326 306 322 307 318 c 1
 310 320 341 334 388 364 c 0
 446 400 472 436 473 437 c 1
 475 366 l 1
311 90 m 0
 337 212 l 0
 339 219 340 226 340 233 c 0
 340 241 338 248 333 255 c 0
 320 275 316 275 301 276 c 2
 300 277 l 1
 294 261 286 245 277 233 c 0
 244 191 229 177 223 152 c 2
 202 53 l 1
 269 53 l 2
 280 53 289 55 299 64 c 0
 306 71 309 81 311 90 c 0
136 269 m 0
 137 269 137 269 138 269 c 0
 155 269 167 286 167 301 c 0
 167 311 161 320 148 320 c 0
 130 320 119 303 119 288 c 0
 119 278 124 270 136 269 c 0
EndSplineSet
MinimumDistance: x10,-1 x2,4 x2,3 
EndChar
StartChar: uni0E0B
Encoding: 171 3595 139
OldEncoding: 3595
Width: 453
Flags: HW
HStem: -2 51<96 143 219 286 286 291.5> 308 51 425 20
VStem: 147 78 331 78
Fore
502 362 m 1
 502 362 l 0
 502 361 480 341 442 321 c 0
 421 309 394 302 391 301 c 1
 394 301 418 291 430 270 c 0
 439 256 442 242 442 228 c 0
 442 217 441 205 438 192 c 2
 415 85 l 2
 413 73 404 44 381 23 c 0
 354 -1 327 -2 311 -2 c 2
 96 -2 l 1
 106 49 l 1
 153 49 l 1
 181 178 l 2
 187 209 208 227 237 252 c 0
 264 276 271 296 271 310 c 0
 271 320 267 326 264 326 c 0
 263 326 262 326 262 326 c 0
 244 326 219 299 218 299 c 0
 217 299 213 318 197 330 c 0
 189 336 180 339 172 339 c 0
 165 339 158 336 153 332 c 1
 144 324 142 315 142 314 c 1
 142 314 145 315 151 315 c 0
 156 315 163 314 170 311 c 0
 188 304 197 287 197 267 c 0
 197 251 191 234 180 219 c 0
 165 199 142 189 122 189 c 0
 99 189 79 200 72 221 c 0
 70 229 69 237 69 245 c 0
 69 275 82 308 95 331 c 0
 115 364 149 388 181 389 c 0
 182 389 l 0
 215 389 232 354 233 354 c 0
 233 354 l 0
 237 354 265 389 293 389 c 0
 325 389 334 358 334 328 c 0
 334 324 333 319 333 314 c 1
 336 315 368 329 416 359 c 0
 466 391 500 432 501 434 c 1
 502 362 l 1
338 86 m 0
 364 209 l 0
 366 216 367 222 367 228 c 0
 367 237 365 245 360 251 c 1
 348 270 338 274 319 274 c 1
 320 277 l 1
 312 265 302 252 287 237 c 0
 263 210 260 195 258 184 c 2
 229 49 l 1
 296 49 l 2
 307 49 317 51 326 60 c 0
 333 67 336 77 338 86 c 0
157 254 m 0
 158 256 158 259 158 261 c 0
 158 271 152 278 140 278 c 0
 124 278 114 262 114 248 c 0
 114 239 119 230 130 230 c 0
 144 230 153 241 157 254 c 0
EndSplineSet
MinimumDistance: x21,-1 x11,13 x11,12 
EndChar
StartChar: uni0E0C
Encoding: 172 3596 140
OldEncoding: 3596
Width: 576
Flags: HW
HStem: -3 39 350 51
VStem: 71 78 299 78 456 78
Fore
211 232 m 0
 134 233 l 0
 153 252 172 259 172 259 c 1
 172 259 160 276 138 290 c 0
 118 302 99 311 96 312 c 1
 113 330 181 389 292 391 c 0
 294 391 296 391 297 391 c 0
 394 391 426 347 426 296 c 0
 426 287 425 278 423 268 c 2
 400 159 l 1
 401 159 421 155 435 144 c 0
 447 133 459 121 463 104 c 1
 523 388 l 1
 600 388 l 1
 528 49 l 2
 526 38 519 18 503 10 c 0
 492 4 480 0 469 0 c 0
 456 0 445 5 441 16 c 1
 435 38 435 54 421 82 c 0
 410 108 392 113 390 114 c 1
 390 113 391 108 391 100 c 0
 391 89 390 73 383 55 c 0
 367 17 339 -3 302 -3 c 0
 271 -3 247 20 247 56 c 0
 247 69 250 85 258 102 c 0
 279 150 322 154 322 154 c 1
 346 267 l 2
 348 276 349 284 349 291 c 0
 349 324 329 338 282 338 c 0
 234 338 201 315 201 315 c 1
 203 314 213 307 231 292 c 0
 246 278 258 262 258 262 c 1
 256 262 235 254 211 232 c 0
327 108 m 0
 327 108 l 0
 308 108 294 84 294 66 c 0
 294 54 299 45 312 45 c 0
 313 45 313 45 314 45 c 0
 333 46 345 69 345 87 c 0
 345 98 340 108 328 108 c 0
 327 108 l 0
136 233 m 0
 213 232 l 0
 194 213 187 190 185 180 c 2
 175 132 l 1
 175 132 175 132 176 132 c 0
 184 132 233 130 233 83 c 0
 233 80 232 77 232 74 c 0
 224 16 178 -1 147 -1 c 0
 108 -1 86 20 86 58 c 0
 86 66 87 75 89 85 c 2
 109 180 l 2
 111 187 119 215 136 233 c 0
163 37 m 0
 181 37 192 55 192 70 c 0
 192 80 187 89 174 89 c 0
 157 89 146 71 146 56 c 0
 146 46 151 37 163 37 c 0
EndSplineSet
MinimumDistance: x8,-1 
EndChar
StartChar: uni0E0D
Encoding: 173 3597 141
OldEncoding: 3597
Width: 576
Flags: HW
HStem: -194 39 -77 39 -1 39 97 39 350 51
VStem: 73 78 301 78 458 78
Fore
540 96 m 1
 540 96 l 0
 536 77 530 49 513 31 c 0
 500 17 478 0 456 0 c 2
 265 0 l 1
 276 51 l 1
 302 51 l 1
 348 267 l 2
 350 276 351 284 351 291 c 0
 351 324 331 338 284 338 c 0
 236 338 203 315 203 315 c 1
 205 314 215 307 233 292 c 0
 248 278 260 262 260 262 c 1
 258 262 236 254 213 232 c 0
 194 213 187 190 185 180 c 2
 175 132 l 1
 175 132 175 132 176 132 c 0
 184 132 233 130 233 83 c 0
 233 80 232 77 232 74 c 0
 224 16 178 -1 147 -1 c 0
 108 -1 86 20 86 58 c 0
 86 66 87 75 89 85 c 2
 109 180 l 2
 111 187 119 215 136 233 c 0
 155 252 174 259 174 259 c 1
 174 259 162 276 140 290 c 0
 120 302 101 311 98 312 c 1
 115 330 183 391 293 391 c 0
 394 391 428 347 428 296 c 0
 428 287 427 277 425 268 c 2
 379 51 l 1
 424 51 l 2
 426 51 427 51 429 51 c 0
 436 51 441 52 449 58 c 0
 459 66 459 74 460 80 c 2
 525 388 l 1
 602 388 l 1
 540 96 l 1
505 -47 m 1
 505 -47 l 1
 505 -47 495 -102 453 -140 c 0
 421 -170 379 -187 323 -188 c 0
 322 -188 320 -188 319 -188 c 0
 267 -188 219 -170 219 -121 c 0
 219 -119 219 -116 219 -113 c 0
 223 -82 246 -45 295 -44 c 0
 298 -44 l 0
 329 -44 344 -64 344 -89 c 0
 344 -97 342 -107 338 -116 c 0
 328 -141 308 -146 307 -146 c 0
 308 -146 314 -147 326 -147 c 0
 332 -147 339 -147 347 -146 c 0
 374 -142 398 -127 415 -105 c 0
 431 -82 436 -48 436 -48 c 1
 505 -47 l 1
163 37 m 0
 163 37 l 0
 181 37 192 55 192 70 c 0
 192 80 187 89 174 89 c 0
 157 89 146 71 146 56 c 0
 146 46 151 37 163 37 c 0
261 -104 m 0
 260 -106 260 -108 260 -110 c 0
 260 -119 266 -127 279 -127 c 0
 297 -127 308 -111 308 -98 c 0
 308 -89 302 -81 290 -81 c 0
 274 -81 264 -92 261 -104 c 0
EndSplineSet
MinimumDistance: x10,-1 x9,11 x9,10 
EndChar
StartChar: uni0E0E
Encoding: 174 3598 142
OldEncoding: 3598
Width: 444
Flags: HW
HStem: -212 80 -2 39 351 51
VStem: 91 78 321 78
Fore
369 -87 m 1
 369 -87 l 0
 368 -89 346 -125 308 -156 c 0
 270 -186 232 -206 231 -206 c 1
 230 -203 217 -183 203 -165 c 0
 193 -153 177 -137 176 -137 c 1
 176 -138 148 -189 96 -201 c 0
 87 -203 78 -204 70 -204 c 0
 26 -204 6 -175 6 -143 c 0
 6 -130 9 -116 16 -104 c 0
 39 -61 76 -51 107 -51 c 0
 134 -51 156 -59 156 -59 c 1
 156 -59 160 -51 164 -42 c 0
 167 -31 171 -23 171 -23 c 1
 227 -23 l 1
 227 -24 221 -41 217 -53 c 0
 210 -72 203 -81 203 -81 c 1
 203 -81 220 -92 227 -100 c 0
 239 -113 247 -121 249 -124 c 1
 251 -124 255 -120 271 -110 c 0
 283 -101 292 -87 292 -87 c 1
 367 267 l 2
 369 277 370 285 370 293 c 0
 370 325 352 339 306 339 c 0
 303 339 l 0
 252 339 220 315 220 315 c 1
 222 314 233 307 250 292 c 0
 265 278 277 262 277 262 c 1
 275 262 254 254 230 232 c 0
 211 213 205 190 203 180 c 2
 181 73 l 2
 172 31 143 -2 97 -2 c 0
 62 -2 39 18 39 48 c 0
 39 58 42 69 47 81 c 0
 67 127 106 129 114 129 c 0
 115 129 l 1
 126 180 l 2
 128 187 136 215 154 233 c 0
 173 252 192 259 192 259 c 1
 192 259 179 276 157 290 c 0
 138 302 118 311 115 312 c 1
 132 330 205 392 315 392 c 0
 415 392 447 348 447 297 c 0
 447 287 446 278 444 268 c 2
 369 -87 l 1
135 -104 m 0
 135 -104 l 0
 134 -102 121 -96 105 -96 c 0
 94 -96 82 -99 71 -109 c 0
 62 -118 58 -127 58 -135 c 0
 58 -147 66 -155 81 -155 c 0
 82 -155 82 -155 83 -155 c 0
 119 -154 135 -106 135 -104 c 0
112 88 m 0
 96 88 85 71 85 58 c 0
 85 48 90 40 102 40 c 0
 118 40 129 57 129 70 c 0
 129 80 124 88 112 88 c 0
EndSplineSet
MinimumDistance: x14,-1 
EndChar
StartChar: uni0E0F
Encoding: 175 3599 143
OldEncoding: 3599
Width: 450
Flags: HW
HStem: -209 80 -2 39 351 51
VStem: 96 78 326 78
Fore
374 -87 m 1
 374 -87 l 1
 374 -87 359 -119 327 -151 c 0
 297 -181 254 -203 252 -203 c 1
 213 -126 l 1
 151 -200 l 1
 121 -143 l 1
 120 -146 95 -191 56 -198 c 0
 52 -199 48 -199 45 -199 c 0
 13 -199 -7 -175 -7 -142 c 0
 -7 -128 -3 -112 5 -96 c 0
 24 -57 50 -48 71 -48 c 0
 91 -48 106 -56 106 -56 c 1
 113 -23 l 1
 166 -23 l 1
 166 -24 164 -38 160 -52 c 0
 156 -63 151 -81 151 -81 c 1
 166 -114 l 1
 228 -43 l 1
 268 -116 l 1
 269 -116 276 -112 285 -104 c 0
 293 -96 297 -87 297 -87 c 1
 372 267 l 2
 374 277 375 285 375 293 c 0
 375 325 357 340 311 340 c 0
 308 340 l 0
 257 340 225 315 225 315 c 1
 227 314 238 307 255 292 c 0
 270 278 282 262 282 262 c 1
 280 262 259 254 235 232 c 0
 216 213 210 190 208 180 c 2
 186 73 l 2
 177 31 147 -2 102 -2 c 0
 67 -2 46 17 46 48 c 0
 46 58 48 69 53 81 c 0
 72 128 116 129 120 129 c 0
 120 129 l 1
 131 180 l 2
 133 187 141 215 159 233 c 0
 177 252 197 259 197 259 c 1
 197 259 184 276 162 290 c 0
 143 302 123 311 120 312 c 1
 137 330 216 391 320 391 c 0
 420 391 452 348 452 298 c 0
 452 288 451 279 449 269 c 2
 374 -87 l 1
86 -106 m 0
 86 -106 l 0
 85 -104 81 -92 70 -92 c 0
 65 -92 60 -94 53 -99 c 0
 43 -106 37 -120 37 -132 c 0
 37 -143 42 -152 53 -152 c 0
 53 -152 54 -152 55 -152 c 0
 80 -149 86 -107 86 -106 c 0
117 86 m 0
 100 86 90 70 90 56 c 0
 90 46 95 38 107 38 c 0
 123 38 134 55 134 68 c 0
 134 78 129 86 117 86 c 0
EndSplineSet
MinimumDistance: x13,-1 
EndChar
StartChar: uni0E10
Encoding: 176 3600 144
OldEncoding: 3600
Width: 397
Flags: HW
HStem: -69 39 343 39
VStem: 127 78 263 78
Fore
446 347 m 1
 446 347 l 0
 444 346 419 323 375 323 c 0
 372 323 l 0
 320 324 295 347 247 347 c 0
 244 347 240 347 236 347 c 0
 197 344 183 320 182 320 c 0
 185 320 231 320 288 301 c 0
 346 281 371 262 379 230 c 0
 381 223 381 217 381 212 c 0
 381 200 378 190 375 178 c 1
 349 87 l 1
 340 52 321 24 283 8 c 0
 265 0 242 -3 220 -3 c 0
 195 -3 172 1 161 10 c 0
 144 23 137 33 137 57 c 0
 137 61 138 66 138 72 c 1
 143 111 l 1
 138 110 133 109 128 109 c 0
 99 109 74 127 74 159 c 0
 74 164 74 170 76 177 c 0
 86 216 120 244 161 244 c 0
 164 244 168 243 171 243 c 0
 207 240 225 220 225 184 c 0
 225 177 224 169 223 161 c 2
 210 75 l 2
 209 72 209 69 209 66 c 0
 209 54 215 45 235 45 c 0
 257 45 267 56 272 73 c 1
 302 182 l 1
 304 190 305 196 305 202 c 0
 305 210 303 217 295 228 c 0
 283 248 240 266 187 275 c 0
 135 285 93 290 92 290 c 1
 92 292 102 331 155 366 c 0
 186 387 220 393 249 393 c 0
 266 393 280 391 291 389 c 0
 326 383 351 371 381 371 c 0
 384 371 386 371 388 371 c 0
 419 372 432 390 432 390 c 1
 446 347 l 1
310 -139 m 1
 310 -139 l 0
 309 -148 299 -180 280 -197 c 0
 259 -216 235 -224 210 -224 c 0
 205 -224 201 -223 196 -223 c 0
 155 -220 139 -185 139 -185 c 1
 94 -224 l 1
 74 -177 l 1
 74 -177 42 -228 2 -228 c 0
 -31 -228 -47 -202 -47 -171 c 0
 -47 -162 -45 -152 -42 -142 c 0
 -32 -111 -8 -83 24 -79 c 0
 27 -79 30 -78 33 -78 c 0
 59 -78 74 -92 74 -92 c 1
 75 -91 81 -83 87 -68 c 0
 92 -50 95 -40 96 -39 c 1
 147 -39 l 1
 146 -40 140 -64 130 -87 c 0
 119 -112 108 -125 108 -126 c 1
 120 -155 l 1
 154 -128 l 1
 154 -128 l 0
 154 -132 163 -149 176 -161 c 0
 184 -169 194 -176 208 -176 c 0
 211 -176 l 0
 237 -173 240 -154 240 -154 c 1
 237 -154 192 -151 192 -110 c 0
 192 -109 l 0
 194 -72 223 -35 266 -35 c 0
 267 -35 267 -35 268 -35 c 0
 309 -35 320 -57 320 -83 c 0
 320 -93 318 -104 316 -115 c 2
 310 -139 l 1
138 152 m 0
 138 152 l 0
 156 152 167 168 167 181 c 0
 167 191 161 199 148 199 c 0
 130 199 118 183 118 170 c 0
 118 160 124 152 138 152 c 0
47 -139 m 0
 47 -139 l 1
 47 -139 36 -121 22 -121 c 0
 16 -121 10 -124 4 -134 c 0
 -2 -143 -5 -153 -5 -161 c 0
 -5 -172 -0 -181 10 -181 c 0
 11 -181 13 -181 15 -180 c 0
 36 -175 47 -140 47 -139 c 0
261 -72 m 0
 244 -72 233 -87 233 -99 c 0
 233 -108 238 -116 251 -116 c 0
 268 -116 278 -101 278 -89 c 0
 278 -80 273 -72 261 -72 c 0
EndSplineSet
MinimumDistance: x38,-1 
EndChar
StartChar: uni0E11
Encoding: 177 3601 145
OldEncoding: 3601
Width: 543
Flags: HW
HStem: 0 39 312 51
VStem: 182 78 424 78
Fore
487 0 m 1
 410 1 l 0
 425 71 462 246 467 267 c 0
 469 277 470 284 470 289 c 0
 470 297 467 300 457 304 c 0
 456 305 454 305 452 305 c 0
 424 305 372 227 325 151 c 0
 287 89 256 4 255 0 c 1
 177 0 l 1
 221 207 l 2
 224 221 229 240 246 264 c 0
 264 289 271 305 271 314 c 0
 271 322 266 326 259 326 c 0
 259 326 259 326 258 326 c 0
 242 326 210 294 209 294 c 0
 208 294 209 309 191 325 c 0
 185 331 178 334 170 334 c 0
 163 334 156 331 150 326 c 0
 139 315 137 302 137 301 c 1
 137 301 142 302 149 302 c 0
 155 302 162 302 169 299 c 0
 187 292 195 276 195 257 c 0
 195 241 189 223 178 206 c 0
 164 186 141 176 120 176 c 0
 98 176 77 187 70 209 c 0
 68 216 67 223 67 231 c 0
 67 264 81 304 97 329 c 0
 118 362 149 389 181 389 c 0
 215 389 225 352 226 352 c 0
 226 352 l 0
 230 352 256 388 287 389 c 0
 288 389 l 0
 318 389 337 364 337 334 c 0
 337 325 336 316 332 307 c 0
 317 269 309 267 304 243 c 2
 292 187 l 2
 293 192 331 260 368 306 c 0
 411 359 452 390 491 390 c 0
 496 390 502 389 507 388 c 0
 546 380 554 348 554 325 c 0
 554 317 553 310 552 305 c 2
 487 0 l 1
155 240 m 0
 156 242 156 245 156 247 c 0
 156 257 150 265 139 265 c 0
 123 265 112 248 112 234 c 0
 112 224 117 215 129 215 c 0
 142 215 152 226 155 240 c 0
EndSplineSet
MinimumDistance: x6,-1 
EndChar
StartChar: uni0E12
Encoding: 178 3602 146
OldEncoding: 3602
Width: 603
Flags: HW
HStem: 122 39
VStem: 88 95 331 78 482 78
Fore
557 68 m 1
 557 68 l 0
 555 55 552 29 537 12 c 0
 528 3 518 0 507 0 c 2
 474 0 l 1
 474 0 474 6 474 15 c 0
 474 31 473 58 463 80 c 0
 448 114 426 115 425 115 c 1
 426 112 431 101 431 85 c 0
 431 75 429 63 422 49 c 0
 409 20 385 -7 344 -7 c 0
 309 -7 286 14 286 52 c 0
 286 61 287 70 290 81 c 0
 305 139 351 150 352 150 c 1
 374 254 l 2
 377 265 379 277 379 289 c 0
 379 295 378 302 376 308 c 0
 371 326 357 329 351 329 c 0
 349 329 348 329 348 329 c 2
 282 297 l 1
 234 328 l 1
 234 328 197 325 172 267 c 0
 160 239 156 209 156 183 c 0
 156 172 156 161 158 151 c 0
 163 121 164 99 164 86 c 0
 164 77 164 73 164 73 c 1
 172 85 172 85 182 99 c 0
 198 121 212 140 212 140 c 1
 212 140 186 145 186 181 c 0
 186 187 187 194 189 203 c 0
 198 239 231 266 266 266 c 0
 274 266 281 265 289 262 c 0
 308 254 317 238 317 219 c 0
 317 197 306 171 287 146 c 0
 264 116 263 111 227 64 c 0
 208 40 181 1 181 0 c 1
 87 0 l 1
 88 3 92 23 92 63 c 0
 92 67 92 72 92 76 c 0
 91 118 85 154 85 189 c 0
 85 219 89 249 104 282 c 0
 145 376 224 390 232 390 c 0
 233 390 233 390 233 390 c 2
 294 357 l 1
 360 390 l 2
 360 390 361 390 362 390 c 0
 372 390 409 386 432 359 c 0
 449 341 457 321 457 296 c 0
 457 286 456 276 453 264 c 2
 432 166 l 1
 436 166 453 164 468 155 c 0
 487 144 493 129 494 127 c 1
 549 388 l 1
 625 388 l 1
 557 68 l 1
273 198 m 0
 273 198 l 0
 274 201 274 203 274 206 c 0
 274 217 268 223 257 223 c 0
 240 223 229 207 229 193 c 0
 229 182 235 173 249 173 c 0
 261 173 270 182 273 198 c 0
382 72 m 0
 383 76 383 80 383 83 c 0
 383 98 376 106 366 106 c 0
 355 106 342 95 337 73 c 0
 336 69 335 65 335 61 c 0
 335 50 341 43 354 43 c 0
 368 43 379 54 382 72 c 0
EndSplineSet
MinimumDistance: x12,-1 
EndChar
StartChar: uni0E13
Encoding: 179 3603 147
OldEncoding: 3603
Width: 625
Flags: HW
HStem: -1 39 101 39 350 51
VStem: 71 78 299 78 456 78
Fore
636 147 m 0
 636 147 l 0
 638 140 638 133 638 125 c 0
 638 74 605 6 539 -3 c 0
 531 -4 524 -4 518 -4 c 0
 475 -4 455 16 455 48 c 0
 455 54 456 61 458 69 c 2
 467 114 l 1
 467 114 442 103 412 60 c 0
 383 20 372 0 371 0 c 2
 289 0 l 1
 345 263 l 2
 347 273 348 281 348 289 c 0
 348 322 329 339 282 339 c 0
 234 339 201 315 201 315 c 1
 203 314 213 307 231 292 c 0
 246 278 259 259 259 259 c 1
 256 259 232 258 211 237 c 0
 193 217 186 190 184 180 c 2
 174 132 l 1
 174 132 l 0
 179 132 231 131 231 84 c 0
 231 81 230 78 230 74 c 0
 223 17 176 -1 146 -1 c 0
 106 -1 84 20 84 58 c 0
 84 66 85 75 87 85 c 2
 107 180 l 2
 109 187 117 215 134 233 c 0
 153 252 172 259 172 259 c 1
 172 259 160 276 138 290 c 0
 118 302 99 311 96 312 c 1
 113 330 182 390 289 390 c 0
 292 390 l 0
 392 389 426 347 426 296 c 0
 426 287 425 277 423 268 c 2
 390 112 l 1
 403 130 418 143 435 156 c 1
 455 173 480 185 481 187 c 2
 523 388 l 1
 600 388 l 1
 561 203 l 2
 561 203 l 0
 561 199 622 207 636 147 c 0
576 64 m 0
 576 64 l 0
 583 78 587 94 587 108 c 0
 587 121 584 132 577 140 c 0
 566 149 558 150 553 150 c 0
 550 150 l 1
 533 71 l 2
 532 68 532 66 532 63 c 0
 532 52 539 46 548 46 c 0
 557 46 569 53 576 64 c 0
172 91 m 0
 155 91 144 72 144 58 c 0
 144 47 149 39 161 39 c 0
 179 39 190 57 190 72 c 0
 190 82 185 91 172 91 c 0
EndSplineSet
MinimumDistance: x22,-1 
EndChar
StartChar: uni0E14
Encoding: 180 3604 148
OldEncoding: 3604
Width: 458
Flags: HW
HStem: 0 39 351 51
VStem: 337 78
Fore
403 0 m 1
 325 0 l 1
 378 250 l 2
 380 259 381 267 381 275 c 0
 381 313 357 334 296 334 c 0
 293 334 l 0
 217 334 181 294 168 251 c 0
 163 233 161 220 161 209 c 0
 161 192 165 178 167 149 c 0
 168 140 168 131 168 123 c 0
 168 98 166 80 166 79 c 1
 167 80 185 101 197 114 c 0
 209 126 225 145 226 147 c 1
 225 147 192 160 192 197 c 0
 192 208 195 221 202 236 c 0
 216 263 248 280 279 280 c 0
 281 280 284 280 286 280 c 0
 314 277 337 263 337 229 c 0
 337 223 336 217 335 211 c 0
 324 157 294 133 241 74 c 0
 198 26 176 1 176 0 c 2
 94 0 l 1
 94 0 98 35 98 74 c 0
 98 84 98 94 97 104 c 0
 94 140 87 167 87 196 c 0
 87 218 91 241 102 270 c 0
 131 343 202 395 308 395 c 0
 406 395 460 353 460 285 c 0
 460 275 459 265 457 254 c 2
 403 0 l 1
237 210 m 0
 236 208 236 205 236 203 c 0
 236 193 242 184 256 184 c 0
 276 184 289 202 289 216 c 0
 289 227 283 236 268 236 c 0
 251 236 239 223 237 210 c 0
EndSplineSet
MinimumDistance: x6,-1 
EndChar
StartChar: uni0E15
Encoding: 181 3605 149
OldEncoding: 3605
Width: 468
Flags: HW
HStem: 0 39
VStem: 103 95 349 78
Fore
414 0 m 1
 338 0 l 1
 391 251 l 2
 394 264 398 276 398 289 c 0
 398 294 397 300 395 305 c 0
 389 325 371 330 367 330 c 0
 366 330 l 2
 295 298 l 1
 239 330 l 1
 239 330 203 324 177 269 c 0
 165 242 161 219 161 196 c 0
 161 181 162 166 166 150 c 0
 176 101 178 64 178 64 c 1
 188 81 191 90 205 107 c 0
 221 127 230 143 230 143 c 1
 230 143 194 155 194 196 c 0
 194 201 195 207 196 213 c 0
 205 250 240 278 280 278 c 0
 287 278 295 277 303 275 c 0
 327 268 337 248 337 226 c 0
 337 203 326 175 310 155 c 0
 282 117 282 120 248 74 c 0
 227 45 216 31 197 0 c 1
 99 0 l 1
 100 2 105 24 105 53 c 0
 105 60 105 68 104 76 c 0
 101 123 89 156 89 194 c 0
 89 219 94 247 111 282 c 0
 156 376 240 391 248 391 c 0
 249 391 249 391 249 391 c 2
 308 361 l 1
 380 391 l 2
 382 391 422 389 451 359 c 0
 467 343 474 323 474 299 c 0
 474 288 473 276 470 264 c 2
 414 0 l 1
292 211 m 0
 292 213 293 215 293 217 c 0
 293 231 283 237 272 237 c 0
 258 237 243 228 239 209 c 0
 239 207 239 205 239 204 c 0
 239 190 249 183 260 183 c 0
 273 183 288 192 292 211 c 0
EndSplineSet
MinimumDistance: x6,-1 
EndChar
StartChar: uni0E16
Encoding: 182 3606 150
OldEncoding: 3606
Width: 433
Flags: HW
HStem: -2 39 102 39 351 51
VStem: 72 78 314 78
Fore
380 0 m 1
 304 0 l 1
 361 267 l 2
 362 274 363 280 363 286 c 0
 363 323 337 339 287 339 c 0
 248 339 213 322 201 312 c 1
 203 311 214 307 232 292 c 0
 247 278 259 262 259 262 c 1
 257 262 235 254 212 232 c 0
 193 213 186 190 184 180 c 2
 175 137 l 1
 175 137 177 137 179 137 c 0
 193 137 237 133 237 85 c 0
 237 80 236 74 235 68 c 0
 226 18 185 -2 150 -2 c 0
 148 -2 147 -2 145 -2 c 0
 103 0 85 23 85 59 c 0
 85 69 87 79 89 91 c 2
 108 180 l 2
 110 187 118 215 135 233 c 0
 154 252 173 259 173 259 c 1
 173 259 161 276 139 290 c 0
 119 302 100 311 97 312 c 1
 114 330 187 392 296 392 c 0
 400 392 440 345 440 292 c 0
 440 284 439 276 437 268 c 2
 380 0 l 1
174 92 m 0
 155 92 143 75 143 60 c 0
 143 50 149 41 163 41 c 0
 183 41 195 58 195 72 c 0
 195 83 188 92 174 92 c 0
EndSplineSet
MinimumDistance: x5,-1 
EndChar
StartChar: uni0E17
Encoding: 183 3607 151
OldEncoding: 3607
Width: 471
Flags: HW
HStem: 0 39 255 39 362 39
VStem: 107 78 349 78
Fore
414 0 m 1
 338 0 l 1
 397 276 l 2
 399 284 400 294 400 302 c 0
 400 316 396 328 382 328 c 0
 340 328 291 247 253 174 c 0
 202 74 184 12 181 0 c 1
 104 0 l 1
 156 246 l 1
 156 246 153 246 150 246 c 0
 141 246 125 247 110 257 c 0
 95 268 88 283 88 300 c 0
 88 311 91 323 96 336 c 0
 112 371 148 389 178 389 c 0
 235 389 247 356 247 327 c 0
 247 317 246 307 244 299 c 2
 231 240 l 1
 227 216 l 1
 234 234 246 272 292 326 c 0
 337 377 367 390 405 390 c 0
 414 390 l 0
 463 388 480 358 480 323 c 0
 480 314 479 306 477 297 c 2
 414 0 l 1
190 318 m 0
 190 320 190 322 190 323 c 0
 190 334 185 344 170 344 c 0
 149 344 138 328 138 314 c 0
 138 303 145 293 159 293 c 0
 160 293 160 293 161 293 c 0
 176 293 187 305 190 318 c 0
EndSplineSet
MinimumDistance: x5,-1 x27,23 y23,27 y23,25 
EndChar
StartChar: uni0E18
Encoding: 184 3608 152
OldEncoding: 3608
Width: 422
Flags: HW
HStem: 0 51<51 125 202 244 244 249.5> 362 39
VStem: 85 78 296 78
Fore
181 260 m 1
 181 260 l 0
 143 265 109 278 107 278 c 1
 108 283 147 387 262 390 c 0
 264 390 265 390 267 390 c 0
 314 390 343 365 384 365 c 0
 390 365 396 366 402 367 c 0
 434 372 448 389 450 390 c 1
 462 341 l 1
 462 341 438 317 405 314 c 0
 400 314 396 313 392 313 c 0
 337 313 314 339 264 339 c 0
 261 339 257 339 254 339 c 0
 214 337 199 312 199 311 c 1
 201 311 260 301 295 290 c 0
 335 278 369 264 391 242 c 1
 402 230 406 218 406 208 c 0
 406 200 404 192 402 184 c 2
 381 85 l 2
 376 62 370 44 354 25 c 0
 341 10 319 0 298 0 c 2
 51 0 l 1
 62 51 l 1
 136 51 l 1
 181 260 l 1
254 246 m 1
 213 51 l 1
 255 51 l 2
 266 51 277 52 286 58 c 0
 298 66 303 80 306 93 c 2
 323 173 l 2
 325 183 328 192 328 200 c 0
 328 210 323 219 306 227 c 0
 289 235 273 241 254 246 c 1
EndSplineSet
MinimumDistance: x17,-1 
EndChar
StartChar: uni0E19
Encoding: 185 3609 153
OldEncoding: 3609
Width: 484
Flags: HW
HStem: -4 20 255 39 362 39
VStem: 105 78 312 78
Fore
465 49 m 0
 465 49 l 0
 444 15 410 -3 379 -3 c 0
 363 -3 347 2 335 13 c 0
 322 23 317 39 317 58 c 0
 317 66 318 75 320 84 c 2
 335 154 l 1
 333 153 306 147 258 99 c 0
 217 59 179 7 178 0 c 1
 101 0 l 1
 154 246 l 1
 154 246 151 246 148 246 c 0
 139 246 123 247 108 257 c 0
 93 268 86 283 86 300 c 0
 86 311 89 323 94 336 c 0
 110 371 146 389 176 389 c 0
 233 389 245 356 245 327 c 0
 245 317 244 307 242 299 c 2
 204 124 l 1
 204 124 226 145 273 179 c 0
 307 203 347 221 349 221 c 1
 384 388 l 1
 460 388 l 1
 427 225 l 1
 429 225 466 216 483 187 c 0
 490 175 493 159 493 142 c 0
 493 113 484 80 465 49 c 0
445 133 m 0
 445 133 l 0
 445 148 436 166 418 166 c 0
 417 166 415 166 414 166 c 1
 393 71 l 1
 392 69 392 67 392 65 c 0
 392 56 397 51 404 51 c 0
 411 51 419 55 426 66 c 0
 441 86 445 110 445 127 c 0
 445 133 l 0
187 318 m 0
 187 320 187 322 187 323 c 0
 187 334 182 344 167 344 c 0
 146 344 135 328 135 314 c 0
 135 303 142 293 156 293 c 0
 157 293 157 293 158 293 c 0
 173 293 184 305 187 318 c 0
EndSplineSet
MinimumDistance: x17,-1 
EndChar
StartChar: uni0E1A
Encoding: 186 3610 154
OldEncoding: 3610
Width: 469
Flags: HW
HStem: 0 49 247 38 351 38
VStem: 112 76<53 246 246 246> 336 76<95 388>
Fore
426 67 m 1
 426 67 l 0
 423 53 414 30 397 17 c 0
 379 5 362 0 346 0 c 2
 65 0 l 1
 76 53 l 1
 123 53 l 1
 164 246 l 1
 164 246 161 246 157 246 c 0
 148 246 132 247 118 257 c 0
 103 268 96 283 96 300 c 0
 96 311 99 323 104 336 c 0
 119 371 156 389 186 389 c 0
 243 389 255 356 255 326 c 0
 255 316 254 307 252 299 c 2
 199 53 l 1
 312 53 l 2
 322 53 333 53 342 61 c 0
 353 72 354 84 356 95 c 2
 418 388 l 1
 494 388 l 1
 426 67 l 1
196 317 m 0
 196 319 197 321 197 323 c 0
 197 334 190 343 176 343 c 0
 156 343 145 327 145 313 c 0
 145 302 151 292 165 292 c 0
 166 292 166 292 167 292 c 0
 183 292 194 304 196 317 c 0
EndSplineSet
MinimumDistance: x4,-1 x23,0 x23,25 
EndChar
StartChar: uni0E1B
Encoding: 187 3611 155
OldEncoding: 3611
Width: 469
Flags: HW
HStem: 0 51 254 39 362 39
VStem: 115 78 347 78
Fore
426 67 m 1
 426 67 l 0
 423 53 414 30 397 17 c 0
 379 5 362 0 346 0 c 2
 65 0 l 1
 76 53 l 1
 123 53 l 1
 164 246 l 1
 164 246 161 246 157 246 c 0
 148 246 132 247 118 257 c 0
 103 268 96 283 96 300 c 0
 96 311 99 323 104 336 c 0
 119 371 156 389 186 389 c 0
 243 389 255 356 255 326 c 0
 255 316 254 307 252 299 c 2
 199 53 l 1
 312 53 l 2
 322 53 333 53 342 61 c 0
 353 72 354 84 356 95 c 2
 459 577 l 1
 535 577 l 1
 426 67 l 1
197 318 m 0
 197 320 197 321 197 323 c 0
 197 334 191 344 176 344 c 0
 156 344 145 328 145 314 c 0
 145 303 151 293 165 293 c 0
 166 293 166 293 167 293 c 0
 183 293 194 305 197 318 c 0
EndSplineSet
MinimumDistance: x4,-1 x23,0 x23,25 
EndChar
StartChar: uni0E1C
Encoding: 188 3612 156
OldEncoding: 3612
Width: 440
Flags: HW
HStem: 0 39 256 39 362 39
VStem: 62 78 318 78
Fore
384 0 m 1
 307 0 l 0
 305 16 298 48 286 78 c 0
 270 113 252 135 251 137 c 1
 229 117 220 111 193 78 c 0
 170 52 146 16 138 0 c 1
 60 0 l 1
 124 299 l 2
 130 328 151 389 229 389 c 0
 258 389 286 372 286 338 c 0
 286 337 286 337 286 336 c 0
 286 303 270 274 240 257 c 0
 222 247 205 246 196 246 c 0
 192 246 189 246 189 246 c 1
 161 112 l 2
 161 113 189 144 211 165 c 0
 237 190 247 196 267 211 c 1
 269 210 288 189 305 165 c 0
 319 144 331 113 331 112 c 2
 389 388 l 1
 466 388 l 1
 384 0 l 1
219 344 m 0
 199 344 187 327 187 313 c 0
 187 302 194 293 208 293 c 0
 227 293 239 310 239 325 c 0
 239 335 233 344 219 344 c 0
EndSplineSet
MinimumDistance: x4,-1 
EndChar
StartChar: uni0E1D
Encoding: 189 3613 157
OldEncoding: 3613
Width: 440
Flags: HW
HStem: 0 39 254 39 362 39
VStem: 62 78 318 78
Fore
384 0 m 1
 307 0 l 0
 305 16 298 51 286 78 c 0
 270 112 252 135 251 137 c 1
 229 117 222 112 193 78 c 0
 168 51 146 16 138 0 c 1
 60 0 l 1
 124 299 l 2
 130 328 151 389 229 389 c 0
 258 389 286 372 286 338 c 0
 286 337 286 337 286 336 c 0
 286 303 270 274 240 257 c 0
 222 247 205 246 196 246 c 0
 192 246 189 246 189 246 c 1
 161 113 l 2
 161 114 190 144 211 164 c 0
 237 189 247 196 267 211 c 1
 269 210 288 190 304 165 c 0
 316 145 331 115 331 114 c 2
 430 580 l 1
 507 580 l 1
 384 0 l 1
221 345 m 0
 201 345 189 328 189 314 c 0
 189 303 196 294 210 294 c 0
 229 294 241 311 241 326 c 0
 241 336 235 345 221 345 c 0
EndSplineSet
MinimumDistance: x4,-1 
EndChar
StartChar: uni0E1E
Encoding: 190 3614 158
OldEncoding: 3614
Width: 487
Flags: HW
HStem: 0 39 362 39
VStem: 368 78
Fore
433 0 m 1
 357 0 l 1
 329 292 l 1
 180 0 l 1
 103 0 l 1
 156 250 l 1
 156 250 152 249 146 249 c 0
 139 249 128 250 115 256 c 0
 98 264 89 282 89 303 c 0
 89 313 91 323 95 334 c 0
 110 369 140 389 178 389 c 0
 230 389 246 361 246 329 c 0
 246 321 245 312 243 303 c 2
 216 175 l 1
 324 388 l 1
 371 388 l 1
 393 175 l 1
 438 387 l 1
 515 387 l 1
 433 0 l 1
168 346 m 0
 149 346 137 329 137 314 c 0
 137 304 143 295 157 295 c 0
 176 295 188 312 188 327 c 0
 188 337 182 346 168 346 c 0
EndSplineSet
MinimumDistance: x4,-1 x3,21 y21,3 y21,2 
EndChar
StartChar: uni0E1F
Encoding: 191 3615 159
OldEncoding: 3615
Width: 491
Flags: HW
HStem: 0 39 362 39
VStem: 367 78
Fore
432 0 m 1
 356 0 l 1
 328 292 l 1
 179 0 l 1
 102 0 l 1
 155 250 l 1
 155 250 151 249 145 249 c 0
 138 249 127 250 114 256 c 0
 97 264 88 282 88 303 c 0
 88 313 90 323 94 334 c 0
 109 369 139 389 177 389 c 0
 229 389 245 361 245 329 c 0
 245 321 244 312 242 303 c 2
 215 175 l 1
 323 388 l 1
 370 388 l 1
 392 175 l 1
 486 614 l 1
 563 614 l 1
 432 0 l 1
166 346 m 0
 147 346 135 329 135 314 c 0
 135 304 141 295 155 295 c 0
 174 295 186 312 186 327 c 0
 186 337 180 346 166 346 c 0
EndSplineSet
MinimumDistance: x4,-1 x3,21 y21,3 y21,2 
EndChar
StartChar: uni0E20
Encoding: 192 3616 160
OldEncoding: 3616
Width: 444
Flags: HW
HStem: -2 39 351 51
VStem: 93 78 323 78
Fore
389 0 m 1
 312 0 l 1
 369 267 l 2
 371 277 372 285 372 293 c 0
 372 325 354 340 308 340 c 0
 305 340 l 0
 254 340 222 315 222 315 c 1
 224 314 235 307 252 292 c 0
 267 278 279 262 279 262 c 1
 277 262 256 254 232 232 c 0
 213 213 207 190 205 180 c 2
 183 73 l 2
 174 31 145 -2 99 -2 c 0
 64 -2 43 17 43 47 c 0
 43 57 46 68 51 81 c 0
 70 127 110 129 116 129 c 0
 117 129 117 129 117 129 c 1
 128 180 l 2
 130 187 138 215 156 233 c 0
 174 252 194 259 194 259 c 1
 194 259 181 276 159 290 c 0
 140 302 120 311 117 312 c 1
 134 330 206 391 317 391 c 0
 417 391 449 348 449 297 c 0
 449 287 448 278 446 268 c 2
 389 0 l 1
115 87 m 0
 99 87 88 70 88 57 c 0
 88 47 93 39 105 39 c 0
 121 39 132 56 132 69 c 0
 132 79 127 87 115 87 c 0
EndSplineSet
MinimumDistance: x6,-1 
EndChar
StartChar: uni0E21
Encoding: 193 3617 161
OldEncoding: 3617
Width: 469
Flags: HW
HStem: -3 20 158 51 362 39
VStem: 139 78 348 78
Fore
428 70 m 1
 428 70 l 0
 422 44 411 18 383 7 c 0
 370 1 357 -2 344 -2 c 0
 331 -2 319 1 308 9 c 0
 294 19 284 39 277 62 c 0
 259 123 240 129 239 133 c 1
 227 77 l 1
 222 49 211 27 181 12 c 0
 165 3 143 -3 123 -3 c 0
 102 -3 83 3 70 18 c 0
 59 30 54 48 54 69 c 0
 54 102 67 141 92 167 c 0
 131 206 178 207 179 207 c 1
 188 250 l 1
 188 250 184 249 178 249 c 0
 171 249 160 250 147 256 c 0
 130 264 121 282 121 303 c 0
 121 313 123 323 127 334 c 0
 142 369 172 389 210 389 c 0
 262 389 278 361 278 329 c 0
 278 321 277 312 275 303 c 2
 254 202 l 1
 254 202 279 201 306 154 c 0
 324 119 328 99 343 80 c 0
 344 80 355 83 359 102 c 2
 419 388 l 1
 495 388 l 1
 428 70 l 1
151 75 m 0
 167 149 l 0
 166 149 162 151 156 151 c 0
 147 151 133 146 121 123 c 0
 114 110 109 91 109 76 c 0
 109 62 114 51 127 51 c 0
 141 51 148 63 151 75 c 0
198 345 m 0
 179 345 167 328 167 313 c 0
 167 303 173 294 187 294 c 0
 206 294 218 311 218 326 c 0
 218 336 212 345 198 345 c 0
EndSplineSet
MinimumDistance: x13,-1 
EndChar
StartChar: uni0E22
Encoding: 194 3618 162
OldEncoding: 3618
Width: 429
Flags: HW
HStem: 0 51 156 39
VStem: 67 78 309 78
Fore
392 82 m 1
 392 82 l 0
 388 61 375 32 352 17 c 0
 332 4 313 0 291 0 c 2
 65 0 l 1
 86 97 l 2
 91 123 102 140 127 159 c 0
 141 170 156 176 175 177 c 1
 151 178 132 189 123 206 c 1
 116 216 113 227 113 241 c 0
 113 249 114 257 116 266 c 2
 123 299 l 2
 129 328 160 389 231 389 c 0
 264 389 289 369 289 336 c 0
 289 333 l 0
 289 302 274 271 243 257 c 0
 227 250 213 248 203 248 c 0
 193 248 187 250 187 250 c 1
 186 244 185 239 185 234 c 0
 185 226 188 219 197 211 c 0
 207 202 218 198 232 198 c 2
 269 198 l 1
 259 149 l 1
 219 149 l 2
 203 149 188 142 176 129 c 0
 166 116 165 106 161 90 c 2
 153 53 l 1
 264 53 l 2
 279 53 292 55 303 66 c 0
 312 75 316 82 319 94 c 2
 381 388 l 1
 457 388 l 1
 392 82 l 1
222 343 m 0
 203 343 191 326 191 311 c 0
 191 301 197 292 211 292 c 0
 231 292 243 309 243 323 c 0
 243 334 236 343 222 343 c 0
EndSplineSet
MinimumDistance: x4,-1 
EndChar
StartChar: uni0E23
Encoding: 195 3619 163
OldEncoding: 3619
Width: 360
Flags: HW
HStem: -1 39
VStem: 232 78
Fore
417 338 m 1
 417 338 l 0
 412 336 390 317 358 317 c 0
 358 317 357 317 356 317 c 0
 308 319 283 341 233 344 c 0
 231 344 229 344 226 344 c 0
 191 344 179 322 173 318 c 1
 175 318 231 314 275 293 c 0
 308 278 347 262 347 225 c 0
 347 222 347 217 346 213 c 2
 319 85 l 2
 311 45 279 -1 216 -1 c 0
 181 -1 156 16 156 52 c 0
 156 53 156 53 156 54 c 0
 160 97 189 123 210 132 c 0
 224 138 236 139 243 139 c 0
 249 139 253 138 253 138 c 1
 265 191 l 2
 267 199 268 207 268 213 c 0
 268 224 264 234 252 242 c 0
 232 256 200 266 160 274 c 0
 135 279 115 280 102 280 c 0
 92 280 86 279 84 279 c 1
 84 279 105 359 194 385 c 0
 212 390 227 392 241 392 c 0
 288 392 317 369 355 369 c 0
 358 369 362 370 365 370 c 0
 390 372 400 388 404 390 c 1
 417 338 l 1
236 94 m 0
 217 94 205 77 205 62 c 0
 205 52 211 43 225 43 c 0
 245 43 257 60 257 74 c 0
 257 85 250 94 236 94 c 0
EndSplineSet
MinimumDistance: x7,-1 
EndChar
StartChar: uni0E24
Encoding: 196 3620 164
OldEncoding: 3620
Width: 442
Flags: HW
HStem: -2 39 102 39 351 51
VStem: 74 78 316 78
Fore
352 -142 m 1
 276 -142 l 1
 363 267 l 2
 364 274 365 280 365 286 c 0
 365 323 339 341 289 341 c 0
 237 341 204 315 204 315 c 1
 206 314 216 307 234 292 c 0
 249 278 261 262 261 262 c 1
 259 262 237 254 214 232 c 0
 194 213 188 190 186 180 c 2
 177 137 l 1
 177 137 179 137 181 137 c 0
 195 137 239 133 239 85 c 0
 239 80 238 74 237 68 c 0
 228 18 187 -2 151 -2 c 0
 149 -2 148 -2 146 -2 c 0
 104 0 87 23 87 59 c 0
 87 69 89 79 91 91 c 2
 110 180 l 2
 112 187 120 215 137 233 c 0
 156 252 175 259 175 259 c 1
 175 259 163 276 141 290 c 0
 121 302 102 311 99 312 c 1
 116 330 195 391 298 391 c 0
 402 391 442 345 442 292 c 0
 442 284 441 276 439 268 c 2
 352 -142 l 1
175 92 m 0
 156 92 144 75 144 60 c 0
 144 50 150 41 164 41 c 0
 184 41 196 58 196 72 c 0
 196 83 189 92 175 92 c 0
EndSplineSet
MinimumDistance: x5,-1 
EndChar
StartChar: uni0E25
Encoding: 197 3621 165
OldEncoding: 3621
Width: 431
Flags: HW
HStem: -4 20
VStem: 63 78 304 78
Fore
371 0 m 1
 294 0 l 1
 301 31 l 2
 302 35 302 40 302 45 c 0
 302 68 296 105 285 142 c 0
 272 186 251 216 217 216 c 0
 216 216 216 216 215 216 c 0
 187 216 178 192 172 167 c 2
 166 136 l 1
 170 137 175 137 179 137 c 0
 204 137 232 125 237 93 c 0
 238 89 238 85 238 81 c 0
 238 52 219 18 188 5 c 0
 175 -1 161 -4 148 -4 c 0
 126 -4 106 4 94 18 c 0
 85 30 80 46 80 68 c 0
 80 88 84 112 91 142 c 0
 110 218 148 256 191 269 c 0
 204 273 218 275 231 275 c 0
 256 275 279 268 296 251 c 0
 316 232 334 188 334 186 c 2
 347 251 l 2
 350 262 351 273 351 282 c 0
 351 314 334 337 281 339 c 0
 276 339 271 339 267 339 c 0
 183 339 151 298 143 289 c 1
 102 319 l 1
 104 322 125 356 184 378 c 0
 211 388 249 395 287 395 c 0
 321 395 354 389 376 378 c 0
 419 356 430 329 430 298 c 0
 430 279 426 259 422 238 c 2
 371 0 l 1
169 92 m 0
 149 92 137 75 137 60 c 0
 137 49 144 40 158 40 c 0
 178 40 190 57 190 72 c 0
 190 83 184 92 169 92 c 0
EndSplineSet
MinimumDistance: x6,-1 
EndChar
StartChar: uni0E26
Encoding: 198 3622 166
OldEncoding: 3622
Width: 450
Flags: HW
HStem: -2 39 351 51
VStem: 97 78 327 78
Fore
361 -149 m 1
 284 -149 l 1
 373 267 l 2
 375 277 376 285 376 293 c 0
 376 325 358 341 312 341 c 0
 309 341 l 0
 259 341 226 314 226 314 c 1
 228 313 239 307 256 292 c 0
 271 278 283 262 283 262 c 1
 281 262 260 254 236 232 c 0
 217 213 211 190 209 180 c 2
 187 73 l 2
 178 31 148 -2 103 -2 c 0
 68 -2 47 17 47 47 c 0
 47 57 50 68 55 81 c 0
 74 127 114 129 120 129 c 0
 121 129 121 129 121 129 c 1
 132 180 l 2
 134 187 142 215 160 233 c 0
 178 252 198 259 198 259 c 1
 198 259 185 276 163 290 c 0
 144 302 124 311 121 312 c 1
 138 330 217 392 321 392 c 0
 421 392 453 348 453 297 c 0
 453 287 452 278 450 268 c 2
 361 -149 l 1
120 88 m 0
 103 88 93 72 93 58 c 0
 93 48 98 40 110 40 c 0
 126 40 137 57 137 70 c 0
 137 80 132 88 120 88 c 0
EndSplineSet
MinimumDistance: x6,-1 
EndChar
StartChar: uni0E27
Encoding: 199 3623 167
OldEncoding: 3623
Width: 387
Flags: HW
HStem: -1 39
VStem: 268 78
Fore
354 85 m 1
 354 85 l 0
 346 47 315 -1 258 -1 c 0
 256 -1 253 -1 251 -1 c 0
 213 1 192 19 191 54 c 0
 191 87 216 121 245 132 c 0
 260 138 272 139 279 139 c 0
 285 139 288 138 288 138 c 1
 310 241 l 2
 313 254 315 268 315 281 c 0
 315 311 302 336 248 336 c 0
 247 336 245 336 244 336 c 0
 189 336 158 317 138 275 c 1
 79 301 l 1
 79 302 92 334 140 363 c 0
 174 383 218 391 258 391 c 0
 297 391 333 383 353 372 c 0
 386 352 396 328 396 299 c 0
 396 283 393 266 389 248 c 2
 354 85 l 1
270 93 m 0
 251 93 239 76 239 61 c 0
 239 51 245 42 259 42 c 0
 279 42 291 59 291 73 c 0
 291 84 284 93 270 93 c 0
EndSplineSet
MinimumDistance: x5,-1 
EndChar
StartChar: uni0E28
Encoding: 200 3624 168
OldEncoding: 3624
Width: 457
Flags: HW
HStem: 0 39 363 39
VStem: 96 78 339 78
Fore
406 375 m 1
 406 375 l 1
 407 375 l 1
 406 375 l 1
290 274 m 1
 290 274 l 0
 295 277 300 280 303 284 c 0
 348 327 358 329 359 329 c 0
 359 329 l 1
 346 335 328 338 303 338 c 0
 300 338 296 338 292 338 c 0
 215 336 182 292 169 248 c 0
 162 223 160 186 160 156 c 0
 160 131 162 111 162 110 c 1
 163 113 185 193 214 231 c 0
 231 253 250 274 290 274 c 1
 290 274 l 1
542 428 m 1
 542 428 l 0
 542 427 530 400 497 370 c 0
 474 349 453 337 453 337 c 1
 453 335 463 321 464 301 c 0
 464 274 460 265 457 248 c 2
 404 0 l 1
 328 0 l 1
 380 244 l 2
 383 259 382 250 385 271 c 0
 385 277 l 0
 385 289 383 294 383 296 c 1
 335 260 l 1
 347 249 349 235 349 220 c 0
 347 189 330 157 290 143 c 0
 280 139 271 138 263 138 c 0
 243 138 231 147 231 147 c 1
 226 138 214 112 204 85 c 0
 192 51 178 20 174 0 c 1
 93 0 l 1
 96 14 l 2
 98 24 100 47 100 69 c 0
 100 78 100 86 99 94 c 0
 96 116 90 146 90 180 c 0
 90 201 92 224 99 248 c 0
 120 329 190 390 307 392 c 0
 313 392 l 0
 378 392 397 376 406 375 c 1
 409 376 420 381 437 399 c 0
 448 411 458 427 458 428 c 1
 542 428 l 1
284 229 m 0
 265 229 253 213 253 199 c 0
 253 189 259 181 273 181 c 0
 292 181 303 197 303 211 c 0
 303 221 297 229 284 229 c 0
EndSplineSet
MinimumDistance: x44,-1 
EndChar
StartChar: uni0E29
Encoding: 201 3625 169
OldEncoding: 3625
Width: 488
Flags: HW
HStem: 0 51 143 64 255 39 362 39
VStem: 116 78 348 78
Fore
559 229 m 1
 559 229 l 1
 559 229 546 199 501 168 c 0
 473 149 445 139 443 139 c 1
 427 67 l 2
 424 53 415 30 398 17 c 0
 380 5 363 0 347 0 c 2
 66 0 l 1
 77 53 l 1
 124 53 l 1
 165 246 l 1
 165 246 162 246 158 246 c 0
 149 246 133 247 119 257 c 0
 104 268 97 283 97 300 c 0
 97 311 100 323 105 336 c 0
 120 371 157 389 187 389 c 0
 244 389 256 356 256 326 c 0
 256 316 255 307 253 299 c 2
 200 53 l 1
 313 53 l 2
 323 53 334 53 343 61 c 0
 354 72 355 84 357 95 c 2
 364 126 l 1
 363 126 361 126 357 126 c 0
 340 126 297 129 273 146 c 0
 257 159 247 179 247 200 c 0
 247 223 258 247 283 264 c 0
 295 272 310 276 323 276 c 0
 346 276 367 265 371 246 c 0
 373 240 373 235 373 230 c 0
 373 200 350 180 350 180 c 1
 350 180 354 178 362 178 c 0
 365 178 367 178 369 178 c 0
 372 178 374 178 375 178 c 1
 419 388 l 1
 495 388 l 1
 456 200 l 1
 458 200 474 208 489 222 c 0
 508 239 514 257 514 261 c 1
 559 229 l 1
197 318 m 0
 197 318 l 0
 197 320 197 321 197 323 c 0
 197 334 191 344 176 344 c 0
 156 344 145 328 145 314 c 0
 145 303 151 293 165 293 c 0
 166 293 166 293 167 293 c 0
 183 293 194 305 197 318 c 0
318 238 m 0
 300 238 289 223 289 210 c 0
 289 200 295 192 308 192 c 0
 325 192 336 208 336 221 c 0
 336 230 331 238 318 238 c 0
EndSplineSet
MinimumDistance: x8,-1 x2,4 x2,3 
EndChar
StartChar: uni0E2A
Encoding: 202 3626 170
OldEncoding: 3626
Width: 429
Flags: HW
HStem: -1 20 229 39 420 20
VStem: 63 78 305 78
Fore
495 427 m 1
 495 427 l 0
 487 407 479 396 461 378 c 0
 438 354 416 340 416 340 c 1
 417 338 430 321 431 306 c 0
 431 300 l 0
 431 270 425 250 423 238 c 2
 372 0 l 1
 295 0 l 1
 300 28 l 1
 301 34 301 42 301 51 c 0
 301 74 298 106 289 139 c 0
 275 183 254 226 219 226 c 0
 218 226 l 0
 190 226 179 192 173 167 c 2
 168 139 l 1
 172 140 177 140 181 140 c 0
 206 140 233 128 238 96 c 0
 239 92 239 87 239 83 c 0
 239 54 220 21 190 8 c 0
 176 2 162 -1 149 -1 c 0
 127 -1 108 7 95 21 c 0
 86 33 81 48 81 70 c 0
 81 90 85 114 92 145 c 0
 110 226 147 255 192 269 c 0
 210 274 242 284 271 297 c 0
 305 312 331 327 333 328 c 1
 318 335 307 340 281 340 c 0
 274 340 267 340 258 339 c 0
 183 336 154 297 145 288 c 1
 102 320 l 1
 105 323 130 357 189 377 c 0
 218 387 251 391 283 391 c 0
 302 391 320 390 335 387 c 0
 374 381 385 370 385 370 c 1
 385 370 397 380 409 398 c 0
 419 414 420 424 421 427 c 1
 495 427 l 1
334 184 m 0
 348 251 l 0
 351 262 351 263 352 275 c 0
 353 280 353 283 353 286 c 0
 353 292 352 292 351 292 c 0
 351 292 l 1
 349 291 330 275 310 267 c 0
 291 259 282 256 282 256 c 2
 283 256 295 251 308 232 c 0
 321 213 334 186 334 184 c 0
173 95 m 0
 153 95 141 78 141 63 c 0
 141 52 148 43 162 43 c 0
 182 43 194 60 194 75 c 0
 194 86 188 95 173 95 c 0
EndSplineSet
MinimumDistance: x9,-1 
EndChar
StartChar: uni0E2B
Encoding: 203 3627 171
OldEncoding: 3627
Width: 467
Flags: HW
HStem: 0 39 255 39 362 39
VStem: 104 78 346 78
Fore
411 0 m 1
 335 0 l 1
 373 179 l 2
 375 186 377 194 377 201 c 0
 377 206 376 210 372 212 c 0
 368 214 364 215 361 215 c 0
 350 215 344 208 342 206 c 0
 336 202 306 173 268 126 c 1
 229 81 200 51 178 0 c 1
 101 0 l 1
 153 246 l 1
 153 246 150 246 147 246 c 0
 138 246 122 247 107 257 c 0
 92 268 85 283 85 300 c 0
 85 311 88 323 93 336 c 0
 109 371 145 389 175 389 c 0
 233 389 245 355 245 326 c 0
 245 316 244 306 242 299 c 2
 209 147 l 1
 209 147 241 187 267 212 c 0
 305 249 332 262 332 262 c 1
 331 262 321 274 321 296 c 0
 321 308 324 322 332 339 c 0
 347 369 379 391 419 391 c 0
 460 391 483 365 483 334 c 0
 483 332 483 329 483 327 c 0
 476 268 434 253 432 252 c 1
 433 251 442 245 448 234 c 0
 452 224 454 216 454 208 c 0
 454 201 453 194 451 186 c 2
 411 0 l 1
186 315 m 0
 186 315 l 0
 187 319 187 323 187 325 c 0
 187 339 178 341 166 341 c 0
 145 341 134 325 134 311 c 0
 134 300 141 290 156 290 c 0
 157 290 157 290 158 290 c 0
 172 290 183 302 186 315 c 0
410 343 m 0
 387 343 373 323 373 306 c 0
 373 294 381 284 397 284 c 0
 420 284 434 304 434 321 c 0
 434 333 426 343 410 343 c 0
EndSplineSet
MinimumDistance: x12,-1 y8,10 y8,9 
EndChar
StartChar: uni0E2C
Encoding: 204 3628 172
OldEncoding: 3628
Width: 492
Flags: HW
HStem: 0 39 319 29 362 39
VStem: 367 78
Fore
585 428 m 1
 585 428 l 0
 585 426 567 399 545 375 c 0
 525 355 504 340 504 340 c 1
 432 0 l 1
 356 0 l 1
 306 189 l 1
 179 0 l 1
 102 0 l 1
 155 250 l 1
 155 250 151 249 145 249 c 0
 138 249 127 250 114 256 c 0
 97 264 88 282 88 303 c 0
 88 313 90 323 94 334 c 0
 109 369 139 389 177 389 c 0
 229 389 245 361 245 329 c 0
 245 321 244 312 242 303 c 2
 204 124 l 1
 299 273 l 1
 346 273 l 1
 381 124 l 1
 421 309 l 1
 420 309 401 301 372 301 c 0
 358 301 341 303 324 309 c 0
 305 316 296 332 296 350 c 0
 296 367 303 385 318 402 c 0
 331 416 362 432 404 432 c 0
 413 432 422 432 431 430 c 0
 469 423 484 398 484 398 c 1
 484 398 497 407 507 420 c 0
 519 435 524 448 524 448 c 1
 585 428 l 1
433 366 m 0
 433 366 l 0
 433 369 l 0
 433 384 415 393 396 393 c 0
 375 393 349 385 345 366 c 0
 345 364 344 362 344 361 c 0
 344 344 366 338 384 338 c 0
 404 338 429 348 433 366 c 0
167 346 m 0
 148 346 136 329 136 314 c 0
 136 304 142 295 156 295 c 0
 175 295 187 312 187 327 c 0
 187 337 181 346 167 346 c 0
EndSplineSet
MinimumDistance: x9,-1 x5,3 y3,5 y3,4 
EndChar
StartChar: uni0E2D
Encoding: 205 3629 173
OldEncoding: 3629
Width: 437
Flags: HW
HStem: 0 51 236 39
VStem: 70 78 312 78
Fore
396 87 m 1
 396 87 l 0
 391 59 380 37 355 19 c 0
 334 4 308 0 287 0 c 2
 153 0 l 2
 128 0 111 4 94 22 c 0
 89 29 82 43 82 60 c 0
 82 64 83 69 84 74 c 2
 106 180 l 2
 115 221 146 267 209 267 c 0
 245 267 268 246 268 211 c 0
 268 178 244 144 214 134 c 0
 199 128 188 127 181 127 c 0
 175 127 172 128 172 128 c 1
 163 87 l 2
 162 82 161 77 161 72 c 0
 161 68 162 64 166 60 c 0
 171 54 182 53 191 53 c 2
 273 53 l 2
 290 53 298 55 308 64 c 0
 319 74 320 84 323 98 c 2
 358 263 l 2
 360 270 361 277 361 284 c 0
 361 311 344 334 287 336 c 0
 272 336 l 0
 188 336 160 290 153 281 c 1
 110 317 l 1
 113 320 124 346 183 373 c 0
 210 385 251 391 290 391 c 0
 326 391 361 386 384 375 c 0
 429 354 439 324 439 299 c 0
 439 285 436 273 434 263 c 2
 396 87 l 1
201 223 m 0
 182 223 171 206 171 192 c 0
 171 181 177 172 191 172 c 0
 210 172 222 189 222 203 c 0
 222 214 216 223 201 223 c 0
EndSplineSet
MinimumDistance: x4,-1 
EndChar
StartChar: uni0E2E
Encoding: 206 3630 174
OldEncoding: 3630
Width: 428
Flags: HW
HStem: 0 51 210 39 281 39 363 39
VStem: 63 78 305 78
Fore
478 390 m 1
 478 390 l 0
 478 389 468 371 453 352 c 0
 441 337 425 325 423 324 c 1
 423 322 430 316 432 299 c 0
 432 293 l 0
 432 278 429 269 427 261 c 2
 390 87 l 2
 385 59 373 37 348 19 c 0
 327 4 302 0 280 0 c 2
 144 0 l 2
 119 0 102 4 85 22 c 0
 80 29 73 43 73 60 c 0
 73 64 74 69 75 74 c 2
 92 155 l 2
 101 196 131 242 195 242 c 0
 230 242 256 221 256 186 c 0
 255 152 230 119 200 109 c 0
 185 103 174 102 167 102 c 0
 161 102 158 103 158 103 c 1
 154 83 l 2
 153 80 153 77 153 74 c 0
 153 68 154 63 157 60 c 0
 162 54 173 53 183 53 c 2
 266 53 l 2
 284 53 291 55 301 64 c 0
 312 74 313 84 316 98 c 2
 352 267 l 2
 353 273 353 274 354 281 c 0
 354 282 l 0
 354 286 351 289 351 289 c 1
 334 282 281 273 239 272 c 0
 194 272 122 285 122 321 c 0
 122 324 123 326 123 328 c 0
 131 369 203 391 279 393 c 0
 282 393 284 393 287 393 c 0
 362 393 388 366 388 366 c 2
 389 366 395 369 404 380 c 0
 412 391 418 410 418 411 c 1
 478 390 l 1
344 334 m 0
 344 334 l 0
 341 335 327 351 274 352 c 0
 244 352 198 349 195 330 c 0
 195 329 195 329 195 328 c 0
 195 313 230 312 258 312 c 0
 267 312 l 0
 333 314 343 334 344 334 c 0
186 197 m 0
 166 197 154 180 154 166 c 0
 154 156 161 147 175 147 c 0
 194 147 206 164 206 178 c 0
 206 188 200 197 186 197 c 0
EndSplineSet
MinimumDistance: x7,-1 
EndChar
StartChar: uni0E2F
Encoding: 207 3631 175
OldEncoding: 3631
Width: 407
Flags: HW
HStem: -4 20 279 39 372 29
VStem: 297 78
Fore
389 117 m 1
 389 117 l 0
 380 74 371 38 324 14 c 0
 292 -3 261 -4 250 -4 c 0
 248 -4 247 -4 247 -4 c 1
 225 50 l 1
 225 50 227 50 230 50 c 0
 242 50 273 52 296 72 c 0
 309 84 311 110 314 124 c 2
 342 255 l 2
 342 254 306 216 235 214 c 0
 232 214 l 0
 174 214 128 243 128 296 c 0
 128 299 128 301 128 303 c 0
 131 343 162 387 218 389 c 0
 219 389 219 389 220 389 c 0
 255 389 272 370 272 346 c 0
 272 337 269 327 264 317 c 0
 246 278 202 277 198 277 c 2
 198 277 208 262 236 262 c 0
 242 262 249 262 256 264 c 0
 303 273 320 293 341 318 c 0
 361 343 372 385 372 388 c 1
 372 388 375 388 380 388 c 0
 394 388 421 386 433 366 c 1
 436 361 437 355 437 349 c 0
 437 338 434 326 431 313 c 2
 389 117 l 1
211 354 m 0
 195 354 185 340 185 327 c 0
 185 319 190 311 202 311 c 0
 218 311 228 325 228 338 c 0
 228 346 223 354 211 354 c 0
EndSplineSet
MinimumDistance: x5,-1 
EndChar
StartChar: uni0E30
Encoding: 208 3632 176
OldEncoding: 3632
Width: 347
Flags: HW
Fore
238 282 m 0
 238 282 l 1
 238 282 269 286 309 310 c 0
 360 341 388 383 388 383 c 1
 370 298 l 2
 370 296 338 263 282 243 c 0
 246 230 218 222 189 222 c 0
 175 222 162 224 147 228 c 0
 118 236 98 260 98 289 c 0
 98 306 105 325 121 343 c 0
 140 364 167 375 192 375 c 0
 206 375 219 371 229 365 c 0
 246 353 251 339 251 325 c 0
 251 303 238 283 238 282 c 0
193 69 m 0
 193 69 l 1
 193 69 224 73 264 97 c 0
 315 127 343 170 343 170 c 1
 325 84 l 2
 324 82 292 49 236 29 c 0
 201 16 173 9 145 9 c 0
 131 9 117 11 102 15 c 0
 73 22 53 46 53 76 c 0
 53 93 60 112 76 130 c 0
 94 151 122 161 146 161 c 0
 160 161 173 158 183 151 c 0
 200 139 206 124 206 111 c 0
 206 89 193 70 193 69 c 0
125 59 m 0
 125 59 l 0
 148 59 162 80 162 97 c 0
 162 110 155 122 137 122 c 0
 113 122 99 102 99 84 c 0
 99 71 107 59 125 59 c 0
170 273 m 0
 193 273 207 294 207 311 c 0
 207 324 200 336 182 336 c 0
 158 336 144 316 144 298 c 0
 144 285 152 273 170 273 c 0
EndSplineSet
MinimumDistance: x16,-1 
EndChar
StartChar: uni0E31
Encoding: 209 3633 177
OldEncoding: 3633
Width: 0
Flags: HW
Fore
132 513 m 1
 132 513 l 0
 131 513 99 479 28 457 c 0
 0 448 -28 445 -53 445 c 0
 -94 445 -128 454 -145 461 c 0
 -174 473 -185 496 -185 520 c 0
 -185 550 -167 581 -140 596 c 0
 -126 603 -112 607 -98 607 c 0
 -66 607 -39 588 -39 556 c 0
 -39 554 -39 553 -39 552 c 0
 -40 516 -68 496 -68 496 c 1
 -67 496 -59 495 -47 495 c 0
 -27 495 5 498 40 513 c 0
 110 544 150 596 150 596 c 1
 132 513 l 1
-83 540 m 0
 -83 542 -82 544 -82 546 c 0
 -82 562 -94 570 -107 570 c 0
 -122 570 -139 559 -143 539 c 0
 -143 537 -144 534 -144 532 c 0
 -144 517 -132 509 -120 509 c 0
 -104 509 -87 520 -83 540 c 0
EndSplineSet
MinimumDistance: x2,-1 
EndChar
StartChar: uni0E32
Encoding: 210 3634 178
OldEncoding: 3634
Width: 322
Flags: HW
HStem: 0 39 351 51
VStem: 6 59 233 78
Fore
128 293 m 1
 75 312 l 1
 76 313 100 390 227 390 c 0
 313 390 338 342 338 289 c 0
 338 273 336 257 333 242 c 2
 282 0 l 1
 205 0 l 1
 255 235 l 2
 258 248 260 261 260 274 c 0
 260 305 248 331 206 331 c 0
 144 330 128 294 128 293 c 1
EndSplineSet
MinimumDistance: x7,-1 
EndChar
StartChar: uni0E33
Encoding: 211 3635 179
OldEncoding: 3635
Width: 322
Flags: HW
HStem: 0 39 351 51
VStem: 11 59 238 78
Fore
18 607 m 0
 18 607 l 0
 64 607 84 578 84 544 c 0
 84 499 46 444 -17 444 c 0
 -63 444 -83 473 -83 507 c 0
 -83 552 -45 607 18 607 c 0
-7 487 m 0
 -7 487 l 0
 22 487 39 512 39 533 c 0
 39 548 29 562 8 562 c 0
 -21 562 -39 537 -39 516 c 0
 -39 501 -29 487 -7 487 c 0
125 293 m 1
 72 312 l 1
 73 313 97 390 224 390 c 0
 310 390 335 342 335 289 c 0
 335 273 333 257 330 242 c 2
 279 0 l 1
 202 0 l 1
 252 235 l 2
 255 248 257 261 257 274 c 0
 257 305 245 331 203 331 c 0
 141 330 125 294 125 293 c 1
EndSplineSet
MinimumDistance: x10,-1 
EndChar
StartChar: uni0E34
Encoding: 212 3636 180
OldEncoding: 3636
Width: 0
Flags: HW
HStem: 483 39 576 39
VStem: -385 78
Fore
-86 596 m 0
 -86 596 l 0
 16 595 42 500 42 445 c 0
 42 433 41 423 39 416 c 1
 39 416 -6 463 -123 468 c 0
 -131 468 -138 469 -146 469 c 0
 -228 469 -277 445 -278 445 c 1
 -259 517 -193 596 -88 596 c 0
 -87 596 -87 596 -86 596 c 0
-95 553 m 0
 -96 553 -98 553 -99 553 c 0
 -171 553 -195 500 -195 500 c 1
 -195 500 -166 507 -124 507 c 0
 -109 507 l 0
 -57 505 -14 488 -14 488 c 1
 -14 488 -22 552 -95 553 c 0
EndSplineSet
EndChar
StartChar: uni0E35
Encoding: 213 3637 181
OldEncoding: 3637
Width: 0
Flags: HW
HStem: 472 39
VStem: -384 78 -138 78
Fore
-280 434 m 1
 -280 434 l 0
 -263 506 -199 566 -134 580 c 0
 -119 583 -105 585 -92 585 c 0
 -59 585 -32 575 -13 563 c 1
 -3 612 l 1
 72 612 l 1
 40 460 l 1
 40 460 40 449 40 435 c 0
 40 420 39 407 38 405 c 1
 38 405 -7 452 -124 457 c 0
 -132 457 -140 458 -147 458 c 0
 -230 458 -280 434 -280 434 c 1
-97 542 m 0
 -98 542 -100 542 -101 542 c 0
 -172 542 -196 489 -196 489 c 1
 -196 489 -167 496 -125 496 c 0
 -121 496 -116 496 -111 496 c 0
 -58 494 -16 477 -16 477 c 1
 -16 477 -23 541 -97 542 c 0
EndSplineSet
EndChar
StartChar: uni0E36
Encoding: 214 3638 182
OldEncoding: 3638
Width: 0
Flags: HW
HStem: 471 39
VStem: -385 78
Fore
-281 433 m 0
 -281 433 l 0
 -274 467 -240 531 -182 562 c 0
 -150 579 -118 584 -92 584 c 0
 -72 584 -56 581 -45 577 c 1
 -45 579 -36 597 -6 615 c 0
 7 622 20 626 33 626 c 0
 50 626 65 620 74 611 c 0
 83 602 87 590 87 578 c 0
 87 567 84 556 78 545 c 0
 65 519 51 509 28 499 c 1
 33 485 37 475 39 459 c 0
 40 450 41 448 41 444 c 0
 41 440 40 434 36 414 c 1
 36 414 -8 451 -125 456 c 0
 -133 456 -141 457 -148 457 c 0
 -231 457 -280 433 -281 433 c 0
-98 541 m 0
 -98 541 l 0
 -99 541 -101 541 -102 541 c 0
 -174 541 -197 488 -197 488 c 1
 -197 488 -168 495 -126 495 c 0
 -122 495 -117 495 -112 495 c 0
 -59 493 -17 476 -17 476 c 1
 -17 476 -24 540 -98 541 c 0
13 531 m 0
 14 531 16 531 17 531 c 0
 38 531 52 551 52 568 c 0
 52 581 45 592 27 592 c 0
 24 592 l 0
 4 591 -9 571 -9 554 c 0
 -9 543 -3 533 13 531 c 0
EndSplineSet
EndChar
StartChar: uni0E37
Encoding: 215 3639 183
OldEncoding: 3639
Width: 0
Flags: HW
HStem: 479 39 567 39
VStem: -393 78 -229 59 -123 59
Fore
-287 441 m 0
 -287 441 l 0
 -287 444 -274 501 -221 547 c 1
 -170 589 -120 592 -101 592 c 0
 -98 592 -95 592 -94 592 c 1
 -88 622 l 1
 -28 622 l 1
 -36 583 l 1
 -30 582 -24 579 -19 574 c 0
 -13 569 -9 559 -8 559 c 1
 5 622 l 1
 70 622 l 1
 33 446 l 1
 32 412 l 1
 32 412 -14 459 -131 464 c 0
 -139 464 -147 465 -154 465 c 0
 -237 465 -286 441 -287 441 c 0
-104 549 m 0
 -105 549 -107 549 -108 549 c 0
 -180 549 -203 496 -203 496 c 1
 -203 496 -175 503 -133 503 c 0
 -118 503 l 0
 -66 501 -23 484 -23 484 c 1
 -23 484 -30 548 -104 549 c 0
EndSplineSet
EndChar
StartChar: uni0E38
Encoding: 216 3640 184
OldEncoding: 3640
Width: 0
Flags: HW
VStem: -120 63
Fore
-100 -201 m 1
 -169 -201 l 1
 -153 -127 l 1
 -156 -128 -158 -128 -161 -128 c 0
 -169 -128 -177 -125 -186 -118 c 0
 -196 -110 -201 -98 -201 -85 c 0
 -201 -69 -194 -52 -180 -38 c 0
 -165 -23 -143 -18 -124 -18 c 0
 -116 -18 -109 -19 -103 -21 c 0
 -80 -29 -73 -45 -73 -65 c 0
 -73 -74 -75 -83 -77 -93 c 2
 -100 -201 l 1
-126 -71 m 0
 -125 -68 -125 -66 -125 -64 c 0
 -125 -58 -128 -54 -141 -54 c 0
 -155 -54 -163 -65 -163 -75 c 0
 -163 -83 -159 -89 -150 -89 c 0
 -128 -89 -128 -80 -126 -71 c 0
EndSplineSet
MinimumDistance: x6,-1 
EndChar
StartChar: uni0E39
Encoding: 217 3641 185
OldEncoding: 3641
Width: 0
Flags: HW
HStem: -200 46 -54 35
VStem: -125 70
Fore
-184 -148 m 1
 -184 -148 l 1
 -175 -147 l 0
 -175 -147 -175 -147 -176 -147 c 0
 -177 -147 l 0
 -177 -147 -169 -145 -162 -138 c 0
 -156 -131 -152 -120 -152 -118 c 0
 -152 -117 -152 -117 -153 -117 c 0
 -153 -117 l 0
 -153 -118 l 0
 -153 -118 l 0
 -153 -117 -133 -20 -132 -20 c 2
 -56 -20 l 1
 -56 -20 -84 -147 -84 -148 c 0
 -85 -149 -90 -163 -102 -173 c 0
 -114 -183 -125 -192 -140 -193 c 0
 -147 -193 -165 -193 -165 -193 c 1
 -274 -193 l 1
 -263 -143 l 1
 -272 -143 l 0
 -299 -143 -319 -132 -319 -101 c 0
 -319 -95 -318 -89 -317 -82 c 0
 -311 -46 -278 -17 -239 -17 c 0
 -238 -17 -236 -17 -235 -17 c 0
 -198 -19 -185 -41 -185 -70 c 0
 -185 -78 -186 -88 -188 -97 c 2
 -198 -147 l 1
 -184 -148 l 1
-260 -101 m 0
 -244 -101 -235 -86 -235 -74 c 0
 -235 -64 -240 -55 -252 -55 c 0
 -253 -55 l 0
 -268 -56 -278 -70 -278 -83 c 0
 -278 -93 -272 -101 -260 -101 c 0
EndSplineSet
MinimumDistance: x26,-1 
EndChar
StartChar: uni0E3A
Encoding: 218 3642 186
OldEncoding: 3642
Width: 0
Flags: HW
Fore
-115 -56 m 0
 -83 -56 -69 -76 -69 -100 c 0
 -69 -132 -95 -170 -139 -170 c 0
 -171 -170 -185 -150 -185 -126 c 0
 -185 -94 -158 -56 -115 -56 c 0
EndSplineSet
EndChar
StartChar: dottedcircle
Encoding: 221 9676 188
OldEncoding: 65537
Width: 619
Flags: HW
HStem: 15 0<116 322 120 322> 15 49<221 229> 22 49<401 409> 75 49<158 165> 83 49<455 464> 167 49<479 487> 172 49<135 142> 255 49<455 464> 259 49<160 167> 314 49<394 401> 319 49<229 232> 341 49<316 324>
VStem: 112 49<191 197> 136 49<94 101> 141 49<279 288> 200 49<37 41> 207 49<338 344> 298 49<14 17 362 369> 374 49<334 343> 382 49<45 48> 436 49<102 108 275 285> 459 49<187 197>
Fore
221 295 m 6
299 354 m 6
228 51 m 6
176 110 m 6
411 57 m 6
477 118 m 6
514 291 m 6
465 349 m 6
519 203 m 6
173 207 m 6
394 377 m 6
230 308 m 0
 242 308 250 300 250 289 c 0
 250 288 249 286 249 284 c 0
 246 270 234 259 220 259 c 0
 209 259 200 267 200 279 c 0
 200 280 201 282 201 284 c 0
 204 297 217 308 230 308 c 0
225 284 m 0
 225 284 l 0
 225 284 l 0
 225 284 l 0
 225 284 l 0
309 368 m 0
 321 368 330 360 330 348 c 0
 330 347 329 345 329 343 c 0
 326 330 313 319 299 319 c 0
 288 319 279 327 279 338 c 0
 279 340 280 341 280 343 c 0
 283 357 296 368 309 368 c 0
304 343 m 0
 304 343 l 0
 304 343 l 0
 304 343 l 0
 304 343 l 0
239 64 m 0
 251 64 258 55 258 44 c 0
 258 43 258 41 258 40 c 0
 255 26 241 15 228 15 c 0
 216 15 208 23 208 34 c 0
 208 36 209 38 209 40 c 0
 211 53 225 64 239 64 c 0
234 40 m 0
 234 40 l 0
 234 40 l 0
 234 40 l 0
 234 40 l 0
186 124 m 0
 198 124 207 116 207 104 c 0
 207 103 206 101 206 99 c 0
 203 86 190 75 176 75 c 0
 165 75 156 83 156 94 c 0
 156 96 157 97 157 99 c 0
 160 113 173 124 186 124 c 0
181 99 m 0
 181 99 l 0
 181 99 l 0
 181 99 l 0
 181 99 l 0
421 71 m 0
 433 71 442 63 442 51 c 0
 442 50 441 48 441 46 c 0
 438 33 425 22 411 22 c 0
 400 22 391 30 391 41 c 0
 391 43 392 44 392 46 c 0
 395 60 408 71 421 71 c 0
416 46 m 0
 416 46 l 0
 416 46 l 0
 416 46 l 0
 416 46 l 0
488 131 m 0
 499 131 508 123 508 112 c 0
 508 110 507 109 507 107 c 0
 504 93 491 83 478 83 c 0
 466 83 458 90 458 101 c 0
 458 103 459 105 459 107 c 0
 462 120 474 131 488 131 c 0
483 107 m 0
 483 107 l 0
 483 107 l 0
 483 107 l 0
 483 107 l 0
525 304 m 0
 537 304 544 295 544 284 c 0
 544 283 544 281 544 280 c 0
 541 266 527 255 514 255 c 0
 502 255 495 263 495 274 c 0
 495 276 496 278 496 280 c 0
 498 293 511 304 525 304 c 0
520 280 m 0
 520 280 l 0
 520 280 l 0
 520 280 l 0
 520 280 l 0
475 363 m 0
 487 363 496 355 496 343 c 0
 496 342 495 340 495 338 c 0
 492 325 479 314 465 314 c 0
 454 314 445 322 445 333 c 0
 445 335 446 336 446 338 c 0
 449 352 462 363 475 363 c 0
470 338 m 0
 470 338 l 0
 470 338 l 0
 470 338 l 0
 470 338 l 0
529 216 m 0
 541 216 550 208 550 197 c 0
 550 195 549 194 549 192 c 0
 546 178 532 167 518 167 c 0
 507 167 499 175 499 186 c 0
 499 188 500 190 500 192 c 0
 503 205 516 216 529 216 c 0
524 192 m 0
 524 192 l 0
 524 192 l 0
 524 192 l 0
 524 192 l 0
183 221 m 0
 195 221 204 213 204 201 c 0
 204 200 203 198 203 196 c 0
 200 183 187 172 173 172 c 0
 162 172 153 180 153 191 c 0
 153 193 154 194 154 196 c 0
 157 210 170 221 183 221 c 0
178 196 m 0
 178 196 l 0
 178 196 l 0
 178 196 l 0
 178 196 l 0
331 40 m 0
 343 40 351 32 351 21 c 0
 351 19 350 17 350 15 c 0
 347 2 334 -9 320 -9 c 0
 309 -9 300 -1 300 10 c 0
 300 12 301 13 301 15 c 0
 304 29 318 40 331 40 c 0
325 15 m 0
 325 15 l 0
 325 15 l 0
 325 15 l 0
 325 15 l 0
404 390 m 0
 416 390 425 382 425 371 c 0
 425 369 424 368 424 366 c 0
 421 352 407 341 393 341 c 0
 382 341 374 349 374 360 c 0
 374 362 375 364 375 366 c 0
 378 379 391 390 404 390 c 0
399 366 m 0
 399 366 l 0
 399 366 l 0
 399 366 l 0
 399 366 l 0
EndSplineSet
MinimumDistance: x93,-1 
EndChar
StartChar: uni0E3F
Encoding: 223 3647 189
OldEncoding: 3647
Width: 422
Flags: HW
HStem: -11 80 174 80 348 80
VStem: 42 95 298 106
Fore
235 267 m 1
 263 399 l 1
 217 399 l 1
 189 267 l 1
 235 267 l 1
192 65 m 1
 222 208 l 1
 176 208 l 1
 146 65 l 1
 192 65 l 1
285 207 m 0
 255 66 l 0
 269 67 283 70 297 78 c 0
 317 91 332 115 338 139 c 0
 339 143 339 148 339 152 c 0
 339 170 332 187 319 197 c 0
 310 204 298 206 285 207 c 0
326 399 m 0
 298 268 l 0
 310 269 323 273 335 281 c 0
 353 294 366 315 370 336 c 0
 371 342 372 347 372 353 c 0
 372 368 367 382 354 391 c 0
 347 396 337 398 326 399 c 0
291 533 m 1
 354 533 l 1
 339 459 l 1
 370 459 403 459 427 440 c 0
 446 424 456 401 456 374 c 0
 456 365 455 355 453 345 c 0
 443 298 403 256 349 241 c 1
 347 235 l 1
 393 224 420 189 420 145 c 0
 420 136 419 128 417 119 c 0
 409 82 382 49 350 26 c 0
 317 3 279 2 241 2 c 1
 224 -79 l 1
 161 -79 l 1
 178 2 l 1
 54 2 l 1
 152 459 l 1
 276 459 l 1
 291 533 l 1
EndSplineSet
MinimumDistance: x10,-1 y1,19 y1,0 y3,1 y2,4 x4,2 x4,3 
EndChar
StartChar: uni0E40
Encoding: 224 3648 190
OldEncoding: 3648
Width: 235
Flags: HW
HStem: -1 39 103 39
VStem: 62 78
Fore
226 54 m 0
 226 54 l 0
 213 20 184 1 145 -1 c 0
 139 -1 l 0
 90 -1 75 28 75 60 c 0
 75 68 76 77 78 85 c 2
 142 388 l 1
 219 388 l 1
 166 138 l 1
 166 138 170 139 175 139 c 0
 182 139 193 137 206 131 c 0
 222 123 233 107 233 86 c 0
 233 76 231 66 226 54 c 0
165 94 m 0
 145 94 133 77 133 63 c 0
 133 52 140 43 154 43 c 0
 173 43 185 60 185 75 c 0
 185 85 179 94 165 94 c 0
EndSplineSet
MinimumDistance: x14,-1 
EndChar
StartChar: uni0E41
Encoding: 225 3649 191
OldEncoding: 3649
Width: 424
Flags: HW
HStem: -1 39 103 39
VStem: 59 78 258 78
Fore
415 54 m 0
 415 54 l 0
 402 20 373 1 334 -1 c 0
 328 -1 l 0
 279 -1 264 28 264 60 c 0
 264 68 265 77 267 85 c 2
 331 388 l 1
 408 388 l 1
 355 138 l 1
 355 138 359 139 364 139 c 0
 371 139 382 137 396 131 c 0
 412 123 422 108 422 86 c 0
 422 77 420 66 415 54 c 0
223 54 m 0
 223 54 l 0
 210 20 181 1 142 -1 c 0
 136 -1 l 0
 87 -1 72 28 72 60 c 0
 72 68 73 77 75 85 c 2
 139 388 l 1
 216 388 l 1
 163 138 l 1
 163 138 167 139 172 139 c 0
 179 139 190 137 204 131 c 0
 220 123 230 107 230 86 c 0
 230 77 228 66 223 54 c 0
349 93 m 0
 349 93 l 0
 330 93 318 76 318 61 c 0
 318 51 324 42 338 42 c 0
 357 42 369 59 369 74 c 0
 369 84 363 93 349 93 c 0
166 93 m 0
 147 93 135 76 135 61 c 0
 135 51 141 42 155 42 c 0
 175 42 187 59 187 73 c 0
 187 84 180 93 166 93 c 0
EndSplineSet
MinimumDistance: x1,-1 
EndChar
StartChar: uni0E42
Encoding: 226 3650 192
OldEncoding: 3650
Width: 254
Flags: HW
HStem: -1 39 103 39 636 51
VStem: -27 78 81 78
Fore
454 636 m 1
 454 636 l 0
 453 636 435 615 392 614 c 0
 389 614 l 0
 346 614 302 646 256 646 c 0
 247 646 237 645 228 642 c 0
 196 632 184 603 184 603 c 1
 185 603 226 594 246 576 c 0
 262 562 267 550 267 536 c 0
 267 527 265 516 262 504 c 2
 184 138 l 1
 184 138 188 139 193 139 c 0
 200 139 212 137 225 131 c 0
 241 123 252 107 252 85 c 0
 252 76 250 65 245 54 c 0
 231 20 203 1 163 -1 c 0
 157 -1 l 0
 108 -1 94 28 94 59 c 0
 94 68 95 77 97 85 c 2
 186 504 l 2
 187 510 188 517 188 522 c 0
 188 534 185 543 175 549 c 0
 147 566 111 567 99 567 c 0
 97 567 95 567 95 567 c 1
 95 570 111 649 192 680 c 0
 217 690 238 694 256 694 c 0
 302 694 334 670 391 666 c 0
 392 666 394 666 395 666 c 0
 426 666 438 687 442 689 c 1
 454 636 l 1
184 93 m 0
 165 93 153 76 153 61 c 0
 153 51 159 42 173 42 c 0
 192 42 204 59 204 74 c 0
 204 84 198 93 184 93 c 0
EndSplineSet
MinimumDistance: x5,-1 
EndChar
StartChar: uni0E43
Encoding: 227 3651 193
OldEncoding: 3651
Width: 295
Flags: HW
HStem: -1 39 103 39 583 39
VStem: 127 78
Fore
288 54 m 0
 288 54 l 0
 275 20 246 1 207 -1 c 0
 201 -1 l 0
 152 -1 137 28 137 60 c 0
 137 68 138 77 140 85 c 2
 215 437 l 2
 222 469 232 489 251 512 c 0
 271 537 288 577 288 609 c 0
 288 632 279 650 254 655 c 0
 246 656 239 657 233 657 c 0
 175 657 155 608 155 606 c 1
 156 606 162 608 171 608 c 0
 181 608 194 606 208 598 c 0
 219 592 223 577 223 560 c 0
 223 531 210 497 187 483 c 0
 174 475 161 472 150 472 c 0
 114 472 88 505 88 540 c 0
 88 543 89 546 89 549 c 0
 98 634 156 697 243 701 c 0
 246 701 249 701 253 701 c 0
 305 701 342 678 350 636 c 0
 352 629 353 621 353 614 c 0
 353 582 337 548 322 523 c 0
 304 491 300 473 293 442 c 2
 228 138 l 1
 228 138 232 139 237 139 c 0
 244 139 255 137 269 131 c 0
 285 123 295 107 295 86 c 0
 295 77 293 66 288 54 c 0
158 506 m 0
 158 506 l 0
 177 506 188 528 188 547 c 0
 188 562 182 575 167 575 c 0
 148 575 137 553 137 534 c 0
 137 519 143 506 158 506 c 0
229 93 m 0
 209 93 197 76 197 62 c 0
 197 51 204 42 218 42 c 0
 237 42 249 59 249 74 c 0
 249 84 243 93 229 93 c 0
EndSplineSet
MinimumDistance: x29,-1 
EndChar
StartChar: uni0E44
Encoding: 228 3652 194
OldEncoding: 3652
Width: 299
Flags: HW
HStem: -1 39 103 39 532 192
VStem: 122 78
Fore
284 54 m 0
 284 54 l 0
 270 20 242 1 202 -1 c 0
 196 -1 l 0
 147 -1 132 28 132 60 c 0
 132 68 133 77 135 85 c 1
 216 463 l 1
 222 490 233 506 250 532 c 0
 266 556 284 586 284 602 c 0
 284 607 282 611 278 613 c 0
 276 614 273 615 271 615 c 0
 259 615 246 597 226 573 c 0
 207 553 184 516 164 516 c 0
 163 516 163 516 162 516 c 0
 134 518 144 562 124 611 c 0
 121 619 114 621 108 621 c 0
 104 621 101 620 100 620 c 1
 133 702 l 1
 134 702 136 702 139 702 c 0
 147 702 163 700 172 683 c 0
 185 659 176 611 191 609 c 0
 192 609 l 0
 216 609 253 693 308 693 c 0
 312 693 317 692 321 691 c 0
 347 684 360 670 360 645 c 0
 360 637 359 628 356 617 c 0
 345 575 325 549 308 510 c 0
 299 487 296 480 292 462 c 2
 223 138 l 1
 223 138 227 139 232 139 c 0
 239 139 250 137 264 131 c 0
 280 123 291 107 291 85 c 0
 291 76 289 65 284 54 c 0
223 94 m 0
 203 94 191 77 191 63 c 0
 191 52 198 43 212 43 c 0
 231 43 243 60 243 75 c 0
 243 85 237 94 223 94 c 0
EndSplineSet
MinimumDistance: x14,-1 
EndChar
StartChar: uni0E45
Encoding: 229 3653 195
OldEncoding: 3653
Width: 201
Flags: HW
HStem: 351 51
VStem: 8 59 235 78
Fore
2 291 m 1
 -51 310 l 1
 -51 311 -27 388 101 388 c 0
 187 388 212 340 212 286 c 0
 212 271 210 255 207 240 c 2
 129 -125 l 1
 52 -125 l 1
 129 233 l 2
 132 246 134 259 134 272 c 0
 134 303 122 329 80 329 c 0
 19 328 2 292 2 291 c 1
EndSplineSet
MinimumDistance: x7,-1 
EndChar
StartChar: uni0E46
Encoding: 230 3654 196
OldEncoding: 3654
Width: 441
Flags: HW
HStem: 351 51
VStem: 429 78
Fore
405 55 m 1
 405 55 l 0
 390 -12 383 -68 330 -112 c 0
 283 -151 243 -154 242 -154 c 1
 205 -101 l 1
 208 -101 255 -90 278 -71 c 0
 304 -49 310 -27 316 1 c 2
 376 281 l 2
 378 290 379 298 379 305 c 0
 379 310 379 315 376 320 c 0
 369 334 359 339 358 339 c 2
 293 302 l 1
 246 336 l 2
 245 336 227 330 218 312 c 0
 212 298 211 290 211 286 c 0
 211 283 211 282 211 281 c 1
 212 281 221 284 232 284 c 0
 245 284 260 280 270 263 c 0
 273 257 275 250 275 243 c 0
 275 214 250 176 210 172 c 0
 206 172 202 171 198 171 c 0
 153 171 134 205 134 244 c 0
 134 265 140 288 149 308 c 0
 170 353 208 383 256 390 c 1
 304 355 l 1
 372 390 l 1
 376 390 412 390 434 369 c 0
 453 351 458 333 458 316 c 0
 458 303 455 291 453 283 c 2
 405 55 l 1
218 251 m 0
 204 251 195 238 195 228 c 0
 195 220 199 213 210 213 c 0
 224 213 233 226 233 236 c 0
 233 244 229 251 218 251 c 0
EndSplineSet
MinimumDistance: x4,-1 
EndChar
StartChar: uni0E47
Encoding: 231 3655 197
OldEncoding: 3655
Width: 0
Flags: HW
HStem: 453 39 549 39
VStem: -269 95
Fore
136 713 m 1
 136 713 l 1
 136 713 119 619 42 607 c 0
 30 605 19 604 9 604 c 0
 -27 604 -53 614 -91 614 c 0
 -103 614 l 0
 -138 611 -159 581 -165 551 c 0
 -166 547 -166 543 -166 540 c 0
 -166 520 -153 513 -152 513 c 1
 -152 515 -142 548 -113 555 c 0
 -110 556 -107 556 -105 556 c 0
 -78 556 -58 525 -58 525 c 1
 -58 525 -41 566 2 566 c 0
 3 566 3 566 4 566 c 0
 31 565 46 547 46 520 c 0
 46 511 45 502 42 492 c 0
 32 460 6 441 -22 440 c 0
 -25 440 l 0
 -73 440 -81 495 -109 495 c 0
 -110 495 l 0
 -142 493 -144 440 -145 439 c 1
 -186 440 -220 459 -227 499 c 0
 -228 505 -228 511 -228 517 c 0
 -228 573 -196 636 -136 654 c 0
 -120 659 -104 660 -87 660 c 0
 -58 660 -29 656 -2 656 c 0
 11 656 24 657 35 660 c 0
 62 667 63 692 71 713 c 1
 136 713 l 1
-4 527 m 0
 -5 527 l 0
 -19 527 -30 510 -30 497 c 0
 -30 488 -25 481 -13 481 c 0
 2 481 11 496 11 509 c 0
 11 518 6 527 -4 527 c 0
EndSplineSet
EndChar
StartChar: uni0E48
Encoding: 232 3656 198
OldEncoding: 3656
Width: 0
Flags: HW
HStem: 668 137
VStem: -135 78
Fore
7 647 m 1
 35 779 l 1
 107 779 l 1
 79 647 l 1
 7 647 l 1
EndSplineSet
MinimumDistance: x2,-1 
EndChar
StartChar: uni0E49
Encoding: 233 3657 199
OldEncoding: 3657
Width: 0
Flags: HW
HStem: 791 38
Fore
-73 666 m 0
 -73 666 l 0
 -57 683 -53 690 -53 690 c 1
 -69 690 -92 699 -97 720 c 0
 -98 724 -98 728 -98 732 c 0
 -98 764 -70 803 -29 805 c 0
 -26 805 l 0
 9 805 30 787 30 758 c 0
 30 757 30 755 30 754 c 0
 28 717 2 688 -11 680 c 1
 8 682 27 688 49 698 c 0
 76 709 90 719 108 733 c 0
 144 761 168 797 168 797 c 1
 150 710 l 1
 150 710 107 674 44 655 c 0
 3 643 -47 638 -82 638 c 0
 -93 638 -103 638 -110 639 c 1
 -110 639 -90 649 -73 666 c 0
-42 721 m 0
 -23 721 -11 738 -11 752 c 0
 -11 763 -18 773 -33 773 c 0
 -52 773 -63 756 -63 742 c 0
 -63 731 -57 721 -42 721 c 0
EndSplineSet
MinimumDistance: x2,-1 
EndChar
StartChar: uni0E4A
Encoding: 234 3658 200
OldEncoding: 3658
Width: 0
Flags: HW
HStem: 734 19 797 39
VStem: -9 59
Fore
-60 752 m 0
 -60 752 l 0
 -67 741 -68 731 -68 729 c 1
 -67 729 -57 733 -45 733 c 0
 -39 733 -32 732 -26 729 c 0
 -16 724 -12 713 -12 701 c 0
 -12 685 -20 667 -33 657 c 0
 -44 648 -56 645 -68 645 c 0
 -89 645 -108 658 -113 678 c 0
 -114 683 -115 689 -115 696 c 0
 -115 739 -87 800 -43 808 c 0
 -38 809 -34 809 -30 809 c 0
 -1 809 11 787 12 787 c 0
 13 787 40 810 68 810 c 0
 91 810 112 795 112 764 c 0
 112 761 111 758 111 754 c 0
 109 723 88 697 88 697 c 1
 91 698 115 709 135 736 c 0
 155 762 165 794 167 806 c 1
 215 779 l 1
 215 779 185 710 119 676 c 0
 76 655 19 647 3 647 c 1
 6 648 40 667 56 709 c 0
 61 721 63 733 63 743 c 0
 63 758 58 768 43 768 c 0
 28 768 3 751 3 751 c 2
 2 751 -13 769 -35 769 c 0
 -47 769 -54 761 -60 752 c 0
-65 668 m 0
 -48 668 -38 682 -38 694 c 0
 -38 703 -44 711 -56 711 c 0
 -73 711 -83 697 -83 685 c 0
 -83 676 -77 668 -65 668 c 0
EndSplineSet
MinimumDistance: x6,-1 
EndChar
StartChar: uni0E4B
Encoding: 235 3659 201
OldEncoding: 3659
Width: 0
Flags: HW
HStem: 716 39
VStem: -136 78
Fore
38 800 m 1
 112 800 l 1
 99 739 l 1
 165 739 l 1
 156 694 l 1
 90 694 l 1
 78 642 l 1
 4 642 l 1
 16 694 l 1
 -50 694 l 1
 -41 739 l 1
 25 739 l 1
 38 800 l 1
EndSplineSet
MinimumDistance: y7,5 y7,6 y10,0 y10,11 x4,2 x4,3 x10,8 x10,9 
EndChar
StartChar: uni0E4C
Encoding: 236 3660 202
OldEncoding: 3660
Width: 0
Flags: HW
HStem: 678 19
VStem: -3 59
Fore
102 702 m 0
 102 702 l 0
 69 699 63 684 63 684 c 1
 65 684 112 684 112 640 c 0
 112 636 111 631 110 625 c 0
 103 594 70 576 42 576 c 0
 24 576 8 583 -0 597 c 0
 -5 605 -8 615 -8 626 c 0
 -8 657 11 693 41 711 c 0
 82 736 112 728 145 750 c 0
 163 760 169 789 169 792 c 1
 222 792 l 1
 222 789 210 751 190 734 c 1
 170 718 148 706 102 702 c 0
50 603 m 0
 71 603 84 622 84 637 c 0
 84 648 77 658 62 658 c 0
 42 658 29 639 29 624 c 0
 29 613 35 603 50 603 c 0
EndSplineSet
MinimumDistance: x8,-1 
EndChar
StartChar: uni0E4D
Encoding: 237 3661 203
OldEncoding: 3661
Width: 0
Flags: HW
Fore
2 617 m 0
 2 617 l 0
 48 617 69 588 69 554 c 0
 69 508 31 454 -32 454 c 0
 -78 454 -99 483 -99 517 c 0
 -99 563 -61 617 2 617 c 0
-23 497 m 0
 6 497 23 522 23 543 c 0
 23 559 14 572 -7 572 c 0
 -36 572 -53 547 -53 526 c 0
 -53 510 -44 497 -23 497 c 0
EndSplineSet
EndChar
StartChar: uni0E4E
Encoding: 238 3662 204
OldEncoding: 3662
Width: 0
Flags: HW
HStem: 477 27 673 22
VStem: -198 56
Fore
-9 604 m 1
 -17 611 -20 619 -20 630 c 0
 -20 633 -20 637 -19 641 c 2
 -19 642 l 1
 3 692 68 703 112 704 c 0
 118 704 l 0
 141 704 154 699 173 689 c 1
 128 659 l 1
 125 659 l 2
 124 659 119 659 112 661 c 0
 109 662 105 663 99 664 c 0
 82 664 55 656 48 635 c 0
 48 634 48 633 48 633 c 0
 48 628 50 624 55 621 c 0
 62 617 72 614 83 614 c 2
 97 614 l 1
 69 573 l 1
 63 573 l 2
 40 573 -13 565 -20 532 c 0
 -20 531 -20 529 -20 528 c 0
 -20 518 -11 513 0 513 c 0
 19 513 27 517 42 530 c 1
 72 500 l 1
 37 475 9 468 -30 468 c 0
 -65 468 -97 479 -97 513 c 0
 -97 517 -96 522 -95 527 c 0
 -86 567 -46 596 -9 604 c 1
EndSplineSet
MinimumDistance: x10,-1 
EndChar
StartChar: uni0E4F
Encoding: 239 3663 205
OldEncoding: 3663
Width: 389
Flags: HW
HStem: 0 33
Fore
263 330 m 0
 263 330 l 0
 356 330 397 271 397 203 c 0
 397 110 320 0 193 0 c 0
 101 0 60 59 60 127 c 0
 60 220 136 330 263 330 c 0
198 22 m 0
 198 22 l 0
 308 22 374 117 374 198 c 0
 374 257 338 308 258 308 c 0
 149 308 83 213 83 132 c 0
 83 73 118 22 198 22 c 0
248 259 m 0
 248 259 l 0
 176 259 132 196 132 143 c 0
 132 104 155 71 208 71 c 0
 281 71 325 134 325 187 c 0
 325 225 301 259 248 259 c 0
245 235 m 0
 285 235 302 210 302 181 c 0
 302 141 269 94 215 94 c 0
 175 94 158 119 158 148 c 0
 158 188 191 235 245 235 c 0
EndSplineSet
MinimumDistance: x0,-1 
EndChar
StartChar: uni0E50
Encoding: 240 3664 206
OldEncoding: 3664
Width: 455
Flags: HW
HStem: -6 51 238 51
VStem: 49 78 329 78
Fore
77 138 m 0
 77 138 l 0
 96 224 170 280 281 280 c 0
 376 280 428 238 428 171 c 0
 428 161 427 150 424 138 c 0
 406 51 333 -6 223 -6 c 0
 220 -6 l 0
 122 -5 73 36 73 104 c 0
 73 115 75 126 77 138 c 0
270 230 m 0
 201 230 161 189 150 137 c 0
 148 129 147 121 147 114 c 0
 147 73 173 44 228 44 c 0
 297 44 339 83 350 137 c 0
 352 146 353 154 353 162 c 0
 353 201 328 230 270 230 c 0
EndSplineSet
MinimumDistance: x12,-1 
EndChar
StartChar: uni0E51
Encoding: 241 3665 207
OldEncoding: 3665
Width: 455
Flags: HW
HStem: -2 39 124 39 246 39
VStem: 53 78 338 78
Fore
446 133 m 0
 446 133 l 0
 432 53 371 -13 317 -36 c 1
 282 -4 l 1
 284 -3 354 12 372 133 c 0
 373 141 374 148 374 156 c 0
 374 197 353 231 290 232 c 0
 225 232 179 189 163 133 c 0
 160 122 158 111 158 99 c 0
 158 69 170 40 204 40 c 0
 204 40 205 40 206 40 c 0
 222 41 221 44 233 50 c 1
 211 53 198 70 198 91 c 0
 198 95 198 99 199 103 c 0
 205 133 232 158 268 158 c 0
 269 158 271 158 272 158 c 0
 305 157 317 137 317 112 c 0
 317 103 315 92 312 82 c 0
 300 44 254 -2 189 -2 c 0
 186 -2 184 -2 181 -2 c 0
 124 1 89 33 89 91 c 0
 89 104 90 119 94 134 c 0
 114 216 182 276 300 276 c 0
 407 276 449 228 449 164 c 0
 449 154 448 144 446 133 c 0
260 123 m 0
 244 123 235 109 235 98 c 0
 235 89 240 82 251 82 c 0
 267 82 277 96 277 107 c 0
 277 116 272 123 260 123 c 0
EndSplineSet
MinimumDistance: x6,-1 
EndChar
StartChar: uni0E52
Encoding: 242 3666 208
OldEncoding: 3666
Width: 455
Flags: HW
HStem: 0 51 245 39
VStem: 87 78 197 59 373 78
Fore
454 94 m 1
 454 94 l 0
 449 71 442 48 421 28 c 0
 401 9 379 0 352 0 c 2
 174 0 l 2
 147 0 128 6 112 24 c 0
 102 36 98 51 98 67 c 0
 98 76 99 85 101 95 c 2
 137 263 l 2
 139 272 141 282 141 293 c 0
 141 303 139 313 132 321 c 0
 117 341 88 342 79 342 c 0
 77 342 76 342 76 342 c 1
 130 399 l 1
 158 398 178 386 196 369 c 0
 213 353 219 333 219 311 c 0
 219 296 217 281 213 264 c 2
 181 113 l 2
 178 101 174 91 174 82 c 0
 174 78 175 74 177 70 c 0
 182 58 194 50 208 50 c 2
 316 50 l 2
 331 50 343 51 359 63 c 0
 369 71 375 83 377 96 c 2
 398 193 l 2
 399 199 401 207 401 213 c 0
 401 223 398 230 390 230 c 0
 377 230 363 215 361 203 c 1
 334 203 l 1
 335 205 335 207 335 209 c 0
 335 220 327 229 315 229 c 0
 300 229 293 216 289 205 c 0
 282 188 282 176 282 175 c 1
 288 177 294 178 300 178 c 0
 310 178 321 175 330 168 c 0
 337 163 340 154 340 143 c 0
 340 122 326 94 302 85 c 0
 292 81 283 80 275 80 c 0
 243 80 221 105 221 147 c 0
 221 158 223 171 226 184 c 0
 241 241 272 272 315 275 c 0
 321 275 l 0
 352 275 359 253 359 250 c 0
 359 250 l 0
 359 250 l 0
 359 250 l 0
 359 251 378 275 419 275 c 0
 421 275 422 275 424 275 c 0
 460 275 478 251 478 217 c 0
 478 211 478 203 476 196 c 2
 454 94 l 1
292 146 m 0
 279 146 272 135 272 125 c 0
 272 118 276 112 285 112 c 0
 298 112 306 123 306 133 c 0
 306 140 302 146 292 146 c 0
EndSplineSet
MinimumDistance: x4,-1 
EndChar
StartChar: uni0E53
Encoding: 243 3667 209
OldEncoding: 3667
Width: 455
Flags: HW
HStem: -2 20 234 51
VStem: 64 78 228 59 360 78
Fore
453 132 m 0
 453 132 l 0
 434 41 406 3 404 0 c 1
 328 0 l 1
 334 8 358 49 375 127 c 0
 379 142 381 160 381 176 c 0
 381 199 375 218 356 219 c 0
 355 219 l 0
 331 219 318 189 313 167 c 2
 278 0 l 1
 213 0 l 1
 248 167 l 2
 249 172 250 178 250 184 c 0
 250 202 242 220 224 220 c 0
 223 220 l 0
 195 220 181 190 172 156 c 0
 165 130 164 114 164 109 c 0
 164 108 164 107 164 107 c 1
 164 107 165 107 166 107 c 0
 174 107 207 105 207 67 c 0
 207 64 207 60 206 56 c 0
 199 17 169 -2 139 -2 c 0
 138 -2 138 -2 137 -2 c 0
 95 -1 81 24 81 63 c 0
 81 84 85 109 91 136 c 0
 109 216 156 276 226 276 c 0
 229 276 l 0
 274 276 285 254 293 222 c 1
 316 254 338 276 383 276 c 0
 386 276 l 0
 438 276 459 239 459 186 c 0
 459 169 457 151 453 132 c 0
155 74 m 0
 139 74 129 60 129 47 c 0
 129 39 134 31 146 31 c 0
 162 31 172 45 172 58 c 0
 172 66 167 74 155 74 c 0
EndSplineSet
MinimumDistance: x4,-1 
EndChar
StartChar: uni0E54
Encoding: 244 3668 210
OldEncoding: 3668
Width: 455
Flags: HW
HStem: -4 20 57 64 169 39
VStem: 52 78 409 59
Fore
518 355 m 1
 518 355 l 0
 509 309 479 258 430 236 c 0
 406 225 383 221 360 221 c 0
 332 221 303 226 270 227 c 0
 268 227 265 227 263 227 c 0
 186 227 150 181 140 127 c 0
 139 119 138 111 138 103 c 0
 138 72 150 41 189 41 c 0
 198 41 209 43 221 47 c 0
 247 54 263 55 264 55 c 0
 261 55 211 74 211 121 c 0
 211 124 211 127 212 131 c 0
 215 154 235 194 281 195 c 0
 282 195 282 195 283 195 c 0
 313 195 326 177 326 154 c 0
 326 150 326 146 325 142 c 0
 317 104 285 95 285 95 c 1
 286 93 286 76 309 68 c 0
 331 60 343 60 362 55 c 0
 385 49 391 35 392 35 c 1
 355 -4 l 1
 355 -4 341 12 302 13 c 0
 301 13 300 13 300 13 c 0
 258 13 209 -4 165 -4 c 0
 146 -4 128 -1 111 8 c 0
 85 21 63 41 63 87 c 0
 63 97 64 108 66 121 c 0
 80 203 134 258 191 271 c 0
 212 276 231 277 249 277 c 0
 285 277 316 271 346 271 c 0
 358 271 370 272 382 275 c 0
 434 288 452 340 465 388 c 1
 518 355 l 1
275 158 m 0
 261 158 253 146 253 135 c 0
 253 127 257 121 267 121 c 0
 281 121 290 133 290 144 c 0
 290 151 286 158 275 158 c 0
EndSplineSet
MinimumDistance: x10,-1 
EndChar
StartChar: uni0E55
Encoding: 245 3669 211
OldEncoding: 3669
Width: 455
Flags: HW
HStem: -6 20 58 64 170 39 240 39 365 39
VStem: 52 78
Fore
524 361 m 1
 524 361 l 0
 523 359 508 313 476 287 c 0
 437 255 395 248 364 248 c 0
 336 248 317 254 316 254 c 1
 316 254 302 235 253 233 c 0
 165 230 133 185 124 128 c 0
 123 120 122 111 122 102 c 0
 122 71 133 42 172 42 c 0
 181 42 192 43 204 47 c 0
 229 54 241 56 242 56 c 0
 239 56 193 74 193 120 c 0
 193 124 193 127 194 131 c 0
 198 154 216 194 263 195 c 0
 264 195 264 195 265 195 c 0
 296 195 308 178 308 156 c 0
 308 151 308 147 307 142 c 0
 300 104 267 95 267 95 c 1
 268 93 269 76 291 68 c 0
 313 60 325 60 344 56 c 0
 371 51 375 36 376 36 c 1
 337 -3 l 1
 337 -3 313 12 284 13 c 0
 241 13 191 -5 145 -5 c 0
 127 -5 109 -2 92 6 c 0
 66 19 44 41 44 87 c 0
 44 97 46 109 48 122 c 0
 62 200 102 247 158 265 c 0
 195 276 224 277 234 277 c 0
 237 277 l 1
 237 277 223 288 223 310 c 0
 223 319 226 330 232 343 c 0
 249 378 282 392 315 392 c 0
 318 392 l 0
 352 391 374 375 376 347 c 0
 376 345 376 342 376 340 c 0
 376 313 361 299 361 299 c 1
 362 299 368 298 377 298 c 0
 392 298 415 301 433 320 c 0
 460 347 468 392 468 392 c 1
 524 361 l 1
292 292 m 0
 292 292 l 0
 317 292 332 313 332 332 c 0
 332 345 324 356 306 356 c 0
 282 356 267 334 267 316 c 0
 267 303 274 292 292 292 c 0
258 159 m 0
 244 159 235 147 235 136 c 0
 235 129 239 122 250 122 c 0
 264 122 272 134 272 145 c 0
 272 153 268 159 258 159 c 0
EndSplineSet
MinimumDistance: x21,-1 
EndChar
StartChar: uni0E56
Encoding: 246 3670 212
OldEncoding: 3670
Width: 455
Flags: HW
HStem: -2 80 132 39 248 39
Fore
444 81 m 0
 444 81 l 0
 403 17 346 -2 277 -2 c 0
 271 -2 l 0
 211 -1 149 20 149 78 c 0
 149 81 150 84 150 87 c 0
 154 121 180 159 230 159 c 0
 231 159 231 159 232 159 c 0
 264 159 278 139 278 114 c 0
 278 109 277 103 276 97 c 0
 267 63 241 51 241 51 c 1
 243 50 260 42 285 42 c 0
 302 42 321 45 342 57 c 0
 380 78 397 131 397 168 c 0
 397 171 l 0
 395 205 374 237 314 237 c 0
 308 237 l 0
 266 235 229 222 199 191 c 1
 161 191 l 1
 161 191 165 218 165 248 c 0
 165 269 163 291 156 307 c 0
 131 359 100 363 100 363 c 1
 171 404 l 1
 173 404 203 384 216 337 c 0
 221 317 223 299 223 284 c 0
 223 264 220 251 220 250 c 1
 223 252 255 279 334 279 c 0
 341 279 349 279 357 278 c 0
 444 273 471 223 471 172 c 0
 471 138 458 103 444 81 c 0
219 123 m 0
 202 123 192 109 192 97 c 0
 192 89 198 81 210 81 c 0
 226 81 236 95 236 107 c 0
 236 116 231 123 219 123 c 0
EndSplineSet
MinimumDistance: x14,-1 
EndChar
StartChar: uni0E57
Encoding: 247 3671 213
OldEncoding: 3671
Width: 455
Flags: HW
HStem: -3 20 82 19 246 39
VStem: 55 78 214 36
Fore
561 372 m 1
 561 372 l 1
 561 372 531 362 513 306 c 0
 488 224 483 165 433 98 c 0
 371 15 301 -2 216 -2 c 1
 216 -1 251 29 285 118 c 0
 292 135 299 165 299 189 c 0
 299 212 292 231 273 231 c 0
 241 230 223 178 222 176 c 1
 187 176 l 1
 187 177 188 182 188 189 c 0
 188 205 184 230 157 231 c 0
 156 231 l 0
 130 231 109 197 101 169 c 0
 94 144 92 127 92 116 c 0
 92 105 94 100 94 99 c 1
 95 99 111 109 131 109 c 0
 139 109 148 108 157 103 c 0
 169 96 175 83 175 68 c 0
 175 39 154 4 113 -2 c 0
 108 -3 103 -3 98 -3 c 0
 46 -3 22 39 22 98 c 0
 22 111 23 124 25 137 c 0
 36 204 81 272 151 275 c 0
 157 275 l 0
 212 275 217 234 217 231 c 1
 217 231 238 274 285 276 c 0
 288 276 290 276 293 276 c 0
 346 276 366 242 366 201 c 0
 366 196 366 191 365 185 c 0
 355 95 316 66 316 66 c 1
 319 68 357 68 392 137 c 0
 425 202 427 243 447 314 c 0
 469 389 510 407 511 409 c 1
 561 372 l 1
120 74 m 0
 104 74 95 60 95 49 c 0
 95 40 100 33 111 33 c 0
 126 33 136 47 136 59 c 0
 136 67 131 74 120 74 c 0
EndSplineSet
MinimumDistance: x2,-1 
EndChar
StartChar: uni0E58
Encoding: 248 3672 214
OldEncoding: 3672
Width: 455
Flags: HW
HStem: -3 20
VStem: 414 59
Fore
537 365 m 1
 537 365 l 1
 537 365 505 260 421 233 c 0
 400 226 379 224 358 224 c 0
 327 224 297 229 270 229 c 0
 253 229 238 227 223 222 c 0
 185 209 163 174 153 128 c 0
 150 115 149 104 149 95 c 0
 149 65 162 59 162 59 c 1
 162 61 175 112 214 115 c 0
 220 115 l 0
 258 115 264 75 314 46 c 0
 320 42 326 41 331 41 c 0
 348 41 357 57 359 57 c 0
 357 57 318 67 318 102 c 0
 318 105 318 108 319 111 c 0
 323 141 354 174 392 174 c 0
 399 174 407 173 415 170 c 0
 438 161 446 142 446 121 c 0
 446 96 433 66 415 46 c 0
 390 16 355 -2 321 -2 c 0
 312 -2 303 -0 295 2 c 0
 249 15 243 54 217 54 c 0
 215 54 213 53 211 53 c 0
 185 49 181 1 181 0 c 1
 180 0 170 -3 157 -3 c 0
 133 -3 98 5 79 49 c 0
 75 60 72 74 72 89 c 0
 72 151 109 240 187 266 c 0
 211 274 232 276 251 276 c 0
 279 276 304 271 334 271 c 0
 347 271 361 272 377 275 c 0
 459 288 481 406 482 407 c 1
 537 365 l 1
387 139 m 0
 370 139 360 124 360 111 c 0
 360 102 365 94 377 94 c 0
 394 94 404 109 404 122 c 0
 404 131 399 139 387 139 c 0
EndSplineSet
MinimumDistance: x6,-1 
EndChar
StartChar: uni0E59
Encoding: 249 3673 215
OldEncoding: 3673
Width: 455
Flags: HW
HStem: -2 51 128 39
VStem: 53 78 458 59
Fore
550 383 m 1
 550 383 l 1
 550 383 534 244 466 215 c 0
 456 211 447 209 439 209 c 0
 415 209 398 223 384 223 c 0
 379 223 375 222 371 219 c 0
 355 210 345 179 345 150 c 0
 345 142 346 134 348 127 c 0
 364 61 393 48 396 47 c 1
 349 -2 l 1
 349 -2 309 12 295 101 c 0
 285 164 272 235 209 235 c 0
 208 235 206 235 205 235 c 0
 157 233 131 185 122 152 c 0
 117 131 113 112 113 96 c 0
 113 76 118 60 129 50 c 0
 136 44 142 42 148 42 c 0
 156 42 162 47 163 47 c 1
 152 55 146 68 146 82 c 0
 146 91 148 101 152 111 c 0
 163 138 185 154 212 154 c 0
 215 154 l 0
 245 154 256 135 256 111 c 0
 256 99 253 85 248 72 c 0
 232 27 195 -2 145 -2 c 0
 143 -2 142 -2 140 -2 c 0
 80 -0 44 38 44 100 c 0
 44 114 46 130 50 146 c 0
 67 218 126 269 186 276 c 0
 196 277 206 278 214 278 c 0
 305 278 315 209 315 209 c 1
 316 211 319 264 356 275 c 0
 361 276 365 277 369 277 c 0
 394 277 414 260 434 260 c 0
 438 260 441 261 445 262 c 0
 466 269 474 310 480 341 c 0
 490 382 490 407 490 409 c 1
 550 383 l 1
218 96 m 0
 219 99 219 102 219 104 c 0
 219 114 213 120 205 120 c 0
 197 120 186 113 183 98 c 0
 182 95 182 93 182 91 c 0
 182 80 189 74 197 74 c 0
 205 74 215 81 218 96 c 0
EndSplineSet
MinimumDistance: x13,-1 
EndChar
StartChar: uni0E5A
Encoding: 250 3674 216
OldEncoding: 3674
Width: 520
Flags: HW
HStem: 221 49 372 29
VStem: 126 34<341.5 349> 251 79<117 121 121 128 128 263 262.5 263> 425 74
Fore
178 372 m 0
 178 372 l 0
 169 372 163 370 156 364 c 0
 151 359 148 353 145 345 c 0
 145 343 145 342 145 340 c 0
 145 335 146 330 148 326 c 0
 152 321 158 319 167 318 c 0
 175 318 182 321 188 326 c 0
 195 332 198 338 199 345 c 0
 200 348 200 350 200 352 c 0
 200 357 199 361 196 364 c 0
 193 369 187 372 178 372 c 0
540 322 m 0
 536 301 498 115 486 76 c 0
 475 36 451 17 421 2 c 0
 395 -11 367 -12 361 -12 c 0
 360 -12 360 -12 360 -12 c 1
 342 42 l 1
 342 42 343 42 344 42 c 0
 352 42 379 43 397 62 c 0
 415 80 422 119 422 119 c 1
 438 193 456 270 464 312 c 0
 464 314 464 315 464 317 c 0
 464 330 453 337 436 337 c 0
 421 337 407 324 397 316 c 1
 356 121 l 2
 350 93 342 71 334 55 c 0
 326 40 311 25 288 14 c 0
 262 2 236 -3 209 -4 c 1
 186 52 l 1
 219 52 244 59 260 74 c 0
 266 80 271 90 274 105 c 0
 275 108 276 112 276 117 c 1
 278 128 l 1
 307 263 l 2
 307 262 302 258 292 250 c 1
 283 244 270 237 254 231 c 0
 239 225 219 221 197 221 c 0
 195 221 194 221 192 221 c 0
 161 221 135 231 115 245 c 0
 95 260 86 279 86 304 c 0
 86 307 86 309 86 312 c 1
 92 338 102 359 119 375 c 0
 134 391 154 400 179 401 c 0
 180 401 182 401 183 401 c 0
 202 401 216 394 225 384 c 0
 231 376 235 367 235 356 c 0
 235 352 234 348 233 343 c 0
 232 339 231 334 228 327 c 0
 220 310 209 299 194 294 c 0
 180 289 168 287 159 286 c 1
 160 284 164 281 171 276 c 0
 177 272 185 270 198 270 c 0
 202 270 208 270 219 272 c 0
 241 276 257 282 269 291 c 0
 281 300 289 306 301 322 c 0
 311 333 317 343 324 361 c 0
 330 376 330 375 335 388 c 1
 342 400 356 405 369 405 c 0
 386 405 403 396 403 382 c 0
 403 381 403 381 403 380 c 1
 443 400 444 401 472 404 c 1
 533 402 546 375 546 352 c 0
 546 338 541 325 540 322 c 0
EndSplineSet
MinimumDistance: x3,-1 
EndChar
StartChar: uni0E5B
Encoding: 251 3675 217
OldEncoding: 3675
Width: 724
Flags: HW
HStem: 4 41 68 36 325 41
VStem: 38 44
Fore
208 163 m 0
 208 163 l 0
 232 179 247 213 253 238 c 0
 255 247 256 255 256 263 c 0
 256 293 241 315 205 315 c 0
 188 315 168 306 145 281 c 0
 123 258 108 229 100 195 c 0
 98 183 97 172 97 162 c 0
 97 141 102 123 111 107 c 0
 126 84 145 73 169 73 c 0
 212 73 247 103 271 143 c 0
 303 192 343 288 369 340 c 1
 395 340 l 1
 397 209 l 1
 442 325 l 1
 469 325 l 1
 469 204 l 1
 526 312 l 1
 539 212 l 1
 579 289 l 1
 583 276 606 193 621 193 c 0
 636 193 646 192 655 192 c 0
 658 192 660 192 662 192 c 0
 690 192 711 192 725 192 c 2
 758 192 l 1
 750 153 l 1
 750 153 736 152 703 152 c 0
 681 151 672 151 668 151 c 2
 663 151 l 1
 660 151 l 2
 651 150 642 150 618 150 c 0
 597 150 581 152 571 169 c 2
 570 170 l 2
 570 170 l 0
 570 171 572 172 573 173 c 1
 570 173 567 175 567 177 c 1
 506 62 l 1
 498 168 l 1
 437 58 l 1
 425 166 l 1
 379 47 l 1
 352 47 l 1
 352 201 l 1
 310 119 263 25 158 25 c 0
 81 25 49 86 49 151 c 0
 49 166 51 181 54 196 c 0
 63 242 84 281 114 313 c 0
 145 346 179 363 215 363 c 0
 276 363 303 324 303 273 c 0
 303 262 302 250 299 237 c 0
 289 186 249 112 181 112 c 0
 158 112 141 123 131 142 c 0
 125 155 122 168 122 180 c 0
 122 186 123 191 124 196 c 0
 132 235 160 254 184 254 c 0
 206 254 225 239 225 211 c 0
 225 206 224 201 223 196 c 0
 220 185 216 173 208 163 c 0
161 196 m 0
 160 192 160 188 160 184 c 0
 160 174 163 166 170 166 c 0
 179 166 183 182 186 196 c 0
 187 200 187 204 187 207 c 0
 187 216 184 222 179 222 c 0
 172 222 164 211 161 196 c 0
EndSplineSet
MinimumDistance: x17,-1 
EndChar
StartChar: uni0E38.low
Encoding: 252 63256 218
OldEncoding: 63256
Width: 0
Flags: HW
VStem: -120 63
Fore
-209 -390 m 1
 -192 -311 l 0
 -195 -312 -198 -312 -201 -312 c 0
 -208 -312 -216 -309 -225 -302 c 0
 -235 -294 -240 -283 -240 -270 c 0
 -240 -254 -233 -236 -219 -222 c 0
 -204 -207 -182 -202 -164 -202 c 0
 -156 -202 -148 -203 -143 -205 c 0
 -120 -213 -112 -230 -112 -249 c 0
 -112 -258 -114 -267 -116 -277 c 2
 -140 -390 l 1
 -209 -390 l 1
-188 -274 m 0
 -172 -274 -162 -259 -162 -247 c 0
 -162 -239 -167 -231 -179 -231 c 0
 -196 -231 -206 -245 -206 -258 c 0
 -206 -266 -201 -274 -188 -274 c 0
EndSplineSet
MinimumDistance: x11,-1 
EndChar
StartChar: uni0E39.low
Encoding: 253 63257 219
OldEncoding: 63257
Width: 0
Flags: HW
HStem: -735 46 -589 35
VStem: -125 70
Fore
-222 -326 m 1
 -222 -326 l 1
 -213 -326 l 0
 -214 -326 l 0
 -215 -326 l 0
 -215 -326 -207 -324 -200 -316 c 0
 -194 -310 -190 -299 -190 -296 c 0
 -190 -295 -190 -295 -191 -295 c 0
 -191 -295 l 0
 -191 -296 l 0
 -191 -296 l 0
 -191 -296 -171 -199 -170 -199 c 2
 -94 -199 l 1
 -94 -199 -122 -325 -122 -326 c 0
 -123 -327 -128 -344 -140 -354 c 0
 -153 -365 -163 -374 -178 -374 c 0
 -181 -374 -184 -374 -188 -374 c 0
 -195 -374 -203 -374 -203 -374 c 1
 -313 -375 l 1
 -301 -322 l 1
 -303 -322 -306 -322 -308 -322 c 0
 -336 -322 -357 -312 -357 -280 c 0
 -357 -274 -356 -268 -355 -261 c 0
 -349 -225 -316 -196 -277 -196 c 0
 -276 -196 -274 -196 -273 -196 c 0
 -236 -198 -223 -220 -223 -249 c 0
 -223 -257 -224 -267 -226 -276 c 2
 -236 -326 l 1
 -222 -326 l 1
-299 -280 m 0
 -283 -280 -274 -265 -274 -252 c 0
 -274 -243 -279 -234 -290 -234 c 0
 -291 -234 l 0
 -307 -235 -316 -250 -316 -262 c 0
 -316 -272 -311 -280 -299 -280 c 0
EndSplineSet
MinimumDistance: x27,-1 
EndChar
StartChar: uni0E3A.low
Encoding: 254 63258 220
OldEncoding: 63258
Width: 0
Flags: HW
Fore
-142 -184 m 0
 -112 -184 -98 -203 -98 -226 c 0
 -98 -257 -123 -293 -165 -293 c 0
 -195 -293 -209 -274 -209 -251 c 0
 -209 -220 -184 -184 -142 -184 c 0
EndSplineSet
EndChar
StartChar: DEL
Encoding: 255 63259 221
OldEncoding: 63259
Width: 0
VWidth: 2048
Flags: HW
HStem: 0 10G<-300 0>
VStem: -300 300<0 500>
Fore
-194 500 m 1
 106 500 l 1
 0 0 l 1
 -300 0 l 1
 -194 500 l 1
EndSplineSet
EndChar
StartChar: exclamdown
Encoding: 256 161 222
OldEncoding: 161
Width: 217
VWidth: 2048
Flags: HW
HStem: -130 10G<62 159> 249 89<66 156>
VStem: 62 97<-130 -20>
Fore
228 338 m 1
 209 249 l 1
 119 249 l 1
 138 338 l 1
 228 338 l 1
182 216 m 1
 155 -20 l 1
 131 -130 l 1
 34 -130 l 1
 58 -20 l 1
 131 216 l 1
 182 216 l 1
EndSplineSet
MinimumDistance: x5,-1 
EndChar
StartChar: cent
Encoding: 257 162 223
OldEncoding: 162
Width: 363
VWidth: 2048
Flags: HW
VStem: 27 92<160 185>
DStem: 242 10 323 -11 167 -241 246 -263 409 564 486 530 293 176 367 136 526 951 606 928 452 705 533 686
Fore
292 259 m 1
 193 66 l 1
 207 65 l 2
 208 65 210 65 211 65 c 0
 243 65 268 87 286 130 c 1
 370 115 l 1
 335 33 274 -8 188 -8 c 0
 179 -8 169 -7 157 -5 c 1
 93 -128 l 1
 57 -118 l 1
 119 5 l 1
 77 27 57 64 57 116 c 0
 57 132 59 150 63 170 c 0
 88 288 161 346 282 346 c 1
 287 345 291 345 294 344 c 1
 356 464 l 1
 392 453 l 1
 331 335 l 1
 369 319 389 287 393 238 c 1
 300 223 l 1
 300 229 l 0
 300 241 298 251 292 259 c 1
258 275 m 1
 251 276 l 2
 245 276 l 0
 200 276 170 242 156 175 c 0
 152 158 150 143 150 130 c 0
 150 111 154 96 161 86 c 1
 258 275 l 1
EndSplineSet
MinimumDistance: x16,-1 
EndChar
StartChar: sterling
Encoding: 258 163 224
OldEncoding: 163
Width: 363
VWidth: 2048
Flags: HW
HStem: -7 81<253 265> 198 70<4 54 159 243> 404 72<183 192>
VStem: 41 87<335 353>
Fore
337 91 m 1
 356 15 l 1
 322 0 292 -7 264 -7 c 0
 247 -7 222 -3 191 6 c 0
 160 15 137 20 122 20 c 0
 96 20 67 10 36 -8 c 1
 19 69 l 1
 74 104 105 141 110 180 c 1
 112 198 l 1
 46 198 l 1
 61 269 l 1
 111 269 l 1
 110 278 109 287 109 297 c 0
 109 312 111 329 114 345 c 0
 123 384 145 417 180 441 c 0
 214 464 250 476 291 476 c 0
 371 476 410 440 410 367 c 0
 410 362 410 358 410 353 c 1
 321 340 l 1
 321 342 321 345 321 347 c 0
 321 384 306 404 273 404 c 0
 256 404 241 398 227 387 c 0
 214 375 205 361 201 344 c 0
 198 333 197 321 197 309 c 0
 197 296 198 283 201 269 c 1
 300 269 l 1
 285 198 l 1
 201 198 l 1
 198 184 l 2
 193 155 170 121 128 82 c 1
 142 87 154 90 168 90 c 0
 174 90 l 2
 194 89 l 2
 196 89 204 87 219 83 c 0
 243 76 260 73 269 73 c 0
 286 73 309 79 337 91 c 1
EndSplineSet
MinimumDistance: x22,-1 
EndChar
StartChar: currency
Encoding: 259 164 225
OldEncoding: 164
Width: 363
VWidth: 2048
Flags: HW
HStem: 91 77<178 187> 296 77<178 187>
VStem: 39 77<229 238> 245 77<229 238>
Fore
121 300 m 1
 87 342 l 1
 152 398 l 1
 186 355 l 1
 209 367 233 374 259 374 c 0
 285 374 307 367 325 355 c 1
 377 398 l 1
 419 344 l 1
 368 302 l 1
 372 289 374 275 374 262 c 0
 374 252 373 242 371 232 c 0
 366 207 355 183 339 163 c 1
 373 120 l 1
 307 66 l 1
 273 109 l 1
 247 97 222 91 200 91 c 0
 174 91 153 97 135 109 c 1
 84 67 l 1
 42 121 l 1
 93 163 l 1
 88 176 85 190 85 204 c 0
 85 213 86 223 88 232 c 0
 94 258 105 281 121 300 c 1
165 232 m 0
 164 227 163 222 163 218 c 0
 163 206 167 195 175 186 c 0
 185 174 198 167 216 167 c 0
 234 167 251 174 266 187 c 0
 281 199 290 214 294 232 c 0
 295 237 296 242 296 247 c 0
 296 258 292 269 285 278 c 0
 276 290 262 296 244 296 c 0
 225 296 209 290 194 278 c 0
 178 265 169 250 165 232 c 0
EndSplineSet
MinimumDistance: x10,-1 
EndChar
StartChar: yen
Encoding: 260 165 226
OldEncoding: 165
Width: 363
VWidth: 2048
Flags: HW
HStem: 0 10G<135 224> 87 71<16 135 224 344> 196 70<16 100 260 344> 458 10G<0 99 262 360>
VStem: 135 89<0 86 158 196>
DStem: 1 957 202 957 204 545 332 679 536 957 737 957 403 679 532 545
Fore
153 87 m 1
 34 87 l 1
 50 158 l 1
 169 158 l 1
 177 196 l 1
 58 196 l 1
 73 266 l 1
 157 266 l 1
 99 467 l 1
 198 467 l 1
 233 332 l 2
 237 314 240 299 241 287 c 1
 247 299 256 314 268 332 c 2
 361 467 l 1
 459 467 l 1
 317 266 l 1
 401 266 l 1
 386 196 l 1
 266 196 l 1
 258 158 l 1
 378 158 l 1
 362 87 l 1
 242 87 l 1
 224 0 l 1
 135 0 l 1
 153 87 l 1
EndSplineSet
MinimumDistance: x14,-1 y0,23 y0,24 x19,21 x19,20 x18,16 x18,17 x4,6 x4,5 x0,2 x0,1 
EndChar
StartChar: brokenbar
Encoding: 261 166 227
OldEncoding: 166
Width: 182
VWidth: 2048
Flags: HW
VStem: 56 71<-137 115 224 476>
Fore
104 224 m 1
 157 476 l 1
 228 476 l 1
 175 224 l 1
 104 224 l 1
27 -137 m 1
 80 115 l 1
 151 115 l 1
 98 -137 l 1
 27 -137 l 1
EndSplineSet
MinimumDistance: x2,-1 
EndChar
StartChar: section
Encoding: 262 167 228
OldEncoding: 167
Width: 363
VWidth: 2048
Flags: HW
HStem: -137 68<177 193> 407 68<167 188>
VStem: 19 81<199 217> 45 90<372 378> 232 89<-36 -26> 262 78<140 155>
Fore
392 368 m 1
 303 359 l 1
 304 365 305 370 305 374 c 0
 305 396 291 407 265 407 c 0
 237 407 220 397 216 377 c 0
 216 375 215 373 215 371 c 0
 215 360 223 347 238 333 c 0
 240 331 254 321 279 302 c 0
 315 276 338 256 350 243 c 0
 367 222 375 200 375 177 c 0
 375 170 375 162 373 155 c 0
 365 116 338 82 295 55 c 1
 309 36 318 16 318 -5 c 0
 318 -12 317 -19 315 -26 c 0
 308 -62 288 -91 254 -111 c 0
 226 -128 193 -137 155 -137 c 0
 74 -137 32 -104 32 -37 c 0
 32 -32 32 -27 33 -21 c 1
 122 -11 l 1
 122 -14 l 0
 122 -51 139 -69 172 -69 c 0
 202 -69 220 -56 225 -31 c 0
 225 -29 226 -28 226 -26 c 0
 226 -13 216 1 196 18 c 1
 180 30 164 42 147 54 c 0
 114 78 92 98 81 112 c 0
 66 131 58 153 58 175 c 0
 58 183 59 191 61 199 c 0
 71 245 98 279 142 301 c 1
 129 320 122 338 122 357 c 0
 122 362 123 368 124 373 c 0
 131 406 151 432 182 451 c 0
 208 467 240 476 275 476 c 0
 352 476 392 443 392 378 c 0
 392 374 392 371 392 368 c 1
254 93 m 1
 276 110 289 125 292 140 c 0
 292 142 292 143 292 145 c 0
 292 159 280 176 256 197 c 2
 182 260 l 1
 162 248 150 233 146 217 c 0
 145 214 145 211 145 207 c 0
 145 190 155 172 176 156 c 2
 254 93 l 1
EndSplineSet
MinimumDistance: x10,-1 
EndChar
StartChar: dieresis
Encoding: 263 168 229
OldEncoding: 168
Width: 217
VWidth: 2048
Flags: HW
HStem: 398 77<1 79 139 216>
VStem: 1 77<398 476> 139 77<398 476>
Fore
86 398 m 1
 102 476 l 1
 180 476 l 1
 164 398 l 1
 86 398 l 1
224 398 m 1
 240 476 l 1
 317 476 l 1
 301 398 l 1
 224 398 l 1
EndSplineSet
MinimumDistance: x6,-1 
EndChar
StartChar: copyright
Encoding: 264 169 230
OldEncoding: 169
Width: 480
VWidth: 2048
Flags: HW
HStem: -12 48<231 255> 96 46<238 248> 323 45<238 248> 429 48<231 255>
VStem: -3 48<222 247> 122 56<222 239> 438 48<222 247>
Fore
342 477 m 0
 411 477 463 453 501 406 c 0
 528 372 542 332 542 286 c 0
 542 269 540 251 536 233 c 0
 521 165 485 108 427 60 c 0
 370 12 306 -12 238 -12 c 0
 171 -12 119 12 81 60 c 0
 54 95 41 134 41 178 c 0
 41 196 43 214 47 233 c 0
 61 301 97 359 154 406 c 0
 211 453 274 477 342 477 c 0
332 429 m 0
 277 429 227 410 181 372 c 0
 135 334 106 288 95 233 c 0
 92 217 90 202 90 188 c 0
 90 152 101 121 122 94 c 0
 152 56 195 37 249 37 c 0
 304 37 354 56 400 94 c 0
 446 132 476 179 488 233 c 0
 491 247 492 261 492 275 c 0
 492 312 481 344 459 372 c 0
 429 410 387 429 332 429 c 0
343 196 m 1
 390 179 l 1
 361 124 319 96 265 96 c 0
 226 96 198 109 181 134 c 0
 171 149 166 168 166 190 c 0
 166 203 168 216 171 230 c 0
 180 271 197 304 222 329 c 0
 249 355 284 368 324 368 c 0
 376 368 407 342 414 291 c 1
 359 278 l 1
 354 308 339 323 313 323 c 0
 269 323 240 293 227 232 c 0
 224 218 223 205 223 194 c 0
 223 159 238 142 269 142 c 0
 299 142 324 160 343 196 c 1
EndSplineSet
EndChar
StartChar: ordfeminine
Encoding: 265 170 231
OldEncoding: 170
Width: 241
VWidth: 2048
Flags: HW
HStem: 237 48<89 109> 425 50<111 126>
VStem: 12 66<305 312> 151 65<330 349>
Fore
166 399 m 1
 108 411 l 1
 127 454 163 476 218 476 c 0
 256 476 281 470 292 459 c 0
 299 452 303 440 303 424 c 0
 303 413 301 400 298 385 c 2
 282 309 l 2
 277 288 275 271 275 259 c 0
 275 252 276 246 278 243 c 1
 217 243 l 1
 215 248 214 256 214 265 c 1
 191 246 166 237 139 237 c 0
 96 237 75 253 75 285 c 0
 75 291 75 298 77 306 c 0
 82 331 96 350 121 361 c 0
 133 367 156 374 192 381 c 0
 211 384 224 388 234 392 c 1
 236 398 l 2
 236 400 236 401 236 403 c 0
 236 418 227 425 209 425 c 0
 189 425 176 417 166 399 c 1
225 349 m 1
 215 345 207 343 198 341 c 0
 165 335 147 325 144 311 c 0
 143 308 143 306 143 303 c 0
 143 291 152 285 170 285 c 0
 198 285 215 302 222 336 c 2
 225 349 l 1
EndSplineSet
MinimumDistance: x5,-1 
EndChar
StartChar: guillemotleft
Encoding: 266 171 232
OldEncoding: 171
Width: 363
VWidth: 2048
Flags: HW
Fore
269 313 m 1
 155 169 l 1
 207 22 l 1
 136 22 l 1
 67 169 l 1
 198 313 l 1
 269 313 l 1
394 313 m 1
 280 169 l 1
 332 22 l 1
 261 22 l 1
 192 169 l 1
 323 313 l 1
 394 313 l 1
EndSplineSet
EndChar
StartChar: logicalnot
Encoding: 267 172 233
OldEncoding: 172
Width: 381
VWidth: 2048
Flags: HW
HStem: 261 82<27 272>
VStem: 272 82<120 261>
Fore
298 120 m 1
 327 261 l 1
 82 261 l 1
 100 342 l 1
 427 342 l 1
 380 120 l 1
 298 120 l 1
EndSplineSet
MinimumDistance: x4,-1 y1,5 y1,0 x1,3 x1,2 
EndChar
StartChar: minus
Encoding: 268 173 234
OldEncoding: 173
Width: 217
VWidth: 2048
Flags: HW
HStem: 125 90<21 197>
Fore
48 125 m 1
 66 214 l 1
 242 214 l 1
 224 125 l 1
 48 125 l 1
EndSplineSet
EndChar
StartChar: registered
Encoding: 269 174 235
OldEncoding: 174
Width: 480
VWidth: 2048
Flags: HW
HStem: -12 48<231 256> 320 41<184 224> 429 48<231 256>
VStem: -3 48<222 247> 131 53<102 208 250 320> 285 56<284 289> 438 48<222 247>
Fore
342 477 m 0
 411 477 465 454 501 406 c 0
 528 372 542 332 542 286 c 0
 542 269 540 252 536 233 c 0
 521 165 485 108 427 60 c 0
 370 12 306 -12 238 -12 c 0
 171 -12 119 12 81 60 c 0
 54 95 41 134 41 178 c 0
 41 196 43 214 47 233 c 0
 61 302 97 359 154 406 c 0
 212 454 274 477 342 477 c 0
333 429 m 0
 278 429 228 410 182 372 c 0
 136 334 106 287 95 233 c 0
 92 218 90 204 90 190 c 0
 90 154 101 122 123 94 c 0
 153 55 195 36 250 36 c 0
 305 36 355 55 401 93 c 0
 447 131 476 178 488 233 c 0
 491 248 493 262 493 276 c 0
 493 313 482 344 460 372 c 0
 430 410 388 429 333 429 c 0
153 102 m 1
 208 361 l 1
 344 361 l 2
 365 361 381 354 392 341 c 0
 400 331 404 320 404 307 c 0
 404 301 404 295 402 288 c 0
 394 248 365 223 317 215 c 1
 328 212 337 203 347 186 c 1
 359 154 l 1
 379 102 l 1
 314 102 l 1
 301 144 l 2
 294 166 288 181 283 188 c 0
 273 202 259 208 241 208 c 2
 228 208 l 1
 206 102 l 1
 153 102 l 1
237 250 m 1
 258 250 l 2
 285 250 302 250 310 252 c 0
 329 256 342 267 346 285 c 0
 346 288 347 291 347 293 c 0
 347 297 346 301 344 304 c 1
 342 315 318 320 273 320 c 2
 252 320 l 1
 237 250 l 1
EndSplineSet
EndChar
StartChar: macron
Encoding: 270 175 236
OldEncoding: 175
Width: 360
VWidth: 2048
Flags: HW
HStem: 495 59<-6 366>
Fore
99 495 m 1
 112 553 l 1
 484 553 l 1
 471 495 l 1
 99 495 l 1
EndSplineSet
EndChar
StartChar: degree
Encoding: 271 176 237
OldEncoding: 176
Width: 261
VWidth: 2048
Flags: HW
HStem: 272 53<122 130> 422 53<122 130>
VStem: 27 53<366 375> 178 53<366 375>
Fore
106 374 m 0
 112 402 128 426 152 446 c 0
 176 466 202 476 230 476 c 0
 259 476 281 466 296 446 c 0
 307 432 313 416 313 397 c 0
 313 390 312 382 310 374 c 0
 304 345 289 321 265 301 c 0
 242 282 216 272 187 272 c 0
 158 272 136 282 121 301 c 0
 109 316 104 332 104 351 c 0
 104 359 104 366 106 374 c 0
160 374 m 0
 159 370 159 366 159 363 c 0
 159 354 161 346 167 339 c 0
 174 330 185 325 198 325 c 0
 212 325 224 329 236 339 c 0
 247 348 255 360 257 374 c 0
 258 378 258 381 258 385 c 0
 258 393 256 401 250 408 c 0
 243 418 232 422 219 422 c 0
 206 422 193 418 182 408 c 0
 170 398 163 387 160 374 c 0
EndSplineSet
MinimumDistance: x5,-1 
EndChar
StartChar: plusminus
Encoding: 272 177 238
OldEncoding: 177
Width: 358
VWidth: 2048
Flags: HW
HStem: 0 84<16 343> 235 84<16 138 220 343>
VStem: 138 82<113 235 319 440>
Fore
162 113 m 1
 188 235 l 1
 66 235 l 1
 84 319 l 1
 206 319 l 1
 232 440 l 1
 314 440 l 1
 288 319 l 1
 411 319 l 1
 393 235 l 1
 270 235 l 1
 244 113 l 1
 162 113 l 1
16 0 m 1
 34 84 l 1
 361 84 l 1
 343 0 l 1
 16 0 l 1
EndSplineSet
MinimumDistance: x8,-1 y4,6 y4,5 y1,11 y1,0 x7,9 x7,8 x1,3 x1,2 
EndChar
StartChar: twosuperior
Encoding: 273 178 239
OldEncoding: 178
Width: 217
VWidth: 2048
Flags: HW
HStem: 232 50<102 202> 428 45<102 111>
VStem: 141 61<401 406>
Fore
262 282 m 1
 251 232 l 1
 57 232 l 1
 66 264 101 300 159 339 c 0
 201 367 223 388 226 402 c 0
 227 405 227 407 227 409 c 0
 227 422 218 428 200 428 c 0
 180 428 166 416 158 391 c 1
 98 396 l 1
 114 447 152 473 211 473 c 0
 235 473 254 468 269 458 c 0
 283 448 290 435 290 420 c 0
 290 415 289 410 288 405 c 0
 284 388 276 373 263 359 c 0
 254 349 230 331 193 304 c 2
 162 282 l 1
 262 282 l 1
EndSplineSet
MinimumDistance: x0,-1 
EndChar
StartChar: threesuperior
Encoding: 274 179 240
OldEncoding: 179
Width: 217
VWidth: 2048
Flags: HW
HStem: 228 45<104 115> 339 42<88 109> 428 45<98 110>
VStem: 131 61<404 410> 142 62<301 309>
Fore
77 302 m 1
 136 308 l 1
 136 285 145 273 165 273 c 0
 189 273 203 285 207 308 c 0
 208 312 208 315 208 318 c 0
 208 332 199 339 181 339 c 0
 175 339 165 338 152 335 c 1
 169 381 l 1
 198 381 214 390 218 407 c 0
 218 409 218 410 218 411 c 0
 218 422 211 428 195 428 c 0
 177 428 165 417 157 396 c 1
 102 405 l 1
 122 450 157 473 207 473 c 0
 228 473 245 468 260 458 c 0
 274 448 280 435 280 420 c 0
 280 416 280 412 279 408 c 0
 275 390 262 375 238 362 c 1
 260 353 272 338 272 319 c 0
 272 314 271 310 270 305 c 0
 265 281 250 262 225 248 c 0
 203 235 180 228 155 228 c 0
 103 228 77 251 77 297 c 0
 77 299 77 300 77 302 c 1
EndSplineSet
MinimumDistance: x19,-1 
EndChar
StartChar: acute
Encoding: 275 180 241
OldEncoding: 180
Width: 217
VWidth: 2048
Flags: HW
Fore
141 380 m 1
 205 476 l 1
 305 476 l 1
 197 380 l 1
 141 380 l 1
EndSplineSet
EndChar
StartChar: mu
Encoding: 276 181 242
OldEncoding: 181
Width: 376
VWidth: 2048
Flags: HW
HStem: -130 10G<35 125> -8 72<187 193> 0 10G<260 343> 329 10G<35 125 253 343>
VStem: 35 89<-130 41 167 338> 253 90<167 338>
Fore
107 338 m 1
 197 338 l 1
 164 185 l 2
 159 162 157 142 157 126 c 0
 157 84 172 64 202 64 c 0
 245 64 275 104 292 184 c 2
 325 338 l 1
 415 338 l 1
 343 0 l 1
 260 0 l 1
 269 41 l 1
 245 8 218 -8 190 -8 c 0
 162 -8 143 8 134 41 c 1
 97 -130 l 1
 7 -130 l 1
 107 338 l 1
EndSplineSet
MinimumDistance: x7,-1 
EndChar
StartChar: paragraph
Encoding: 277 182 243
OldEncoding: 182
Width: 363
VWidth: 2048
Flags: HW
HStem: -128 10G<125 203 249 324> 458 10G<169 360>
VStem: 125 78<-128 206> 249 75<-128 384>
Fore
176 -128 m 1
 98 -128 l 1
 169 206 l 1
 131 206 102 218 85 242 c 0
 73 259 67 278 67 302 c 0
 67 312 69 323 71 335 c 0
 77 363 88 387 106 409 c 0
 125 433 148 449 175 457 c 0
 197 464 228 467 268 467 c 2
 459 467 l 1
 442 384 l 1
 406 384 l 1
 297 -128 l 1
 222 -128 l 1
 331 384 l 1
 285 384 l 1
 176 -128 l 1
EndSplineSet
MinimumDistance: x9,-1 y9,11 x11,9 x11,10 
EndChar
StartChar: periodcentered
Encoding: 278 183 244
OldEncoding: 183
Width: 181
VWidth: 2048
Flags: HW
VStem: 47 89<183 272>
Fore
86 183 m 1
 105 272 l 1
 194 272 l 1
 175 183 l 1
 86 183 l 1
EndSplineSet
MinimumDistance: x2,-1 
EndChar
StartChar: cedilla
Encoding: 279 184 245
OldEncoding: 184
Width: 217
VWidth: 2048
Flags: HW
HStem: -134 40<59 84> -38 34<84 104>
VStem: 125 61<-70 -63>
Fore
-15 -128 m 1
 -7 -91 l 1
 12 -93 32 -94 52 -94 c 0
 87 -94 107 -84 111 -64 c 0
 112 -62 112 -60 112 -58 c 0
 112 -45 100 -38 76 -38 c 0
 63 -38 48 -40 34 -44 c 1
 48 -12 l 1
 67 -7 85 -4 103 -4 c 0
 150 -4 174 -19 174 -48 c 0
 174 -53 173 -58 172 -64 c 0
 162 -111 121 -134 46 -134 c 0
 20 -134 -1 -132 -15 -128 c 1
EndSplineSet
MinimumDistance: x10,-1 
EndChar
StartChar: onesuperior
Encoding: 280 185 246
OldEncoding: 185
Width: 217
VWidth: 2048
Flags: HW
VStem: 97 61<232 396>
Fore
207 232 m 1
 146 232 l 1
 181 396 l 1
 159 382 135 372 106 364 c 1
 117 414 l 1
 162 427 192 447 210 473 c 1
 259 473 l 1
 207 232 l 1
EndSplineSet
MinimumDistance: x0,-1 
EndChar
StartChar: ordmasculine
Encoding: 281 186 247
OldEncoding: 186
Width: 238
VWidth: 2048
Flags: HW
HStem: 236 54<111 121> 419 56<111 121>
VStem: 8 67<345 361> 161 69<345 361>
Fore
83 355 m 0
 91 392 107 420 130 442 c 0
 155 464 185 476 220 476 c 0
 255 476 280 464 295 441 c 0
 304 428 308 411 308 391 c 0
 308 380 307 368 304 355 c 0
 297 319 282 290 259 269 c 0
 236 247 205 236 169 236 c 0
 134 236 109 247 94 270 c 0
 85 284 80 302 80 323 c 0
 80 333 81 344 83 355 c 0
151 355 m 0
 149 345 148 336 148 328 c 0
 148 303 159 290 180 290 c 0
 208 290 227 312 236 355 c 0
 238 365 240 375 240 383 c 0
 240 407 228 419 207 419 c 0
 179 419 161 398 151 355 c 0
EndSplineSet
MinimumDistance: x5,-1 
EndChar
StartChar: guillemotright
Encoding: 282 187 248
OldEncoding: 187
Width: 363
VWidth: 2048
Flags: HW
Fore
164 22 m 1
 277 167 l 1
 226 313 l 1
 296 313 l 1
 365 167 l 1
 234 22 l 1
 164 22 l 1
39 22 m 1
 152 167 l 1
 101 313 l 1
 171 313 l 1
 240 167 l 1
 109 22 l 1
 39 22 l 1
EndSplineSet
EndChar
StartChar: onequarter
Encoding: 283 188 249
OldEncoding: 188
Width: 544
VWidth: 2048
Flags: HW
HStem: 33 46<389 447 504 538>
VStem: 98 61<232 396> 447 57<-13 33 80 151>
DStem: 789 969 893 969 222 -35 326 -35 931 467 916 310 681 160 797 163
Fore
207 232 m 1
 147 232 l 1
 182 396 l 1
 159 382 134 371 106 364 c 1
 117 414 l 1
 163 427 193 447 210 473 c 1
 259 473 l 1
 207 232 l 1
155 -17 m 1
 104 -17 l 1
 486 473 l 1
 537 473 l 1
 155 -17 l 1
444 -13 m 1
 454 33 l 1
 340 33 l 1
 350 78 l 1
 503 228 l 1
 552 228 l 1
 521 80 l 1
 555 80 l 1
 545 33 l 1
 511 33 l 1
 501 -13 l 1
 444 -13 l 1
464 80 m 1
 479 151 l 1
 406 80 l 1
 464 80 l 1
EndSplineSet
MinimumDistance: x18,-1 x15,17 y17,15 y17,16 y12,21 y12,11 x17,19 x17,18 y14,12 x12,14 x12,13 
EndChar
StartChar: onehalf
Encoding: 284 189 250
OldEncoding: 189
Width: 544
VWidth: 2048
Flags: HW
HStem: -13 50<428 528> 183 45<428 438>
VStem: 98 61<232 396> 467 61<154 163>
DStem: 789 969 893 969 222 -35 326 -35
Fore
207 232 m 1
 147 232 l 1
 182 396 l 1
 159 382 134 371 106 364 c 1
 117 414 l 1
 163 427 193 447 210 473 c 1
 259 473 l 1
 207 232 l 1
155 -17 m 1
 104 -17 l 1
 486 473 l 1
 537 473 l 1
 155 -17 l 1
536 37 m 1
 525 -13 l 1
 331 -13 l 1
 340 18 374 54 434 94 c 0
 476 122 497 143 500 157 c 0
 501 160 501 162 501 165 c 0
 501 177 492 183 474 183 c 0
 454 183 440 170 432 146 c 1
 373 151 l 1
 390 202 427 228 485 228 c 0
 509 228 528 223 543 212 c 0
 557 203 564 190 564 174 c 0
 564 169 563 164 562 159 c 0
 558 139 546 120 525 102 c 0
 517 94 497 80 467 59 c 0
 454 50 443 43 436 37 c 1
 536 37 l 1
EndSplineSet
MinimumDistance: x11,-1 
EndChar
StartChar: threequarters
Encoding: 285 190 251
OldEncoding: 190
Width: 544
VWidth: 2048
Flags: HW
HStem: 33 46<389 447 504 538> 228 45<104 115> 339 42<88 109> 428 45<98 110>
VStem: 131 61<404 410> 142 62<301 312> 447 57<-13 33 80 151>
DStem: 805 969 908 969 238 -35 342 -35 930 467 916 310 680 160 797 163
Fore
77 302 m 1
 136 308 l 1
 136 285 145 273 165 273 c 0
 189 273 203 285 207 308 c 0
 208 312 208 315 208 318 c 0
 208 332 199 339 181 339 c 0
 175 339 165 338 152 335 c 1
 169 381 l 1
 198 381 214 390 218 407 c 0
 218 409 218 410 218 411 c 0
 218 422 211 428 195 428 c 0
 177 428 165 417 157 396 c 1
 102 405 l 1
 122 450 157 473 207 473 c 0
 228 473 245 468 260 458 c 0
 274 448 280 435 280 420 c 0
 280 416 280 412 279 408 c 0
 275 390 262 375 238 362 c 1
 260 353 272 338 272 319 c 0
 272 314 271 310 270 305 c 0
 265 281 250 262 225 248 c 0
 203 235 180 228 155 228 c 0
 103 228 77 251 77 297 c 0
 77 299 77 300 77 302 c 1
163 -17 m 1
 112 -17 l 1
 494 473 l 1
 544 473 l 1
 163 -17 l 1
444 -13 m 1
 454 33 l 1
 339 33 l 1
 349 78 l 1
 502 228 l 1
 552 228 l 1
 521 80 l 1
 555 80 l 1
 545 33 l 1
 511 33 l 1
 501 -13 l 1
 444 -13 l 1
464 80 m 1
 479 151 l 1
 406 80 l 1
 464 80 l 1
EndSplineSet
MinimumDistance: x34,-1 x31,33 y33,31 y33,32 y28,37 y28,27 x33,35 x33,34 y30,28 x28,30 x28,29 
EndChar
StartChar: questiondown
Encoding: 286 191 252
OldEncoding: 191
Width: 398
VWidth: 2048
Flags: HW
HStem: -134 68<188 205> 249 89<154 243>
VStem: 32 87<-9 4> 154 89<249 338>
Fore
315 338 m 1
 296 249 l 1
 207 249 l 1
 226 338 l 1
 315 338 l 1
208 218 m 1
 289 218 l 1
 285 194 l 1
 278 152 247 111 191 72 c 0
 167 56 153 45 148 40 c 0
 132 26 123 12 119 -3 c 0
 118 -7 118 -12 118 -16 c 0
 118 -30 123 -41 134 -50 c 0
 147 -60 163 -65 183 -65 c 0
 230 -65 266 -39 289 13 c 1
 369 3 l 1
 335 -88 270 -134 173 -134 c 0
 129 -134 94 -123 66 -101 c 0
 42 -81 29 -56 29 -26 c 0
 29 -18 30 -9 32 0 c 0
 37 25 52 49 78 73 c 0
 91 87 115 105 148 129 c 0
 171 144 185 157 191 167 c 0
 197 176 203 193 208 218 c 1
EndSplineSet
MinimumDistance: x0,-1 
EndChar
StartChar: AE
Encoding: 293 198 259
OldEncoding: 198
Width: 652
VWidth: 2048
Flags: HW
HStem: 0 79<381 622> 110 82<160 287> 206 79<381 595> 388 79<381 613>
VStem: 287 94<78 110 191 206 284 388>
DStem: 390 957 515 812 -56 0 327 392 390 957 256 225 -56 0 158 0
Fore
-27 0 m 1
 289 467 l 1
 712 467 l 1
 695 388 l 1
 463 388 l 1
 441 284 l 1
 655 284 l 1
 639 206 l 1
 425 206 l 1
 398 79 l 1
 639 79 l 1
 622 0 l 1
 287 0 l 1
 310 110 l 1
 148 110 l 1
 77 0 l 1
 -27 0 l 1
201 191 m 1
 329 191 l 1
 372 396 l 1
 335 396 l 1
 201 191 l 1
EndSplineSet
MinimumDistance: x10,-1 x11,13 y13,11 y13,12 x9,11 x9,10 x5,7 x5,6 x4,2 x4,3 
EndChar
StartChar: Eth
Encoding: 303 208 269
OldEncoding: 208
Width: 471
VWidth: 2048
Flags: HW
HStem: 0 79<142 226> 204 59<-1 47 142 242> 378 10G<142 184> 458 10G<47 220>
VStem: 47 94<79 204 263 388> 342 98<210 250>
Fore
146 467 m 1
 319 467 l 2
 365 467 400 462 424 451 c 0
 453 438 474 414 487 378 c 0
 494 360 498 338 498 313 c 0
 498 288 494 260 487 228 c 0
 455 76 368 0 225 0 c 2
 47 0 l 1
 90 204 l 1
 42 204 l 1
 55 263 l 1
 103 263 l 1
 146 467 l 1
224 388 m 1
 198 263 l 1
 298 263 l 1
 285 204 l 1
 185 204 l 1
 159 79 l 1
 229 79 l 2
 282 79 320 91 344 116 c 0
 363 137 379 175 391 231 c 0
 397 257 399 280 399 300 c 0
 399 340 387 366 363 377 c 0
 346 385 314 388 266 388 c 2
 224 388 l 1
EndSplineSet
MinimumDistance: x5,-1 x1,11 y11,1 y11,0 x6,8 y8,6 y8,7 x13,15 x13,14 x8,10 x8,9 
EndChar
StartChar: multiply
Encoding: 310 215 276
OldEncoding: 215
Width: 381
VWidth: 2048
Flags: HW
DStem: 71 669 193 791 270 471 391 593 270 471 388 353 72 274 191 155 388 353 509 474 587 153 709 275 588 790 707 671 391 593 509 474
Fore
63 134 m 1
 181 230 l 1
 105 327 l 1
 176 386 l 1
 253 290 l 1
 369 386 l 1
 415 328 l 1
 298 231 l 1
 374 134 l 1
 303 75 l 1
 226 172 l 1
 109 76 l 1
 63 134 l 1
EndSplineSet
MinimumDistance: x8,-1 
EndChar
StartChar: Oslash
Encoding: 311 216 277
OldEncoding: 216
Width: 507
VWidth: 2048
Flags: HW
HStem: -8 76<246 263> 395 81<246 263>
VStem: 28 98<223 248> 384 98<215 248>
DStem: 153 153 240 65 41 27 134 -54 689 753 760 650 287 302 358 199 912 1003 1003 923 809 887 894 801
Fore
487 433 m 1
 549 490 l 1
 586 451 l 1
 520 391 l 1
 532 365 538 336 538 302 c 0
 538 280 536 256 530 231 c 0
 515 160 484 103 436 60 c 0
 386 15 326 -8 255 -8 c 0
 196 -8 153 5 124 32 c 1
 59 -26 l 1
 23 13 l 1
 91 75 l 1
 77 100 70 130 70 165 c 0
 70 187 73 211 78 237 c 0
 93 308 126 366 174 409 c 0
 224 453 284 476 355 476 c 0
 411 476 455 461 487 433 c 1
414 368 m 1
 397 386 371 395 339 395 c 0
 253 395 197 341 175 234 c 0
 171 213 168 194 168 176 c 0
 168 166 169 156 171 147 c 1
 414 368 l 1
438 317 m 1
 196 97 l 1
 214 78 237 68 268 68 c 0
 312 68 350 85 379 119 c 0
 405 148 424 186 433 232 c 0
 438 255 441 274 441 291 c 0
 441 301 440 309 438 317 c 1
EndSplineSet
MinimumDistance: x2,-1 
EndChar
StartChar: Thorn
Encoding: 317 222 283
OldEncoding: 222
Width: 435
VWidth: 2048
Flags: HW
HStem: 0 10G<47 142> 458 10G<47 142>
VStem: 47 95<0 88 167 300 379 467> 308 98<226 243>
Fore
47 0 m 1
 146 467 l 1
 241 467 l 1
 223 379 l 1
 280 379 l 2
 331 379 362 378 376 375 c 0
 409 370 432 354 447 329 c 0
 456 314 460 296 460 274 c 0
 460 262 459 249 456 235 c 0
 442 169 404 124 346 103 c 0
 320 93 279 88 223 88 c 2
 161 88 l 1
 142 0 l 1
 47 0 l 1
206 300 m 1
 177 167 l 1
 228 167 l 2
 266 167 293 170 308 175 c 0
 335 185 352 205 358 235 c 0
 360 242 360 248 360 254 c 0
 360 274 350 287 330 294 c 0
 318 298 292 300 252 300 c 2
 206 300 l 1
EndSplineSet
MinimumDistance: x8,-1 
EndChar
StartChar: germandbls
Encoding: 318 223 284
OldEncoding: 223
Width: 398
VWidth: 2048
Flags: HW
HStem: 0 10G<44 134> 405 70<177 185>
VStem: 44 89<0 320> 179 95<249 269> 222 92<369 379> 286 90<89 102>
Fore
44 0 m 1
 109 304 l 2
 121 361 139 403 162 429 c 0
 190 460 231 476 285 476 c 0
 321 476 349 469 369 455 c 0
 387 441 396 423 396 401 c 0
 396 394 396 387 394 379 c 0
 390 360 380 340 364 319 c 0
 349 300 340 288 336 281 c 1
 330 269 l 1
 329 267 329 265 329 263 c 0
 329 257 331 251 335 247 c 0
 337 241 346 228 364 206 c 0
 387 174 399 145 399 119 c 0
 399 113 398 107 397 101 c 0
 391 69 374 43 348 23 c 0
 321 2 292 -8 261 -8 c 0
 214 -8 185 12 170 53 c 1
 241 89 l 1
 246 72 256 64 269 64 c 0
 290 64 302 75 307 97 c 0
 307 100 l 0
 307 113 294 136 268 168 c 0
 244 198 231 222 231 241 c 0
 231 244 232 246 232 249 c 0
 234 261 246 282 266 312 c 0
 288 342 299 361 301 372 c 0
 302 375 302 379 302 382 c 0
 302 397 291 405 269 405 c 0
 245 405 228 393 216 369 c 0
 211 359 206 337 199 304 c 2
 134 0 l 1
 44 0 l 1
EndSplineSet
MinimumDistance: x14,-1 
EndChar
StartChar: ae
Encoding: 325 230 291
OldEncoding: 230
Width: 580
VWidth: 2048
Flags: HW
HStem: -8 63<143 167> -8 68<387 403> 143 56<326 461> 278 68<176 185 387 397>
VStem: 28 90<91 102>
Fore
481 108 m 1
 565 92 l 1
 527 26 469 -8 394 -8 c 0
 345 -8 309 8 283 39 c 1
 238 8 190 -8 141 -8 c 0
 108 -8 83 0 66 17 c 0
 52 30 45 46 45 67 c 0
 45 75 46 83 48 92 c 0
 56 131 79 159 116 177 c 0
 135 186 172 196 226 206 c 0
 248 210 267 215 284 220 c 1
 286 229 l 2
 287 234 288 239 288 243 c 0
 288 267 271 278 240 278 c 0
 207 278 184 264 169 235 c 1
 91 251 l 1
 124 314 183 346 266 346 c 0
 311 346 343 336 363 315 c 1
 392 336 426 346 462 346 c 0
 547 346 589 304 589 220 c 0
 589 197 586 172 580 143 c 1
 355 143 l 1
 355 138 354 133 354 128 c 0
 354 83 372 61 408 61 c 0
 439 61 463 76 481 108 c 1
503 199 m 1
 505 209 506 218 506 227 c 0
 506 261 488 278 451 278 c 0
 431 278 412 270 397 253 c 0
 383 238 373 220 368 199 c 1
 503 199 l 1
270 162 m 1
 219 149 190 142 186 140 c 1
 158 132 143 119 139 100 c 0
 138 95 138 91 138 87 c 0
 138 66 151 56 179 56 c 0
 209 56 231 67 246 89 c 0
 255 103 263 128 270 162 c 1
EndSplineSet
MinimumDistance: x31,-1 
EndChar
StartChar: eth
Encoding: 335 240 301
OldEncoding: 240
Width: 398
VWidth: 2048
Flags: HW
HStem: -8 73<190 207> 268 70<175 199> 458 10G<106 199>
VStem: 26 94<156 180> 282 93<164 175>
DStem: 359 842 408 790 217 775 245 712
Fore
205 467 m 1
 298 467 l 1
 327 439 l 1
 391 467 l 1
 399 436 l 1
 348 415 l 1
 394 355 418 293 418 230 c 0
 418 211 416 193 412 174 c 0
 401 120 375 77 337 43 c 0
 297 9 250 -8 197 -8 c 0
 145 -8 108 9 83 43 c 0
 66 66 57 93 57 125 c 0
 57 139 59 154 62 170 c 0
 71 214 94 253 128 286 c 0
 164 321 204 338 247 338 c 0
 271 338 292 331 313 316 c 1
 311 321 309 328 306 335 c 0
 303 343 295 360 281 386 c 1
 194 348 l 1
 186 378 l 1
 262 411 l 1
 245 430 226 449 205 467 c 1
156 169 m 0
 153 157 152 146 152 135 c 0
 152 121 154 109 159 98 c 0
 168 76 187 65 214 65 c 0
 239 65 262 76 282 97 c 0
 300 116 312 139 317 166 c 0
 319 176 320 186 320 195 c 0
 320 210 317 223 311 235 c 0
 301 257 282 268 256 268 c 0
 230 268 208 258 189 237 c 0
 173 219 162 196 156 169 c 0
EndSplineSet
MinimumDistance: x7,-1 
EndChar
StartChar: divide
Encoding: 342 247 308
OldEncoding: 247
Width: 358
VWidth: 2048
Flags: HW
HStem: 59 89<134 224> 189 83<16 342> 313 89<134 224>
VStem: 134 89<59 148 313 402>
Fore
201 313 m 1
 219 402 l 1
 309 402 l 1
 291 313 l 1
 201 313 l 1
56 189 m 1
 74 272 l 1
 400 272 l 1
 382 189 l 1
 56 189 l 1
147 59 m 1
 165 148 l 1
 255 148 l 1
 237 59 l 1
 147 59 l 1
EndSplineSet
MinimumDistance: x2,-1 
EndChar
StartChar: oslash
Encoding: 343 248 309
OldEncoding: 248
Width: 398
VWidth: 2048
Flags: HW
HStem: -8 70<192 208> 278 68<199 208>
VStem: 28 89<164 180> 288 89<156 180>
DStem: 141 102 212 39 65 14 137 -48 515 534 571 454 257 236 315 158 686 731 759 671 618 652 688 590
Fore
370 318 m 1
 411 357 l 1
 441 328 l 1
 397 288 l 1
 411 266 418 240 418 211 c 0
 418 198 416 184 413 169 c 0
 402 118 377 75 337 42 c 0
 297 9 251 -8 200 -8 c 0
 164 -8 133 1 108 19 c 1
 62 -23 l 1
 33 7 l 1
 80 50 l 1
 66 72 59 99 59 128 c 0
 59 142 61 156 64 171 c 0
 75 223 100 265 139 298 c 0
 178 330 224 346 276 346 c 0
 314 346 345 337 370 318 c 1
306 261 m 1
 295 272 280 278 262 278 c 0
 234 278 210 267 190 245 c 0
 172 225 160 201 154 172 c 0
 150 156 149 141 149 127 c 0
 149 115 l 1
 306 261 l 1
326 222 m 1
 170 77 l 1
 181 67 196 62 215 62 c 0
 243 62 268 73 288 94 c 0
 305 113 317 138 323 167 c 0
 326 180 328 191 328 202 c 0
 328 209 327 216 326 222 c 1
EndSplineSet
MinimumDistance: x5,-1 
EndChar
StartChar: thorn
Encoding: 349 254 315
OldEncoding: 254
Width: 398
VWidth: 2048
Flags: HW
HStem: -129 10G<44 134> -8 71<212 233> 278 68<208 233> 458 10G<44 134>
VStem: 44 89<-129 42 160 192 299 467> 283 91<160 184>
Fore
143 467 m 1
 233 467 l 1
 198 299 l 1
 235 331 272 346 307 346 c 0
 353 346 385 328 402 291 c 0
 412 271 417 248 417 222 c 0
 417 206 415 189 411 171 c 0
 401 123 380 82 351 49 c 0
 317 11 277 -8 231 -8 c 0
 194 -8 165 9 143 42 c 1
 107 -129 l 1
 17 -129 l 1
 143 467 l 1
171 177 m 0
 167 159 165 143 165 129 c 0
 165 85 185 63 225 63 c 0
 272 63 304 98 319 168 c 0
 323 185 324 200 324 213 c 0
 324 256 305 278 267 278 c 0
 217 278 185 244 171 177 c 0
EndSplineSet
MinimumDistance: x6,-1 
EndChar
StartChar: dotlessi
Encoding: 351 305 317
OldEncoding: 305
Width: 181
VWidth: 2048
Flags: HW
HStem: 0 10G<47 136> 329 10G<47 136>
VStem: 47 89<0 338>
Fore
47 0 m 1
 119 338 l 1
 208 338 l 1
 136 0 l 1
 47 0 l 1
EndSplineSet
MinimumDistance: x2,-1 
EndChar
StartChar: OE
Encoding: 352 338 318
OldEncoding: 338
Width: 652
VWidth: 2048
Flags: HW
HStem: -8 83<209 225> 0 80<414 633> 206 79<414 606> 388 79<414 624> 395 81<205 224>
VStem: 23 97<226 250>
Fore
650 80 m 1
 633 0 l 1
 332 0 l 1
 344 55 l 1
 311 13 265 -8 208 -8 c 0
 133 -8 87 27 69 96 c 0
 65 112 63 130 63 150 c 0
 63 175 66 203 73 234 c 0
 87 301 112 356 148 399 c 0
 191 450 243 476 307 476 c 0
 361 476 399 456 420 416 c 1
 431 467 l 1
 723 467 l 1
 706 388 l 1
 496 388 l 1
 474 284 l 1
 666 284 l 1
 650 206 l 1
 458 206 l 1
 431 80 l 1
 650 80 l 1
308 395 m 0
 239 395 193 343 171 241 c 0
 165 213 162 189 162 168 c 0
 162 106 188 75 240 75 c 0
 308 75 355 130 378 239 c 0
 383 264 386 286 386 305 c 0
 386 365 360 395 308 395 c 0
EndSplineSet
MinimumDistance: x21,-1 
EndChar
StartChar: oe
Encoding: 353 339 319
OldEncoding: 339
Width: 616
VWidth: 2048
Flags: HW
HStem: -8 74<191 208> -8 68<431 442> 143 56<368 503> 272 74<191 208> 280 66<426 442>
VStem: 28 92<156 180>
Fore
521 109 m 1
 605 95 l 1
 568 26 511 -8 436 -8 c 0
 388 -8 352 8 327 40 c 1
 287 8 243 -8 198 -8 c 0
 147 -8 110 9 85 42 c 0
 68 66 59 93 59 124 c 0
 59 138 61 153 64 168 c 0
 75 222 100 264 138 297 c 0
 176 330 222 346 275 346 c 0
 322 346 358 331 383 299 c 1
 419 331 460 346 506 346 c 0
 588 346 629 305 629 222 c 0
 629 199 625 173 619 143 c 1
 397 143 l 1
 396 135 395 127 395 120 c 0
 395 107 397 96 403 86 c 0
 413 69 429 61 451 61 c 0
 480 61 503 77 521 109 c 1
545 199 m 1
 547 208 548 216 548 223 c 0
 548 235 545 246 540 255 c 0
 531 272 516 280 494 280 c 0
 472 280 454 272 438 255 c 0
 424 240 415 221 410 199 c 1
 545 199 l 1
155 164 m 0
 153 155 152 147 152 139 c 0
 152 124 155 110 162 98 c 0
 172 77 190 66 214 66 c 0
 241 66 264 78 282 101 c 0
 299 120 309 144 315 172 c 0
 317 183 318 193 318 203 c 0
 318 217 316 230 311 241 c 0
 303 262 285 272 258 272 c 0
 205 272 170 236 155 164 c 0
EndSplineSet
MinimumDistance: x24,-1 
EndChar
StartChar: florin
Encoding: 357 402 323
OldEncoding: 402
Width: 363
VWidth: 2048
Flags: HW
HStem: 271 67<99 152 254 308> 399 76<278 296>
DStem: 312 556 498 556 214 -14 385 -83
Fore
146 271 m 1
 172 338 l 1
 236 338 l 1
 247 367 l 2
 263 408 278 435 294 450 c 0
 313 467 341 476 380 476 c 0
 408 476 436 471 462 462 c 1
 430 390 l 1
 410 396 394 399 381 399 c 0
 361 399 345 385 333 356 c 2
 326 338 l 1
 392 338 l 1
 366 271 l 1
 301 271 l 1
 179 -41 l 2
 166 -76 151 -100 134 -114 c 0
 114 -130 88 -137 54 -137 c 0
 20 -137 -9 -133 -33 -125 c 1
 1 -54 l 1
 22 -59 40 -62 52 -62 c 0
 67 -62 78 -56 86 -44 c 0
 90 -39 95 -26 103 -7 c 1
 210 271 l 1
 146 271 l 1
EndSplineSet
MinimumDistance: x13,-1 
EndChar
StartChar: circumflex
Encoding: 358 710 324
OldEncoding: 710
Width: 217
VWidth: 2048
Flags: HW
Fore
82 381 m 1
 169 476 l 1
 252 476 l 1
 298 381 l 1
 226 381 l 1
 199 429 l 1
 154 381 l 1
 82 381 l 1
EndSplineSet
EndChar
StartChar: caron
Encoding: 359 711 325
OldEncoding: 711
Width: 217
VWidth: 2048
Flags: HW
DStem: 2 974 150 974 139 781 221 876
Fore
102 476 m 1
 174 476 l 1
 199 428 l 1
 246 476 l 1
 318 476 l 1
 232 381 l 1
 149 381 l 1
 102 476 l 1
EndSplineSet
MinimumDistance: x2,-1 
EndChar
